<?xml version="1.0" ?><svg id="Layer_1" style="enable-background:new 0 0 64 64;" version="1.1" viewBox="0 0 64 64" xml:space="preserve" xmlns="http://www.w3.org/2000/svg" xmlns:xlink="http://www.w3.org/1999/xlink"><g><g><path d="M61.8,33.5c-6.7,3.4-12.3,8-17,14c-1.1,1.4-6.8,1.9-5.4,0c4.1-5.4,9.1-9.8,14.8-13.3C37.1,34,20,33.9,2.8,33.8    c-3.9,0,0.3-3,2.3-3C21.6,30.9,38,31,54.4,31.2c-5-4.6-9.8-9.4-14.5-14.3c-1.4-1.5,4.1-3.6,5.4-2.2c5.6,5.9,11.4,11.5,17.4,17    C63.4,32.3,62.3,33.2,61.8,33.5z"/></g></g></svg>