<?xml version="1.0" ?><svg id="_x30_1_Shapes" style="fill:white;enable-background:new 0 0 48 48;" version="1.1" viewBox="0 0 48 48" xml:space="preserve" xmlns="http://www.w3.org/2000/svg" xmlns:xlink="http://www.w3.org/1999/xlink"><path d="M7,40.9c3.9-1.6,9.3-0.6,13.6-0.5C22.8,42.7,7.2,42.6,7,40.9z M35.1,31.4c0.1,12.8-2.7,12.2-1.9-0.2c-1.1-0.1-2-0.1-3.1,0  C22.8,48-2.1,34.3,8.8,19.5c1.8-1.9,2.1-0.9,0.8,0.6C1.3,32.3,20.4,44.5,27.7,31.4c-4.5,0.2-9.6-0.4-13.9-0.5c-0.4,0-1,0-1.4-0.5  c-0.3-0.5-0.1-1.1,0.2-1.5c2.4-4,5.1-9.1,7.7-13.1c-2-0.5-4.2-0.2-6.2,0.6c0.1,5.8-2.2,10.5-1.9,1.2c-2.8,2.3-1.7-0.2,0-1.3  c-0.5-9.2,1.9-13.8,2-1.2c2.2-0.9,4.7-1.2,7-0.6c1.9-2.1,3.5-6.7,5.8-7.5c0-0.1,0-0.1,0-0.2c2.2,1.3,4,5.1,5.7,7.3  c7.9-0.5,12.8,1.7,1.2,2c2.5,4.5,6.2,8.9,7.9,13.8C41.7,31.8,36.6,31.4,35.1,31.4z M28.6,29.3c1.5-5.3-1.8-11.2-6.9-13.1  c-2.4,3.9-4.7,8.7-7,12.7c4,0,8.5,0.6,12.5,0.4C27.6,29.4,28.1,29.3,28.6,29.3z M39.7,29.3c-2-4.4-5.1-8.9-7.4-13.3  c-4.5,0.3-8.3-1.5-1.1-1.9C30,11.8,27.8,9.4,27,7c-0.9,2.6-3.1,5.4-4.5,7.8c5.7,2.1,9.4,8.3,8.1,14.3c0.8-0.1,1.7-0.1,2.6,0.1  c0.1-5.9,1.8-5.1,1.8,0.2c1.4,0.2,2.7,0.1,4.1-0.1C39.3,29.3,39.5,29.3,39.7,29.3z"/></svg>