<?xml version="1.0" encoding="UTF-8" standalone="no"?>
<svg
   version="1.1"
   viewBox="0 0 210 210"
   id="svg2"
   sodipodi:docname="ContourBackground2.svg"
   width="210"
   height="210"
   inkscape:version="1.3.2 (091e20ef0f, 2023-11-25)"
   xmlns:inkscape="http://www.inkscape.org/namespaces/inkscape"
   xmlns:sodipodi="http://sodipodi.sourceforge.net/DTD/sodipodi-0.dtd"
   xmlns:xlink="http://www.w3.org/1999/xlink"
   xmlns="http://www.w3.org/2000/svg"
   xmlns:svg="http://www.w3.org/2000/svg">
  <sodipodi:namedview
     id="namedview2"
     pagecolor="#ffffff"
     bordercolor="#000000"
     borderopacity="0.25"
     inkscape:showpageshadow="2"
     inkscape:pageopacity="0.0"
     inkscape:pagecheckerboard="0"
     inkscape:deskcolor="#d1d1d1"
     inkscape:zoom="2.7416636"
     inkscape:cx="163.0397"
     inkscape:cy="111.06395"
     inkscape:window-width="1920"
     inkscape:window-height="1043"
     inkscape:window-x="0"
     inkscape:window-y="0"
     inkscape:window-maximized="1"
     inkscape:current-layer="svg2" />
  <defs
     id="defs1">
    <pattern
       xlink:href="#a"
       id="b"
       x="0"
       y="0"
       patternTransform="matrix(0.07,0,0,0.07,910,46.4)"
       preserveAspectRatio="xMidYMid" />
    <pattern
       fill="#fff5ed"
       id="a"
       width="2374"
       height="2374"
       patternTransform="translate(910 46.4)"
       patternUnits="userSpaceOnUse"
       preserveAspectRatio="xMidYMid"
       style="fill:#fff5ed"
       inkscape:label="a">
      <path
         d="M2374 1286v-5l-59 35a470 470 0 00-97 75c-22 24-50 40-89 56l-19 8-19 7a221 221 0 00-75 40 170 170 0 01-66 35l-26 7-24 6c-20 5-33 10-42 15-12 7-26 13-50 20a1520 1520 0 01-20 5l-20 6a435 435 0 00-44 16c-10 5-22 16-35 33a624 624 0 00-24 37c-23 36-30 46-40 57a202 202 0 01-19 17L1560 1790a58 58 0 00-15 16 120 120 0 00-10 35 210 210 0 01-33 87 308 308 0 01-45 58l-15 14-20 20a168 168 0 00-38 66c-10 32-11 61-7 108l2 32a1545 1545 0 00 6 147h4a1210 1210 0 01-6-147l-2-32c-4-46-3-75 6-107a164 164 0 01 39-65l19-20 14-13a283 283 0 00 6-6c13-13 24-27 40-52 19-30 24-47 33-90 3-16 6-25 10-33 3-5 8-10 14-15l47-35 18-17c11-11 18-22 41-58a620 620 0 01 24-36 95 95 0 01 34-32c13-6 27-11 43-16a925 925 0 01 30-9l10-2c24-7 39-13 51-20 9-6 20-10 40-15l25-6 26-7c29-10 50-20 68-36a210 210 0 01 74-40l18-7 20-7c40-17 67-33 90-57 24-26 55-50 97-75l56-33V1030a203 203 0 01-50 70l-36 28a4209 4209 0 00-25 20l-5 4a9135 9135 0 01-20 15c-30 24-50 40-70 52-11 8-14 11-30 28-24 24-47 34-116 44-45 6-80 20-122 43a2580 2580 0 00-54 31 135 135 0 01-62 17c-68 0-164 45-204 90a438 438 0 01-180 123c-28 8-46 28-55 58a185 185 0 00-5 70c2 20 1 34-3 52-6 24-20 50-42 77-55 66-90 184-90 283v35l-1 87a400 400 0 01-20 116h-4c12-34 18-72 20-117v-121c0-100 36-220 92-286a190 190 0 00 41-75c4-18 5-31 3-51v-15c0-22 0-38 6-56 9-31 27-53 58-60 54-14 130-70 177-123a333 333 0 01 207-91c20 0 39-6 60-16l26-15 28-16a310 310 0 01 123-44c68-10 90-20 113-42 17-18 20-20 33-30a930 930 0 00 70-51 4404 4404 0 00 18-16l5-4a18468 18468 0 01 25-20c15-10 26-20 36-27a220 220 0 00 53-77zm0-460h-8a270 270 0 00-87 30 130 130 0 01-56 11 334 334 0 01-76-9 125 125 0 00-14-2 1082 1082 0 00-66-4c-42 0-68 3-71 11-2 4 2 10 12 20l16 13a6907 6907 0 00 19 16 50 50 0 00 21 10l10 2c15 3 20 5 25 10 6 8 6 19 0 36-10 27-23 40-40 40-15 2-30-4-58-20-18-10-27-28-33-60l-2-10-2-12c-4-26-7-36-15-40l-9-4c-9-3-18-4-32-3l-54 3c-82 6-114 20-147 60a526 526 0 00-17 21l-10 12-10 13a233 233 0 01-49 50l-16 12a422 422 0 00-20 16 757 757 0 00-65 61c-32 34-46 54-46 63 0 7 7 9 27 10h12c12 1 20 3 27 7 30 16 46 29 55 46 13 24 3 50-35 80-33 25-44 40-45 60l1 17c3 25 1 42-10 69a175 175 0 01-17 30 78 78 0 01-42 30l-17 6a247 247 0 00-72 41 173 173 0 00-63 100c-4 16-6 26-11 60-5 33-9 50-16 65-9 17-48 105-52 114a1514 1514 0 01-25 53c-16 32-30 56-42 70a337 337 0 00-55 113 3205 3205 0 00-7 22l-17 47c-24 60-100 104-184 104a240 240 0 01-123-34c-22-12-18-10-88-57-56-39-70-43-80-27l-8 10a207 207 0 01-20 24l-27 30-24 27a180 180 0 00-20 30c-5 10-7 20-10 42a3946 3946 0 01-2 13H480l2-14c3-21 5-32 10-43a184 184 0 01 21-30c7-10 15-18 24-28l28-30a204 204 0 00 19-23l7-10c13-19 28-14 87 26 70 47 65 45 87 57 41 23 77 33 121 33 82 0 157-42 180-101a870 870 0 00 17-47 26711 26711 0 00 7-22 340 340 0 01 56-114c12-14 26-38 42-70l25-52 51-115c7-15 10-30 16-64a490 490 0 01 11-60c11-43 30-76 65-102a290 290 0 01 52-33l20-9 17-6c20-7 30-14 40-29 6-7 10-17 16-30 12-25 14-40 11-66a107 107 0 01 0-18c0-20 12-37 45-62 37-28 47-53 34-75-8-16-24-28-53-45a70 70 0 00-26-6h-11c-23-2-30-4-30-14-1-10 13-30 47-66a758 758 0 01 85-77l16-11 8-7a190 190 0 00 40-43 1516 1516 0 00 10-13l10-12 17-22c33-40 67-55 147-60l57-4a90 90 0 01 43 8c10 4 13 15 17 43l2 10 2 12c5 30 14 48 30 57 27 15 43 20 56 20 16-1 28-13 37-38 5-16 5-26 0-32-3-4-8-6-21-9a220 220 0 01-10-2c-10-2-18-5-24-10a1000 1000 0 00-19-17 334 334 0 01-16-14c-10-10-15-17-13-23 4-10 30-14 75-14a912 912 0 01 66 4l15 2 18 4a328 328 0 00 57 5c22 0 40-3 55-10a276 276 0 01 96-30zm0-400v7a690 690 0 01-94 142c-13 13-30 20-54 22a450 450 0 01-75 0c-40-3-61-3-82 2a332 332 0 01-59 9h-9c-50 3-77 7-130 23l-56 14a974 974 0 01-129 15c-30 2-52 3-80 3-21 0-47 6-71 20-33 20-60 51-77 97a271 271 0 01-18 40 107 107 0 01-53 48l-16 8a255 255 0 00-60 40 402 402 0 00-90 141l-8 18a458 458 0 01-68 118c-30 34-80 57-160 80l-76 20c-27 7-46 13-62 20a484 484 0 00-144 104l-6 6A934 934 0 01 570 1520l-49 32a430 430 0 00-97 80 245 245 0 00-26 34 327 327 0 00-36 100l-6 24-7 26a260 260 0 01-58 107l-17 20a587 587 0 00-16 20 95 95 0 00-14 25c-4 13-6 24-7 47-3 40-6 60-19 90l-25 63a290 290 0 01-14 29 340 340 0 01-52 67 171 171 0 00-42 63 225 225 0 00-5 20l-2 7h-4l2-9 5-20c7-20 20-38 43-64 25-27 40-46 52-66a287 287 0 00 13-29l26-62c12-30 16-50 18-89 1-24 3-35 7-48a99 99 0 01 15-26l16-21 17-20a256 256 0 00 64-130l6-25a314 314 0 01 63-136c24-29 52-50 98-80l49-32a1020 1020 0 00 125-98l7-6c70-63 103-88 145-105 16-7 35-13 62-20l76-20c79-22 128-45 158-79 23-25 40-55 68-117l8-18a404 404 0 01 90-142 260 260 0 01 60-40l17-9a100 100 0 00 51-46 267 267 0 00 18-38 190 190 0 01 79-100c25-14 51-20 73-20 28 0 50 0 80-3a970 970 0 00 128-15l57-14c53-16 80-20 130-23h9c23-2 39-4 59-9 20-4 42-5 89-2 36 2 50 2 68 0a80 80 0 00 51-20c26-26 60-81 97-146zm0 1782a550 550 0 01-14-80v-8l-2-8c-7-62-12-87-21-97-10-10-12-20-10-34l1-9c3-14 3-20 0-27-3-10-13-17-30-25-20-8-26-19-20-33 3-6 7-12 14-20l20-22c25-26 36-44 36-65a60 60 0 01 26-50v4a56 56 0 00-22 46c0 22-12 40-37 68l-20 22-13 19c-6 12-1 20 17 28 19 7 30 16 33 27 3 8 3 14 0 30l-2 7c-1 14 0 22 10 31 10 11 15 36 22 100l1 7 1 8a790 790 0 00 10 64zm0-246-20-44c-4-10-5-15-4-20l10-22a280 280 0 00 14-44v16a249 249 0 01-10 30c-2 3-10 17-10 20 0 5 0 10 4 18l16 36zm0-337a80 80 0 01-26 17s-55 21-80 33a177 177 0 01-92 20c-20-1-35-8-58-22l-13-9a306 306 0 00-21-13c-16-8-13-23 6-41 14-15 38-31 74-55l17-10c71-46 72-46 88-60a260 260 0 01 105-59v4c-26 5-58 24-102 59a802 802 0 01-89 59 2580 2580 0 00-17 10c-36 24-60 40-74 55-17 17-20 28-6 35l21 13 13 8c22 14 37 20 57 23 24 2 52-4 89-20 25-12 80-33 80-34 13-5 20-10 28-18zm0-163v4c-26 0-48 12-78 36l-19 14a205 205 0 01-17 13l-25 15-35 22a445 445 0 00-32 23c-18 15-30 27-32 37-2 10 6 18 28 22 43 7 83 0 120-19a245 245 0 00 68-48 165 165 0 00 22-30v8a154 154 0 01-19 25 250 250 0 01-69 49c-38 18-80 26-122 19-24-4-35-13-32-27 3-10 14-24 33-39a440 440 0 01 68-46l25-15 17-12 18-14c30-25 53-36 80-37zm0-612v4a70 70 0 00-31 6 1340 1340 0 01-91 32l-27 5a6133 6133 0 00-10 0c-31 4-45 10-45 25a370 370 0 00 31 102 227 227 0 01 10 30 1022 1022 0 01 3 14c7 30 12 42 22 46 9 3 18 2 30-3 13-7 28-20 44-38l18-22 12-16c10-13 24-48 34-80V970a265 265 0 01-43 85l-18 22a158 158 0 01-46 38c-12 6-23 7-33 3-10-4-16-17-24-48a8297 8297 0 01-3-14 130 130 0 00-10-30 370 370 0 01-31-103c0-18 15-24 48-28a636 636 0 01 10-1 130 130 0 00 42-10 1320 1320 0 00 75-26c14-6 25-8 33-7zM0 1155a490 490 0 00 91-140c13-32 24-64 43-120l6-20c26-79 40-118 59-156 24-50 50-84 80-101a100 100 0 00 48-52 184 184 0 00 8-26c5-20 8-30 15-41 10-15 25-26 48-36 62-26 66-28 71-35 3-4 4-9 3-18v-16a371 371 0 01-1-22c0-40 0-45 10-52 1-2 4-3 7-5l12-6a270 270 0 00 36-23c8-6 10-9 31-32 15-16 25-25 36-32 14-10 28-12 43-8 17 5 43 8 74 10l87 2c20 0 35 1 60 6 32 5 38 6 50 6 16 0 30-4 42-12 20-13 32-18 44-20 15-3 20-2 66 8 68 14 122 5 162-39 20-22 22-35 14-58L1240 100c0-10 2-19 11-28 10-10 19-36 25-72h8c-6 38-15 66-27 78-7 7-10 13-9 20 0 5 2 7 5 16 8 26 7 42-16 67-42 46-100 56-170 40-45-10-50-10-62-8-11 2-22 8-42 20a83 83 0 01-46 13c-13 0-20-1-50-6-25-5-41-7-60-7-36 0-60 0-87-2-32-1-58-5-76-10-22-6-40 6-70 39a215 215 0 01-34 32 278 278 0 01-37 24l-10 6-8 4c-6 5-6 10-6 46v21L480 410c0 11 0 17-4 23-7 10-9 11-75 38-22 10-36 20-44 33-7 10-10 19-15 38-3 14-4 20-7 27-9 23-24 40-52 57-30 16-54 48-77 97-18 38-32 77-58 156l-6 19c-20 57-30 89-43 121A518 518 0 01 0 1167v-12zm0 309v-2h4c25 0 30 20 18 53a239 239 0 01-22 44v-7a228 228 0 00 18-39c11-30 7-47-14-47H0V1280a1349 1349 0 00 54-33 340 340 0 00 118-212c0-71 85-287 128-314a460 460 0 00 141-150c8-20 22-28 57-36 25-6 34-10 42-20 6-6 11-18 18-40l10-33c14-48 28-73 52-80l40-16a230 230 0 01 67-20c26-2 52 4 77 20 22 13 48 18 80 17 24 0 48-4 78-10l33-8c10-3 17-4 22-4a1247 1247 0 00 146-8 420 420 0 00 86-20c75-26 130-72 134-109 0-10 1-11 10-43 10-32 13-52 11-73 0-8-2-17-5-25a280 280 0 01-14-64h4c3 26 7 46 13 63a99 99 0 01 6 26 190 190 0 01-10 74c-10 32-10 33-11 43-5 39-60 86-136 112-24 9-54 15-88 20a996 996 0 01-146 8l-21 4-33 7c-30 7-55 10-80 11-31 1-59-5-80-18-26-15-50-20-76-18-20 2-37 7-66 20l-40 14c-22 7-36 31-50 78l-10 33c-6 23-11 35-18 43-8 10-19 14-47 20-30 8-44 15-51 34-15 40-92 120-143 152-41 26-126 240-126 310a340 340 0 01-120 216L0 1286v-5 183zm0-687v-5c30-15 58-40 86-75l63-81c7-8 16-16 30-26l20-15c38-28 56-48 64-77l10-49 10-62c11-67 23-106 40-127 43-53 79-110 79-130 0-10 0-13 23-62l7-15c10-23 16-40 17-53h4c-1 14-7 31-17 54L430 70c-22 48-24 51-24 60 0 22-35 80-80 132-16 20-27 60-38 126l-10 62-10 49c-8 30-27 51-65 79l-21 16-30 24c-5 7-46 63-62 82-30 35-59 60-90 77zm0 1430v-16l6 24c8 24 19 33 33 26 75-35 133-95 133-156a307 307 0 01 90-207c2-3 5-5 9-7l8-6c14-10 20-20 28-50 3-12 5-20 16-52l3-8a180 180 0 00 16-73c-2-18-15-21-44-7A320 320 0 01 260 1690a470 470 0 01-167 20H79a157 157 0 00-60 12 86 86 0 00-19 11v-5a93 93 0 01 18-10 161 161 0 01 67-12h8c61 2 113-3 167-20a317 317 0 00 36-15c32-16 48-12 50 10 2 15-3 36-17 75l-2 7c-11 33-14 40-16 52-8 30-15 41-30 52l-8 6-9 7a140 140 0 00-21 23 304 304 0 00-67 180c0 64-60 125-136 160-17 9-29-2-37-28l-3-8zm0-245v-10l6 13c8 20 13 41 17 67 2 20 3 36 4 73 0 37 2 50 6 60 5 10 15 9 33-7 68-56 86-90 86-152 0-29 5-50 15-70 9-19 14-27 53-78a276 276 0 01 30-35 177 177 0 01 14-12c2 0 3-2 4-3a41 41 0 00 10-13 142 142 0 00 9-23l1-5 2-5a380 380 0 00 6-23c1-8 0-13-3-16-10-6-37-1-95 20a293 293 0 01-110 16c-30 0-40 2-52 9-14 8-23 25-30 56l-6 24v-16l2-9c7-32 17-50 32-59 12-7 23-8 54-9 46 0 72-3 110-16 58-21 86-27 97-20 5 4 7 10 5 20a133 133 0 01-4 16l-2 9-2 4-1 5a145 145 0 01-10 24 50 50 0 01-10 14l-4 3-5 4-10 8a272 272 0 00-29 34 444 444 0 00-53 77c-10 20-14 40-14 69 0 63-19 98-87 155-20 17-33 18-40 5-4-10-5-23-6-61l-4-73c-3-25-9-47-17-65l-2-5ZM1500 0h4l6 20a460 460 0 01 21 110c2 44-6 85-26 124-30 60-81 105-143 135a355 355 0 01-144 36c-27 0-68 6-147 19l-10 1a1090 1090 0 01-147 20c-14 0-16 0-77-11l-36-6c-80-12-123-5-127 30V490l-2 10c-4 44-8 63-17 80-11 20-30 31-62 31-40 0-50 3-60 13 1-2-20 23-33 34l-63 55a1350 1350 0 00-25 23 362 362 0 00-104 160c-7 32 14 37 75 4a2477 2477 0 01 176-86l62-28 43-20 7-4 9-5 20-10c71-35 136-42 199-5 90 53 151 146 151 223 0 76-3 100-20 132a180 180 0 01-20 28 240 240 0 00-50 84c-5 25 18 28 80 0 52-24 88-60 112-104a318 318 0 00 24-60l14-50a115 115 0 01 7-19c30-59 83-120 143-147 30-13 52-38 77-82l20-37c14-24 25-38 37-47 40-30 114-44 200-44 30 0 65-5 108-14a1662 1662 0 00 60-14l76-20a1460 1460 0 01 254-20c68 0 110-36 152-152 26-72 26-104 10-136l-4-10a53 53 0 01-6-24c0-15 0-15 10-97a2910 2910 0 00 10-120V0h4v12a794 794 0 01-10 120c-10 82-10 82-10 97 0 8 2 15 6 23l4 10c16 32 16 65-10 138-43 118-86 156-156 156-91 0-197 6-253 20l-77 19a1666 1666 0 01-60 14c-43 10-79 14-109 14-84 0-157 15-196 43-12 9-23 23-36 46l-20 37c-26 44-48 70-80 84a322 322 0 00-140 145 111 111 0 00-7 18l-14 50a322 322 0 01-24 60 236 236 0 01-115 106c-63 30-90 26-85-4 4-20 25-55 51-86a175 175 0 00 20-27c17-31 20-55 20-130s-60-167-150-220c-61-35-125-29-195 5a526 526 0 00-29 15l-7 4a628 628 0 01-43 20L560 818a2473 2473 0 00-176 87c-63 34-89 28-81-10a333 333 0 01 105-160l26-24 62-55c12-10 34-36 32-34 11-11 23-14 64-14 30 0 48-10 59-30 8-15 12-34 16-77l1-10 2-12c2-20 17-33 44-37 22-4 50-3 86 3l36 6c60 10 63 10 77 10 22 0 50-3 147-19l10-1c79-13 120-19 147-19 40 0 94-12 142-36 62-30 111-74 141-133a230 230 0 00 26-121c-1-33-8-64-20-110zm54 0h4l14 59a270 270 0 01-3 153 241 241 0 01-44 82 547 547 0 01-77 74 360 360 0 01-142 73 1023 1023 0 01-90 16l-40 5-37 5c-46 5-70 10-86 17a568 568 0 01-212 23c-10-2-20-4-36-10a180 180 0 00-50-10c-15 2-26 10-33 28-8 18-10 30-13 60-5 35-12 47-40 56a159 159 0 00-27 10l-7 4-5 4c-8 4-15 6-37 6l-37-2c-5 1-3 0-28 25l-25 21-32 24c-20 15-33 26-44 37-19 20-27 36-22 50 6 15 16 18 36 11a220 220 0 00 30-13l37-20a462 462 0 01 50-22 642 642 0 00 43-20l51-24 46-21c68-29 116-40 150-26l20 8 25 10a597 597 0 01 51 23c73 38 120 88 138 158 27 110 14 180-32 247-16 22-14 36 0 35 17 0 40-20 60-50 12-18 20-40 32-85l7-25c2-10 4-18 7-25 20-66 43-108 85-138 28-20 94-61 100-66 27-20 42-37 58-71 30-70 83-97 175-97a580 580 0 00 117-13 2472 2472 0 00 25-6 914 914 0 01 60-8 670 670 0 00 124-24l12-3a672 672 0 01 220-21c64-4 105-21 117-58a345 345 0 01 14-35l12-25c20-49 22-87-6-156a342 342 0 01-20-82c-7-47-6-91 0-160V0h4v10a690 690 0 00-1 159 338 338 0 00 20 80c29 70 28 110 6 160l-11 25a340 340 0 00-14 34c-13 39-55 56-122 60a771 771 0 01-94 1c-23 0-60 7-124 21l-12 3A682 682 0 01 1740 580l-22 4a19360 19360 0 00-25 5c-46 10-80 14-118 14-90 0-142 27-172 94-15 35-30 54-58 73-7 5-73 46-100 66-42 30-65 71-85 136l-7 25-6 25c-12 45-20 67-33 87-20 30-45 50-63 51-18 1-20-17-3-42 45-65 58-134 31-243-17-70-64-118-136-155a601 601 0 00-75-33l-21-9c-32-12-80-2-146 27a1300 1300 0 00-46 20L602 750 560 770a458 458 0 00-49 22l-37 20a224 224 0 01-31 13c-21 7-34 4-40-13-6-16 2-34 23-55 10-10 24-22 44-37l31-24a265 265 0 00 25-20c26-28 24-25 30-27l38 2c21 0 28-1 35-6l5-3 7-4a162 162 0 01 28-10c26-9 33-20 37-54 3-30 6-42 13-60 8-20 20-30 37-30 13 0 22 1 51 10a251 251 0 00 36 10h16c82 0 158-7 194-23 17-8 40-12 86-18l37-5a2463 2463 0 00 130-20 350 350 0 00 140-73 544 544 0 00 77-74 237 237 0 00 44-80c15-46 17-96 3-151a1127 1127 0 01-15-60zm450 0h5a237 237 0 01-43 44 40 40 0 01-20 5c-10 0-16 3-26 10l-10 6a90 90 0 01-55 16c-22 0-40-5-63-16a802 802 0 01-10-4l-8-4-17-6a53 53 0 00-12-2c-10 0-17-2-44-13l-6-2c-20-8-32-11-42-10-11 0-17 7-17 24 0 82-20 199-48 226-30 30-105 94-135 115-52 38-123 80-175 100a423 423 0 01-52 15c-13 4-26 6-45 10l-45 7-56 11c-81 18-99 20-150 20-10 0-12 0-56-8L850 540a160 160 0 00-70 0c-18 5-24 18-15 40 8 22 20 35 35 43 13 7 27 10 55 15 37 6 43 7 61 12a310 310 0 01 74 29c33 18 58 45 79 82 10 20 37 77 42 84 13 23 24 26 43 8 20-20 40-33 83-56l9-4c31-17 47-26 62-38 20-15 35-32 43-52 34-80 82-131 128-131h22l99-1a370 370 0 00 116-19 918 918 0 01 146-52l60-20a4190 4190 0 01 45-14l32-10a237 237 0 00 26-13l23-13c14-10 24-13 48-17h4a90 90 0 00 50-23c32-27 35-91 16-176a620 620 0 01-6-140 3312 3312 0 01 3-74h4v12l-3 62a620 620 0 00 6 140c19 85 16 150-17 180a95 95 0 01-52 22l-5 1c-22 4-33 7-46 16a252 252 0 01-23 14 240 240 0 01-27 12l-32 10a21355 21355 0 01-45 16 4452 4452 0 01-110 35 920 920 0 00-95 36c-23 10-63 16-118 19h-121c-44 0-91 51-124 130a130 130 0 01-44 53 421 421 0 01-63 39l-9 4a316 316 0 00-82 55c-20 20-35 16-50-9-4-7-30-65-41-84a204 204 0 00-78-80 305 305 0 00-73-30l-60-11c-30-5-43-8-57-15a79 79 0 01-36-45c-10-25-3-40 17-47 16-4 39-4 71 1l25 4c43 8 45 8 55 8 50 0 68-2 150-20a1514 1514 0 01 100-19 735 735 0 00 97-24 970 970 0 00 308-213c26-27 47-143 47-224 0-19 7-28 20-29 11 0 24 3 44 11l6 2c26 10 34 14 43 14l13 1 18 6a360 360 0 01 13 6l4 3c24 10 40 15 62 15s35-5 52-15l10-7a50 50 0 01 30-10c5 0 10-1 17-5 10-6 22-17 38-36l2-4Zm-720 2374h-8a678 678 0 00 7-116 443 443 0 01-10-160 240 240 0 01 20-70 280 280 0 01 50-72 460 460 0 01 48-43c17-15 25-22 30-30l3-12-3-36-3-36c-2-48 7-77 33-86 62-20 102-48 132-100 37-68 102-126 142-126 49 0 79-7 116-34 27-20 38-26 50-30 8-2 14-3 36-3 7 0 13-3 22-10l22-22c24-23 47-35 82-35h30c29 1 34 1 44-2 12-5 22-12 58-45a513 513 0 01 105-74 275 275 0 00 37-30c17-15 32-30 47-47v12a797 797 0 01-41 41 282 282 0 01-53 40 510 510 0 00-90 64 220 220 0 01-60 46c-12 4-17 4-48 3h-29a100 100 0 00-77 32l-22 23c-10 8-18 12-27 12-20 0-27 0-34 3-10 3-21 10-47 28a180 180 0 01-121 36c-37 0-99 57-135 120a219 219 0 01-137 106c-20 7-28 33-27 78l3 35 3 37c0 6-2 10-5 16-5 10-13 16-31 32-25 20-33 28-46 42a272 272 0 00-49 70 233 233 0 00-20 69 422 422 0 00 10 156l2 16a986 986 0 01-4 64 750 750 0 01-5 38zm-53 0h-4v-2c12-28 17-46 17-74l-3-62c-3-47-4-77-2-111a465 465 0 01 40-172 350 350 0 01 42-65 233 233 0 01 17-18l15-14c22-22 30-46 30-115 0-75 11-94 62-112l11-4a203 203 0 00 24-10c20-10 38-25 57-46 101-110 147-139 223-139a160 160 0 00 87-25c7-4 55-35 72-44a239 239 0 01 140-36c30-2 42-3 56-7a76 76 0 00 43-33c9-14 27-28 58-48l23-14c37-23 45-28 58-38a230 230 0 00 54-58 808 808 0 00 23-35v8l-20 30a233 233 0 01-54 58c-13 10-21 15-60 38a1484 1484 0 00-22 14c-30 20-48 34-56 47a80 80 0 01-46 35c-14 4-27 5-57 6-50 2-73 5-104 19a440 440 0 00-34 17L1850 1410c-30 17-55 25-89 25-74 0-120 30-220 138a216 216 0 01-104 64c-20 7-30 13-36 25-10 15-13 40-13 80 0 70-8 95-31 118l-15 14a230 230 0 00-17 17 298 298 0 00-40 65 377 377 0 00-18 44c-14 40-20 80-23 126a910 910 0 00 2 111l3 62c0 26-4 43-17 76zm100 0h-5l1-60a440 440 0 00-10-96l-1-8c-8-50-10-76-8-104 4-37 19-66 48-90 87-72 118-120 118-176 0-10-2-20-4-33-4-19-5-22-4-30 0-10 5-18 14-26 10-10 28-19 54-28 39-14 62-36 96-85l7-10c18-25 28-38 42-50 17-17 35-28 57-33a670 670 0 00 100-30 196 196 0 00 21-11l17-10c10-7 20-9 45-10a120 120 0 00 43-5 85 85 0 00 38-25c20-20 40-30 70-35l16-2c27-4 40-7 53-14a540 540 0 00 93-78l12-11a470 470 0 01 85-66 140 140 0 00 45-34v6a149 149 0 01-43 32c-20 10-46 30-84 64l-12 12c-67 60-76 68-94 78-14 8-27 10-55 15l-15 2c-30 5-50 14-68 34a89 89 0 01-40 26 150 150 0 01-44 6c-23 0-33 2-43 8a570 570 0 01-17 10 200 200 0 01-21 11c-20 9-48 18-100 30-40 10-61 30-97 82l-7 10c-36 50-60 72-98 87-26 9-43 18-53 27-9 7-13 14-13 24 0 6 0 10 4 28 2 14 4 23 4 34 0 58-32 106-120 180a125 125 0 00-46 86c-3 28 0 54 8 104l1 7a440 440 0 01 10 97v60zm-952 0h-8a608 608 0 00 8-86c5-70 16-107 46-131 18-15 28-35 34-63l5-37c3-21 5-32 10-40a30 30 0 01 28-20 440 440 0 01 212 80c35 26 84 53 126 68 51 19 87 18 98-6l10-23c12-27 19-49 21-70v-24c-1-10-5-18-16-30l-5-5a121 121 0 01-10-10 120 120 0 01-10-17l-4-8c-6-12-10-18-16-22a270 270 0 00-113-27 1078 1078 0 00-36-3H750c-38-4-60-7-75-13-56-23-137-105-137-146 0-22 7-38 22-56 7-10 44-47 50-54 18-20 40-38 70-58l70-45a200 200 0 00 24-22l29-29c28-29 50-45 78-57 13-5 32-10 69-20a37886 37886 0 01 46-14 2384 2384 0 00 50-14 458 458 0 00 162-73c34-33 46-55 62-103a270 270 0 01 20-50c38-70 114-156 172-180 56-23 77-47 77-72 0-11 10-33 27-54 19-25 42-45 66-56 50-23 133-40 188-40 20 0 39-6 65-20 36-18 40-20 53-20 42 0 127-10 181-23l16-4 13-4 24-5a127 127 0 01 72 1c18 5 54-4 90-23a270 270 0 00 40-24v10c-44 31-102 53-132 44a118 118 0 00-32-5c-10 0-22 0-36 4a941 941 0 00-37 10l-16 3a952 952 0 01-183 24c-11 0-15 2-50 20-27 13-46 20-68 20-54 0-136 17-185 39-22 10-45 30-63 54-15 20-25 40-25 50 0 28-23 54-82 78a443 443 0 00-168 176 300 300 0 00-20 50 210 210 0 01-64 105A450 450 0 01 1050 1380a2391 2391 0 01-50 15 5914 5914 0 01-47 13l-68 20a228 228 0 00-76 56l-28 29a207 207 0 01-26 22c-10 8-58 38-70 46-29 20-50 37-68 56-7 8-43 44-50 54a76 76 0 00-20 50c0 38 80 117 132 140 14 5 36 9 73 11a2320 2320 0 00 17 2l28 2c55 5 94 13 116 28a80 80 0 01 20 25l3 9a113 113 0 00 10 15l9 10 5 5c11 13 17 21 18 34v26c-2 22-10 45-21 72l-10 23c-15 30-54 30-109 10a561 561 0 01-127-68 428 428 0 00-208-78c-20 0-25 12-30 52a392 392 0 01-5 37 110 110 0 01-37 68c-27 22-38 58-43 126l-1 22c-2 28-4 47-7 63zm32 0h-4l4-19 4-22c10-52 17-79 26-95l32-44c33-40 43-57 43-74v-20c1-20 6-33 19-37 15-6 40 1 80 25l102 62 70 41a2825 2825 0 01 25 16c55 33 154 20 183-31 14-25 18-34 30-69a326 326 0 01 6-12 167 167 0 01 16-30c37-55 59-103 59-145 0-15 3-27 13-60l4-14c15-48 12-76-16-95a91 91 0 00-40-15 170 170 0 00-95 24l-30 15a248 248 0 00-16 10l-17 10c-46 27-81 36-130 24a340 340 0 00-52-10 280 280 0 01-92-26c-25-15-30-36-12-66a368 368 0 01 57-73 621 621 0 01 33-30s25-20 31-27a337 337 0 00 26-25 386 386 0 01 219-135c146-34 201-50 232-70 34-23 85-99 146-218 20-40 49-72 84-101 20-17 37-29 70-49a210 210 0 00 44-32 84 84 0 00 12-20 2092 2092 0 00 27-57c26-43 64-70 124-82 50-9 79-10 118-9h22c20 0 38-4 66-14a602 602 0 01 275-46h9c49 4 71 4 100-2a196 196 0 00 56-22v5a200 200 0 01-55 20c-30 7-52 7-102 3h-8c-17-2-30-2-41-2-80 0-151 15-233 47a177 177 0 01-90 15c-38-2-66 0-116 10-60 10-96 37-121 80a288 288 0 00-16 30l-12 26a87 87 0 01-12 20c-7 10-16 15-46 34-31 20-49 31-69 48a319 319 0 00-82 100c-62 120-113 195-147 219-32 20-87 37-235 71a380 380 0 00-216 134 340 340 0 01-26 25l-31 27-33 30a364 364 0 00-56 72c-17 28-13 47 10 60a290 290 0 00 92 26 735 735 0 01 50 10c49 12 82 3 128-24l17-10a240 240 0 01 17-10l30-15c38-20 67-27 97-24a95 95 0 01 40 16c32 20 34 50 20 100l-5 14a190 190 0 00-13 58c0 43-23 91-60 147a163 163 0 00-16 30l-4 12a350 350 0 01-31 69c-30 53-133 67-190 32a2288 2288 0 00-24-15l-70-42a7160 7160 0 01-103-62c-37-23-62-30-76-25-10 4-15 15-16 34a242 242 0 00 0 15v6c0 18-10 35-45 79-16 20-24 30-30 41-10 16-16 42-26 94l-4 22-4 18zm42 0h-4v-4c0-50 33-133 76-172a104 104 0 00 14-16 142 142 0 00 12-20l8-17c13-25 27-26 67 1l25 18a2707 2707 0 00 80 52 290 290 0 00 135 53c67 0 130-24 157-59 6-8 13-20 20-38l10-27 11-29c19-50 31-75 46-92a410 410 0 00 59-208c0-8 0-13 4-33l3-20c2-22 0-37-7-50-18-27-78-36-152-18a398 398 0 00-75 25 880 880 0 00-65 37c-27 15-51 17-98 5-117-28-120-34-60-106 68-83 186-182 222-182 40 0 213-48 260-71a590 590 0 00 146-150c3-4 54-86 76-117a370 370 0 01 107-110c29-16 52-40 74-73 8-12 42-70 50-80a50 50 0 01 18-16c56-25 96-36 156-36h114c16 0 30-2 90-10l18-2a698 698 0 01 110-8c74 0 113-2 177-16a110 110 0 00 36-13v5a150 150 0 01-35 12 688 688 0 01-202 16c-20 0-46 3-85 8l-17 2c-62 8-75 10-92 10h-114a340 340 0 00-154 35c-5 3-10 7-16 15-9 10-43 68-50 80a227 227 0 01-76 75c-34 20-69 57-105 108-23 32-74 113-77 117a590 590 0 01-147 151c-47 24-222 72-262 72-34 0-151 100-220 180-57 70-56 73 59 100 46 12 70 10 95-4a402 402 0 01 141-63c76-18 137-10 157 20 8 13 10 30 7 52a381 381 0 01-3 20l-4 33c0 67-28 175-60 210a294 294 0 00-45 92c-1 3-9 23-10 29l-11 27a270 270 0 01-20 39c-30 36-93 60-160 60-36 0-80-19-138-53l-53-35a3408 3408 0 01-27-18l-25-17c-38-27-50-26-61-3l-9 17a145 145 0 01-11 20l-16 17c-40 38-74 120-74 169v4zm-118 0h-4c5-10 7-21 7-32 0-80 20-166 48-195 20-20 30-33 40-50 10-22 15-48 15-83 0-27 5-46 13-60 7-10 15-17 36-30a125 125 0 00 15-10c18-16 26-25 30-38 6-16 4-36-7-63a273 273 0 00-16-32l-3-7a299 299 0 01-10-20c-21-42-16-75 30-118a807 807 0 01 106-85l76-50a3844 3844 0 01 68-58c20-16 36-29 52-40 18-12 35-20 50-24l87-24c50-14 87-27 111-40a180 180 0 01 30-10c34-10 47-17 67-33a290 290 0 00 76-110c63-137 76-156 127-194 13-10 26-17 46-26l9-4c47-20 67-35 83-69 8-14 10-24 14-48 3-20 5-30 14-40 10-14 27-25 56-36L1650 730c65-17 100-21 157-23 27 0 37-2 50-8l14-8c15-10 32-18 52-23a280 280 0 01 74-5h10c10 0 26-4 78-19 42-12 63-17 76-17l14 2 20 3c39 7 69 8 100 0 30-10 58-27 80-57v7a147 147 0 01-80 53c-30 9-62 8-100 1l-20-4-14-1c-13 0-33 5-78 18a344 344 0 01-76 18h-10c-31 0-50 0-73 5a120 120 0 00-50 22 85 85 0 01-16 9 120 120 0 01-51 8c-57 2-92 6-156 23a497 497 0 00-47 14 120 120 0 00-55 35c-8 10-10 19-13 38a140 140 0 01-14 50 121 121 0 01-38 45 240 240 0 01-48 26l-9 4c-20 9-32 16-44 25-51 38-63 56-126 193a300 300 0 01-78 112 170 170 0 01-68 32 177 177 0 00-30 11 717 717 0 01-111 40 3431 3431 0 01-86 23 180 180 0 00-50 25 543 543 0 00-51 40c-10 7-38 33-38 33a388 388 0 01-30 25l-77 50a803 803 0 00-106 84c-44 42-49 73-30 113a295 295 0 00 11 20l4 7a276 276 0 01 16 32c11 29 13 50 7 66-4 14-13 23-31 40l-21 14a79 79 0 00-30 25 110 110 0 00-12 58c0 35-5 62-16 84-9 18-20 30-40 51-28 28-47 115-47 193 0 10-2 22-7 32zm1118 0h-4l-4-23a458 458 0 01-11-148c3-23 3-38 2-60v-30c4-17 15-34 42-65 36-40 48-61 78-120a563 563 0 01 25-42c12-19 27-33 66-67 45-38 62-54 72-75l8-18a815 815 0 00 6-16c14-40 31-55 90-70l85-21c64-17 100-30 132-50 23-15 23-15 110-66l10-6c40-23 67-40 90-55a590 590 0 00 35-25 2863 2863 0 00 25-20 347 347 0 01 64-40v4a340 340 0 00-62 40l-25 20a595 595 0 01-35 25l-90 55-10 6c-87 50-87 50-110 65a416 416 0 01-133 50l-85 22c-32 8-52 17-65 30-10 9-16 19-23 38l-6 16a202 202 0 01-7 17 250 250 0 01-73 77 335 335 0 00-66 66 305 305 0 00-10 18L1560 1930a460 460 0 01-80 120 160 160 0 00-40 63 120 120 0 00 0 30c1 22 0 37-2 60-5 44-1 83 10 147l5 24zm-303 0h-8l5-17c4-14 8-27 10-42 11-50 14-93 14-163 0-23-7-39-16-39-12 0-28 23-44 68-38 112-90 165-170 165-88 0-115-5-191-40a347 347 0 01-37-20c-12-7-50-34-60-38-16-10-27-11-37-4l-8 6a228 228 0 01-17 15 585 585 0 01-12 10l-4 3c-33 26-45 45-45 84v12h-8v-12c0-42 13-63 48-90a1050 1050 0 01 8-7l8-6a220 220 0 00 16-15l10-7c13-9 27-7 46 4l59 38a340 340 0 00 36 20 350 350 0 00 189 39c76 0 124-50 162-160 17-48 34-72 50-72s25 20 25 46a754 754 0 01-29 222zm-590 0 2-4a633 633 0 00 26-53c10-24 22-38 36-41 15-4 28 3 50 20 21 17 24 20 30 20 7 1 17 5 35 12l55 22a1060 1060 0 00 68 24h-14l-22-8a1112 1112 0 01-33-12l-55-22c-18-7-28-11-34-12-8 0-10-3-33-20-20-17-33-24-46-20-12 3-23 15-34 39a637 637 0 01-27 55zm446 0a120 120 0 00 45-25 512 512 0 00 35-45 1383 1383 0 00 10-15l1-3 4-6a353 353 0 01 13-20l10-10c4 0 5 3 5 9v8c0 28 0 45-2 65a191 191 0 01-10 42h-4a184 184 0 00 10-43c2-20 3-37 2-64v-13l-8 9a350 350 0 00-13 19l-3 6-2 3a5016 5016 0 01-10 15 505 505 0 01-36 46 122 122 0 01-35 22zm-726 0h-6c13-14 20-33 20-60 0-73 0-68 5-82a90 90 0 01 13-26c1-3 20-31 26-43 12-20 44-65 49-74 14-24 18-47 18-95 0-31 10-56 32-93l12-18a287 287 0 00 10-18c6-12 10-23 10-32 0-15-5-30-20-44-20-20-33-21-44-7a170 170 0 00-20 65l-3 18-8 38c-6 18-15 30-33 49l-13 13a141 141 0 00-45 77l-5 21A546 546 0 01 180 2280c-30 45-43 75-43 95h-4c0-20 14-52 44-96a543 543 0 00 98-215l5-22c7-33 20-54 46-80l13-12c18-18 27-30 32-47a323 323 0 00 8-37l3-18a170 170 0 01 21-67c12-17 29-15 50 7 15 15 22 30 20 46 0 10-3 21-10 34a291 291 0 01-10 18l-11 18c-22 36-32 60-32 90 0 50-5 74-19 98l-48 74-27 43a110 110 0 00-12 25c-5 13-4 9-4 81 0 26-7 45-20 60zM1227 0h4l-5 11a220 220 0 00-21 100c0 30-9 46-27 51-13 5-22 4-70-1-45-6-75-7-110 0A590 590 0 01 870 187c-44 0-145-11-214-28a87 87 0 00-67 10 290 290 0 00-55 47 221 221 0 01-54 46c-28 15-45 30-53 48-8 16-10 31-10 60 0 18-10 27-37 40l-15 6c-35 16-50 33-50 66 0 50-20 76-70 110l-17 13a705 705 0 00-29 20c-28 23-43 58-62 132l-16 68a1386 1386 0 01-20 77l-20 65c-4 13-6 20-10 25-3 6-27 36-50 72l-20 35v-8l17-29a1071 1071 0 01 50-72l10-24 20-66 20-76 16-68c18-75 33-110 63-133a318 318 0 01 29-22l18-12c48-34 67-60 67-107 0-35 16-53 52-70 4 0 16-6 15-6 26-12 35-20 35-35 0-30 2-46 10-62 10-20 26-35 55-50 16-10 29-20 56-48 25-25 37-36 53-45a91 91 0 01 70-10c68 16 170 27 213 27a590 590 0 00 127-28c36-5 66-5 112 0 46 6 55 7 68 3 16-5 24-20 24-48 0-40 6-65 26-110zm100 0h3l3 77 2 85c0 40-18 70-52 92-26 17-59 30-96 37-15 2-37 2-90 0h-49c-10 0-20 2-30 5l-22 9a275 275 0 01-187-6l-12-5c-50-20-85-20-148 5a193 193 0 00-88 58 139 139 0 00-23 63 190 190 0 01-14 48 55 55 0 01-28 28c-10 4-17 6-37 9-36 5-50 12-62 38a210 210 0 01-56 78l-63 53a273 273 0 00-74 127 1024 1024 0 00-13 42l-11 40c-34 114-70 210-103 242-12 10-20 22-42 51A430 430 0 01 0 1220v-6l38-47a290 290 0 01 36-45c32-32 69-127 102-240l12-40 12-43c20-58 43-100 76-128 10-10 53-44 63-53 25-23 40-44 55-77a59 59 0 01 28-30c10-6 19-7 38-10 18-3 26-4 34-8 12-6 20-14 26-27 6-13 10-23 14-47a140 140 0 01 24-64c17-23 45-42 90-60 64-25 100-24 150-5l13 5c34 14 55 20 87 20 44 0 71-5 97-14l22-9a90 90 0 01 31-5h56c46 2 68 2 82 0 37-7 70-20 95-36 32-22 50-51 50-89 0-27 0-47-3-90l-2-72zM370 0h8a100 100 0 01-12 38c-9 17-10 22-20 51a160 160 0 01-8 20c-9 18-23 35-52 56A277 277 0 00 208 290c-10 25-35 102-38 110-10 30-26 51-62 95l-10 12c-24 30-38 48-47 68-10 20-28 40-50 56v-10c20-15 35-32 43-50 10-20 23-40 47-69l10-12c36-43 51-65 61-92l39-110a281 281 0 01 81-129 140 140 0 00 50-53l7-20c10-29 12-34 21-52A110 110 0 00 371 0zm36 0h4c-6 33-11 50-18 60a234 234 0 00-16 33L363 130a70 70 0 01-10 21 995 995 0 00-50 53 207 207 0 00-28 38 340 340 0 00-15 52l-17 83a475 475 0 01-40 126c-30 50-42 63-146 163A276 276 0 01 0 710v-5a274 274 0 00 54-40A696 696 0 00 200 500c13-20 25-60 39-125l18-83c6-28 10-45 14-53a208 208 0 01 40-51 940 940 0 01 43-44 510 510 0 01 20-54A238 238 0 01 390 58c6-10 10-26 17-58zM330 0h5c-8 20-23 35-45 50a192 192 0 01-96 28c-35 0-47 28-47 85a788 788 0 00 1 48 280 280 0 01-8 65 264 264 0 01-8 28 10276 10276 0 01-28 62A16895 16895 0 01 25 540 216 216 0 01 0 582v-7a217 217 0 00 22-38 16890 16890 0 00 100-220c2-5 3-10 10-24a274 274 0 00 12-83v-48c0-26 2-46 8-60a42 42 0 01 42-29c30 0 66-10 94-28A110 110 0 00 331 0zm1120 0h4c8 40 9 50 10 72a488 488 0 01 0 110c-3 35-11 64-25 84-45 65-158 116-263 116-20 0-42 0-65 3a1637 1637 0 00-96 13c-85 12-110 15-144 15-27 0-48-4-86-15l-10-3-15-4c-32-8-56-8-86 3a65 65 0 00-36 32c-6 12-10 24-16 50-6 27-10 38-16 50a64 64 0 01-39 34 415 415 0 00-37 13c-26 11-40 22-55 42l-21 30c-8 13-19 24-34 37l-50 42a290 290 0 00-67 76c-16 29-30 73-44 132-4 14-7 30-10 48l-5 23-5 21a597 597 0 01-122 267 270 270 0 01-55 41L5 1360l-5 2v-4l3-2L60 1330a163 163 0 00 11-6c12-7 23-16 43-35a549 549 0 00 121-265l5-21a1940 1940 0 01 15-71c14-60 28-104 45-133 16-28 37-51 67-77l50-42c15-13 26-24 33-35l22-32c15-20 30-31 56-42 10-5 23-10 38-14a60 60 0 00 37-31c6-12 10-23 16-52 5-24 9-36 15-49a68 68 0 01 39-34 140 140 0 01 88-3c4 0 10 2 15 4l14 4a260 260 0 00 81 14 840 840 0 00 143-15A1640 1640 0 01 1110 380a710 710 0 01 65-3c104 0 215-50 260-114 13-20 21-48 25-82 3-30 3-63 0-94a539 539 0 00-2-20c0-18-1-28-9-68zM75 0h4C70 30 68 40 57 64c-8 17-10 36-10 60 1 16 3 30 10 63l7 48c4 35 1 64-10 90A1833 1833 0 01 0 433v-8a1840 1840 0 00 50-101c10-26 14-54 10-89a580 580 0 00-7-47 430 430 0 01-10-65 130 130 0 01 10-60C65 39 68 29 76 0Zm1110 0a280 280 0 01-20 45c-10 18-16 33-20 47l-1 7-1 6a20 20 0 01-3 8c-3 4-8 5-20 5l-60-1c-40 0-73 3-116 10-67 10-70 10-94 10a168 168 0 01-32-4c-70-17-182-24-216-12-10 3-23 10-38 22a445 445 0 00-26 21l-42 40-35 31a454 454 0 01-18 15c-20 16-35 25-47 25-14 0-17 0-20-2-5-2-7-6-5-14a450 450 0 01 50-98A433 433 0 00 480 1h4a438 438 0 01-59 163 450 450 0 00-50 96c-1 6 0 9 2 10l14 1c15 0 30-8 50-24l17-15 35-32 43-39 26-21a140 140 0 01 39-23c34-12 148-5 218 12l31 4c23 0 27 0 93-10a696 696 0 01 177-10c11 1 15 0 17-2l2-7 1-6 2-7c3-14 10-30 20-48 7-14 13-28 18-43zM1150 0c-23 71-38 87-78 87-18 0-40 1-113 6h-7c-61 4-92 6-113 6-22 0-53-4-115-13h-6A712 712 0 00 605 70c-17 0-29 4-43 13l-10 6c-9 6-16 9-26 9S510 93 510 82c0-4 0-9 2-16l4-21 6-45h8c0 15-3 30-6 47l-4 20a83 83 0 00-2 15c0 7 2 10 8 10a40 40 0 00 23-8l9-6a80 80 0 01 47-15c19 0 41 3 115 14l6 1a734 734 0 00 226 7h6c73-5 96-6 114-6 35 0 48-13 70-79zM560 0h4c-8 15-10 20-10 25-1 4 0 6 8 7 8 1 16 2 43 2a682 682 0 01 137 14C837 62 830 60 848 60a740 740 0 00 239-27c11-6 20-18 26-34h4a60 60 0 01-28 37 710 710 0 01-241 28c-18 0-11 1-107-14a1758 1758 0 00-136-13c-28 0-36 0-43-2-10-1-14-5-13-12 1-5 3-10 10-24zm302 0c23 7 41 10 56 10a300 300 0 00 88-10h12a270 270 0 01-170 0h14zM280 0a86 86 0 01-48 26c-16 3-30 4-51 4a385 385 0 00-7 0c-21 0-35-5-40-20a34 34 0 01-1-10h3c0 3 0 6 2 9 4 12 16 17 36 17h7c21 0 35 0 50-4A84 84 0 00 274 0h6zM0 822c29 0 46 14 46 44A420 420 0 01 0 1031v-10c23-50 42-112 42-155 0-28-15-40-42-40zM0 850c5 0 9 3 11 5 6 6 7 15 5 30v6a114 114 0 00-2 15c0 13-6 38-14 63v-14A216 216 0 00 11 890v-5c3-14 2-22-2-27-2-2-5-3-9-4Zm0 776v-6a86 86 0 00 12-19c5-10 10-25 18-47 30-93 30-105 0-120-8-5-18-6-30-4v-4a52 52 0 01 33 4c32 17 32 30 0 125a390 390 0 01-18 48 82 82 0 01-15 23zm133 162c7 0 12 0 33-5l10-2c32-6 50-5 57 10 5 10-2 22-19 38a300 300 0 01-20 16l-23 17-14 12a75 75 0 00-10 21l-29 88c-10 31-22 43-34 34-9-5-15-17-27-43-7-19-10-23-13-30-18-32-15-94 0-130a38 38 0 01 27-23c10-3 20-3 47-3zm0 8h-15c-48 0-59 2-67 21-14 34-17 93 0 123l14 30c10 25 17 36 23 40 6 5 14-3 23-30a2701 2701 0 00 28-87 83 83 0 01 12-24 70 70 0 01 15-14l23-17 20-15c14-13 20-23 17-30-5-9-20-10-50-4l-8 2a170 170 0 01-35 5zM1500 2374a232 232 0 01-15-76l-1-44c-3-41-3-54 0-68 6-19 17-28 40-28h102c16 0 20 7 23 28l1 5c3 21 11 30 35 30 15 0 22 2 26 6 3 3 3 5 1 15-3 21 2 35 30 55 25 17 46 21 65 13 15-6 27-16 47-40l5-4 4-5a300 300 0 01 10-11 142 142 0 01 39-27l22-10c24-11 36-18 46-30 10-12 19-20 27-25 12-7 21-8 54-8 24 0 42-17 71-60l11-15 11-15c32-40 77-41 122 4 22 21 40 76 54 152a1160 1160 0 01 18 158h-4c-1-41-8-103-18-157-13-75-32-130-53-150-43-44-86-43-116-5l-10 15-12 16c-30 43-48 61-74 61-32 0-40 1-52 8-8 4-16 11-26 23-10 13-23 20-47 31a409 409 0 00-23 10 138 138 0 00-37 26 295 295 0 00-14 16l-5 5a120 120 0 01-48 40c-21 10-43 5-70-13-29-20-34-36-30-58l-1-13c-3-2-10-4-23-4-26 0-35-10-39-33v-5c-3-20-7-25-20-25h-103c-20 0-30 8-34 25-4 14-4 26-1 66a700 700 0 01 1 45c0 20 2 27 15 76zm54 0a217 217 0 01-4-69v-10c2-15 3-27 3-44 0-20 5-30 16-33 10-3 22 2 37 11 26 18 55 52 65 77 20 45 56 62 133 62 34 0 57-10 82-32 5-5 60-59 83-79a120 120 0 01 81-33c22-1 32-3 46-9 18-8 37-22 58-45 30-30 53-35 70-17 13 15 21 42 27 80l6 70c0 14 0 20-4 70h-4a418 418 0 00-2-139 170 170 0 00-26-78c-15-16-36-12-64 17a188 188 0 01-60 46c-14 6-24 8-46 10-35 2-52 8-80 31-23 20-77 74-83 80a120 120 0 01-84 32c-78 0-117-18-136-65-10-24-39-57-65-74-13-10-25-13-33-12-8 3-13 12-13 30 0 17 0 30-2 45l-1 10-1 10c0 15 0 31 5 58zm450 0 44-57c21-28 51-49 76-55 28-7 46 6 46 36l-3 76h-4l3-76c0-28-15-38-40-32-25 6-54 27-75 53l-42 55zm-39-1341c14 10 28 20 46 30l40 24c45 28 60 53 50 100a88 88 0 01-38 58c-15 10-32 17-63 26a457 457 0 00-75 25 238 238 0 00-30 16c-45 28-76 30-111 13-14-7-68-43-68-43a403 403 0 00-20-13c-64-35-136-95-137-126 0-13 7-26 24-40l15-12 16-12c17-13 28-23 36-33a557 557 0 01 136-128c48-22 79-23 109 0 13 10 22 27 34 53 0 3 9 22 11 27a79 79 0 00 17 28l8 7zm-13-1a85 85 0 01-20-30l-10-27c-12-26-20-41-32-50-27-21-55-20-100 0-30 14-90 72-133 126-10 10-20 20-39 35l-15 11a316 316 0 00-14 12c-16 13-23 24-22 34 0 26 71 86 132 120a1266 1266 0 00 88 56c33 15 61 13 103-14a246 246 0 01 32-17c20-9 28-11 76-25a200 200 0 00 60-25 80 80 0 00 35-52c10-44-4-66-46-92l-40-24a414 414 0 01-55-38zM347 956c17-12 31-20 48-28l11-5 17-7a650 650 0 00 70-36 1269 1269 0 01 110-57l84-38c76-34 112-27 196 32a170 170 0 01 65 90c12 35 15 65 15 110 0 33-2 50-14 75a231 231 0 01-101 93 564 564 0 00-210 189c-34 50-188 175-257 214a605 605 0 01-258 87c-40 0-58-19-59-53 0-25 8-54 25-96 12-29 8-50-8-88-13-28-16-36-16-50 0-13 8-27 22-43 10-12 14-15 47-46 20-18 32-30 43-42 37-45 50-77 70-177 13-60 27-80 60-100 3-2 16-10 19-10a303 303 0 00 21-14zm2 3a307 307 0 01-21 14l-19 10c-32 20-46 39-58 97-20 101-33 134-71 180-10 12-23 24-43 42-33 30-37 34-47 45-14 16-20 30-20 42 0 12 2 20 14 48 17 38 20 60 9 90a266 266 0 00-25 95c0 32 17 50 55 50 70 0 172-40 256-87a1260 1260 0 00 256-213 562 562 0 01 210-190c53-30 84-60 100-92 12-23 14-40 14-73 0-44-3-74-14-109a170 170 0 00-64-87c-84-59-117-65-192-32l-84 38-19 9a1265 1265 0 00-90 48 654 654 0 01-71 36l-17 7-11 5a295 295 0 00-48 27zm-30 48a210 210 0 01 94-44c24-7 36-12 49-23 15-13 30-18 62-24l20-4c22-5 38-12 52-23 41-34 100-56 144-56 20 0 66 30 102 68 42 45 63 92 50 128a270 270 0 01-91 110 626 626 0 01-100 65c-15 8-26 20-39 40a457 457 0 01-183 220 2186 2186 0 01-36 26l-34 23c-26 18-40 30-52 40-46 41-147 60-172 35-8-8-10-16-8-42 1-37-2-57-20-80a135 135 0 00-28-28c-15-12-24-25-26-38-3-26 16-52 56-86l29-23a190 190 0 00 20-18c16-19 23-38 31-80a1984 1984 0 00 3-17 960 960 0 01 29-124c5-10 5-10 48-45zm3 3c-43 35-43 35-48 44l-6 20a560 560 0 01-9 42l-10 42a1344 1344 0 00-5 27l-1 9c-8 42-15 62-32 81a193 193 0 01-20 20c-3 0-23 17-29 22-40 34-58 58-55 83 2 12 10 23 25 34a150 150 0 01 28 29c19 24 22 45 20 83 0 25 0 32 7 39 24 24 123 5 168-36 10-10 26-21 52-39l34-23 36-26c58-41 97-75 119-110 20-29 60-105 63-110 13-20 25-32 40-40 27-14 66-38 100-65 45-36 77-73 90-108 11-35-9-80-50-125-35-37-80-66-100-66-41 0-100 22-140 55a127 127 0 01-54 24l-20 4c-32 6-47 10-60 23a112 112 0 01-51 23c-45 13-62 20-92 44zm517-14c0 30-3 44-10 57l-35 45a140 140 0 01-68 54l-12 6-8 4-22 10c-24 10-35 22-35 42 0 43-75 143-137 177a518 518 0 01-130 47c-52 12-88 10-97-9-5-12-17-17-47-23h-3a130 130 0 01-35-10c-12-7-18-15-18-28 0-10 4-23 13-38l13-21 14-23c27-42 40-73 40-108 0-73 43-132 108-170 20-11 36-12 60-8 20 4 24 4 30-6 17-30 27-37 62-37 16 0 28-4 42-13l43-30c36-24 45-28 100-47 27-10 60 5 88 36 26 28 44 65 44 93zm-8 0c0-25-17-60-42-88-26-29-56-42-80-34-54 20-62 23-98 47-9 5-37 26-43 30a80 80 0 01-46 14c-32 0-40 5-56 33-4 8-10 12-17 13a60 60 0 01-20-3c-22-4-36-3-55 8-62 36-105 93-105 162 0 37-13 69-40 112l-15 23-12 20a75 75 0 00-12 35c0 17 11 23 47 30h2c33 7 47 13 53 28 13 28 143 0 216-41 60-34 133-130 133-171 0-23 14-38 40-50l22-10c3 0 5-2 7-3l13-6c30-13 42-22 65-52 4-6 30-37 34-44 7-12 9-24 9-53zm-147-88a963 963 0 01 20-12c11-3 20 0 45 12 58 32 76 90 36 153-16 25-37 36-74 44l-13 3a160 160 0 00-45 14c-15 8-24 20-30 38-31 98-78 171-144 199a314 314 0 01-110 35c-20 0-40-3-61-12a176 176 0 01-22-10c-16-10-20-19-18-37 0-8 15-61 19-81l7-39a1836 1836 0 00 5-35c6-37 10-56 18-74 10-21 24-35 46-44a210 210 0 01 72-14c18 0 26-2 35-8l7-5a121 121 0 00 14-13l10-13c13-16 25-22 49-22a40 40 0 00 32-13l15-17a122 122 0 01 27-20l20-10a257 257 0 00 40-20zM626 940a118 118 0 00-26 20 462 462 0 00-15 16c-10 10-18 15-35 15-23 0-33 5-46 20 0 2-8 10-10 13a125 125 0 01-14 14l-8 6c-10 6-18 7-37 8-30 2-45 4-70 14a75 75 0 00-45 42c-7 17-11 36-17 73l-3 17-2 18-7 38-20 82c-2 16 2 24 16 33a180 180 0 00 82 20c26 0 44-7 109-34 64-27 110-99 141-197a65 65 0 01 32-40c11-6 22-9 47-14l12-3c36-8 56-18 72-42 39-60 22-117-35-147-23-13-32-15-40-12a40 40 0 00-10 4l-11 7a260 260 0 01-40 20l-20 10zM460 1070c63-12 104-5 128 24 20 23 4 84-23 140a254 254 0 01-92 100c-56 40-140 48-161 15-8-12-8-32-4-62 3-23 7-43 18-91v-2l13-56c6-29 15-45 29-54 11-8 22-10 49-10l43-5zm0 3-43 4c-26 1-37 3-47 10-13 8-21 24-27 52l-12 56v2a952 952 0 00-20 90c-3 30-3 50 4 60 20 30 101 22 156-16 49-36 71-61 90-99 27-54 42-114 24-136-23-27-62-34-125-23zm63 20c28 0 42 12 45 34 1 16-2 32-11 63-10 34-73 100-108 124-28 19-80 22-105 4-16-11-14-48 0-105l10-34a1632 1632 0 01 12-40v-5c7-20 21-30 43-37 18-5 38-6 70-5h45zm0 4h-30l-14-1a240 240 0 00-69 5c-20 6-34 16-40 34a5055 5055 0 01-6 20 1124 1124 0 00-16 60c-14 54-15 90-2 100 25 17 74 13 100-4 35-23 97-90 107-122 10-30 12-46 10-61-1-20-14-31-40-31zm-70 27a124 124 0 01 34 6c21 7 34 20 34 40 0 38-37 68-88 85-40 13-54-7-46-66a70 70 0 01 32-53 80 80 0 01 34-12zm-3 5a77 77 0 00-29 10 67 67 0 00-30 51c-8 56 5 73 40 61 50-16 86-45 86-81 0-18-12-30-32-36a110 110 0 00-32-6H450zm320-93c-10 39-59 39-105 13-40-22-55-71-20-90a263 263 0 00 18-11l8-5a198 198 0 01 15-10 60 60 0 01 56-2c36 14 43 53 28 105zm-82-99a195 195 0 00-15 10l-8 4-9 6-10 5c-30 17-17 63 20 84 45 24 90 24 100-11 15-50 8-87-26-100-20-8-34-7-52 2zm70 48c0 23-10 36-26 40a70 70 0 01-44-8l-7-3a130 130 0 01-6-4c-17-10-17-20 0-43 28-36 84-28 84 18zm-3 0c0-20-12-34-30-36-16-2-35 6-46 20-16 22-16 30-2 38l6 3 7 4c13 7 30 10 41 7 15-4 24-15 24-36zM1530 2098c0-50 10-66 73-118a225 225 0 01 30-20 314 314 0 01 50-24l15-6c38-15 55-26 66-48 5-8 9-17 13-27a588 588 0 00 6-15l1-3 3-5a120 120 0 01 50-66 140 140 0 00 20-16 183 183 0 00 15-17l12-15c14-17 26-24 46-24a100 100 0 00 38-8c21-8 26-10 35-9 10 0 20 5 29 15l25 26c20 20 38 28 70 28a781 781 0 01 48 2c63 3 87 2 100-10 28-22 47-10 47 32s-34 79-76 79c-19 0-33 5-37 14-4 10 3 24 24 42 54 45 45 82-30 82a87 87 0 00-58 20 240 240 0 00-39 48l-6 8c-12 19-20 29-29 38-24 24-37 30-51 27l-4-1a43 43 0 00-10-1c-7 0-10 2-33 24-20 19-32 27-47 27-5 0-14 5-26 14l-17 14-20 17a716 716 0 01-18 15c-37 30-62 40-80 26-10-8-16-18-18-29a80 80 0 01 1-28c4-24 3-34-7-46-10-12-12-13-15-10l-6 8c-10 10-20 14-36 11-18-3-22-16-19-40l1-6c3-15 3-20 1-23-2-3-7-4-20 2h-3a260 260 0 01-77 27c-24 3-37-6-37-31zm8 0c0 20 8 26 28 23a300 300 0 00 75-26h3c16-7 26-7 30 1 3 6 3 11 0 28v6c-4 20-1 29 11 31 14 3 22 0 29-8l6-8c8-8 15-5 27 10 12 15 13 27 9 52-4 26-2 37 14 50 14 11 36 2 70-26l18-15 20-17 18-15c13-10 22-15 30-15 12 0 23-7 41-25l10-10 10-7c6-6 12-10 18-10l12 2 4 1c12 2 22-2 45-25 8-9 16-18 28-36l6-9a190 190 0 01 40-48 95 95 0 01 63-23c67 0 73-28 25-68-23-20-32-37-26-51 6-12 23-20 44-20a70 70 0 00 68-70c0-36-12-43-33-25-16 13-40 14-106 10h-4l-43-1c-35 0-55-9-76-30l-26-27a37 37 0 00-23-12c-8 0-12 0-33 8-16 7-27 10-40 10-17 0-27 5-40 20l-12 15a191 191 0 01-16 18 147 147 0 01-20 17 112 112 0 00-48 61l-2 6-2 3a2103 2103 0 01-6 15 307 307 0 01-13 28c-12 23-30 36-70 51l-15 7-16 6a313 313 0 00-33 16 217 217 0 00-30 20c-60 50-70 64-70 112zm527-316c12 6 26 8 42 7 10 0 20-2 35-6 21-5 25-5 33-6 10 0 19 0 25 6 6 5 7 10 5 16-3 6-4 7-20 20-14 12-20 20-20 28 0 30 5 40 30 62 16 13 24 27 22 38-3 13-20 20-50 20-29 0-50 18-80 58l-19 27a154 154 0 01-19 22l-12 9c-11 5-20 6-39 6-30 2-43 6-60 29-5 8-11 15-18 22a170 170 0 01-34 26l-58 35c-15 10-26 8-33-3a110 110 0 01-11-40c-4-20-5-29-8-36-4-10-10-13-16-12-25 5-36 6-44 1-10-5-12-18-10-42 0-8-4-12-15-12-9 0-20 0-40 4h-2c-31 6-42 7-50 4-12-6-7-21 16-49 22-26 42-43 63-53 15-8 23-10 48-17 29-6 41-13 55-36l48-83c15-22 27-36 44-45 10-5 19-10 36-24l6-4c30-22 49-31 70-31 17 0 26 5 36 19a734 734 0 01 18 21 96 96 0 00 26 20zm-2 4a101 101 0 01-37-31l-8-10c-10-14-18-18-33-18-20 0-37 8-68 30l-5 5a282 282 0 01-37 24c-16 8-28 21-42 43l-48 83c-15 24-28 31-58 38a167 167 0 00-109 69c-21 25-25 38-18 42 7 3 18 2 48-3h3c20-4 31-6 40-5 13 0 20 6 19 16-2 23 0 34 8 39 7 4 18 3 40-1 10-2 17 3 21 13 4 8 5 16 8 35v2a110 110 0 00 12 39c5 10 13 10 27 2l58-35a166 166 0 00 34-26 190 190 0 00 18-22c17-23 30-28 62-30a90 90 0 00 38-6c3-2 7-4 10-8a150 150 0 00 19-20l20-28c30-40 52-60 82-60 28 0 43-6 46-17 2-9-5-22-20-34-26-23-32-35-32-65 0-10 6-18 21-30a82 82 0 00 20-20c1-4 0-7-5-11-9-8-18-7-54 1l-36 6a80 80 0 01-44-7zm-110-16c22-10 35-8 50 6l12 11a75 75 0 00 57 23c45 0 55 5 64 32l6 22 10 30c10 20 11 33 8 40-3 7-9 10-22 12l-15 3c-7 2-13 6-18 10l-13 15-14 16c-28 34-50 50-77 50-15 0-28 4-42 15l-60 52a290 290 0 01-36 23c-18 10-29 13-35 9-6-3-7-8-8-22a208 208 0 00 0-7c-3-19-10-27-29-27-28 0-35-5-38-22-4-18-9-26-26-38-16-10-17-21-6-32a170 170 0 01 44-28 170 170 0 00 44-26 155 155 0 00 21-26l12-20 8-17 10-20c23-40 41-58 92-84zm-90 86-10 20-8 17a210 210 0 01-11 20 159 159 0 01-22 27c-8 8-18 14-45 27a170 170 0 00-44 26c-9 10-8 18 6 27a54 54 0 01 27 40c3 15 9 19 35 19 22 0 30 10 32 30v8c2 12 3 16 7 18 4 3 14 0 31-8a285 285 0 00 35-23l60-52a70 70 0 01 45-17c26 0 46-14 74-47l14-17a238 238 0 01 13-14 46 46 0 01 20-12l16-3c11-2 16-4 18-10 3-5 1-17-7-36a334 334 0 01-10-30l-7-23c-8-25-17-30-60-30a80 80 0 01-60-23l-11-11c-15-13-26-15-47-5-50 25-68 42-90 82zm222 47c-12 26-66 60-106 60-20 0-30-10-28-30 1-14 8-32 16-42l6-10a178 178 0 01 7-10c15-20 31-30 54-30 36 0 62 38 50 62zm-4-1c10-22-14-57-47-57-21 0-37 10-50 28l-8 10-6 10c-7 10-14 27-15 40-2 17 6 27 24 27 38 0 91-34 102-58zm-275 82c8 0 17 3 23 7 8 6 9 14-1 24-20 20-50 17-50-5 0-19 12-27 28-26zm0 4c-15-1-25 6-25 22 0 18 26 20 44 2 8-8 8-13 2-18-5-3-14-6-22-6zm116-894 77 37a95 95 0 01 28 23 178 178 0 01 15 20c10 15 0 30-25 46a460 460 0 01-86 40l-84 28c-26 9-59 0-100-24l-50-33-43-32a321 321 0 00-34-22c-20-10-18-26 0-48 14-15 17-19 72-65a910 910 0 00 35-30 377 377 0 00 20-19c20-21 38-25 58-15a130 130 0 01 30 22l31 30c20 20 38 33 56 42zm-1 4a240 240 0 01-57-43l-32-30c-11-10-20-17-28-22-20-10-36-5-55 15a380 380 0 01-19 19l-35 30a480 480 0 00-71 64c-17 20-18 34-2 42 9 5 20 12 34 23l43 31a612 612 0 00 50 34c40 23 72 32 97 23l83-29c39-14 67-26 86-38 23-15 32-28 24-40a174 174 0 00-15-20 92 92 0 00-27-22l-76-37zm-154 31c12-1 23 0 33 3l34 15a480 480 0 00 53 22c33 12 44 25 35 39-9 11-32 23-70 36-34 11-62 10-86-4-18-10-33-25-48-48-11-18-10-33 0-44 10-10 28-16 50-19zm0 4a80 80 0 00-45 18c-10 10-11 23 0 39a130 130 0 00 46 47 100 100 0 00 82 3c38-12 60-24 68-35 8-10-2-21-33-32l-52-22a206 206 0 00-34-15 73 73 0 00-32-3zM802 1980c0 20-6 30-17 36-10 4-18 5-43 5h-7c-37 0-67-30-67-62 0-30 42-41 78-21a90 90 0 00 34 10c17 4 22 10 22 32zm-4 0c0-20-3-25-20-28a94 94 0 01-34-10c-34-20-72-10-72 17 0 30 29 58 63 58h7c24 0 33 0 40-5 11-5 16-14 16-32zM930 1513l64-18 80-20a540 540 0 00 152-53c60-39 146-134 174-189 9-17 18-25 30-24 5 0 10 1 17 4a200 200 0 01 14 7l5 3a110 110 0 00 50 13c29 0 40 12 33 32a98 98 0 01-44 47c-33 20-46 69-46 133a40 40 0 01-16 33c-8 6-17 10-34 16l-4 2c-19 7-27 10-34 18-20 20-50 28-80 28-6 0-10 3-16 12l-6 9c-10 15-20 22-34 22-30 0-42 4-86 28a110 110 0 01-58 14h-3c-20 0-29 2-42 6a290 290 0 00-35 14l-40 20a772 772 0 01-75 30c-50 13-74 8-109-17-10-7-10-18-3-30 6-10 15-20 32-36l7-6 23-22c10-10 12-14 22-30 7-14 13-20 25-28 9-6 20-12 37-18zm1 4c-16 6-27 11-36 17a70 70 0 00-24 27c-10 16-13 21-22 30l-24 23-7 6a173 173 0 00-30 35c-7 10-7 19 1 25 34 24 58 29 105 15a430 430 0 00 75-30l40-19a294 294 0 01 36-14c14-4 23-5 42-6h4a100 100 0 00 56-14c44-24 56-28 88-28 13 0 20-6 30-20l7-10c6-9 11-13 19-13 30 0 58-8 77-27 8-8 16-12 36-19l4-1c34-13 47-23 47-46 0-66 14-116 48-136 20-12 37-30 42-46 6-16-3-26-29-26-18 0-32-4-52-14-30-14-27-13-34-13-10 0-19 6-27 22a658 658 0 01-175 190 544 544 0 01-152 54l-81 20c-30 7-50 13-64 18zm67 16c8 0 16 0 29-3 20-3 26-3 33-2 10 2 15 10 15 23 0 16-9 29-26 40-13 8-26 14-56 25H990l-10 4c-11 4-20 10-36 21l-3 3a134 134 0 01-91 31c-20 0-28-8-23-22 3-10 14-26 30-44l17-17L920 1550l6-5c13-10 23-12 56-11h15zm0 4h-15c-32 0-41 0-54 10l-5 5s-33 30-45 43a532 532 0 00-16 17 135 135 0 00-30 42c-4 12 1 17 19 17a130 130 0 00 88-30l4-3c16-12 25-17 37-22l10-3c30-12 43-17 56-26 16-10 24-22 24-36 0-12-4-17-12-19-6-1-12 0-32 2l-30 3zm445-180a76 76 0 00-4 51c5 28-6 66-22 66a67 67 0 00-6 0h-30c-26-5-40-20-40-54 0-55 8-78 31-104a87 87 0 00 10-15l10-20c19-32 31-45 50-40 4 0 8 2 14 6l5 3a80 80 0 00 12 6l20 1h2c12 0 19 0 23 3 6 3 5 10-4 20a854 854 0 01-16 14c-42 40-50 50-55 64zm-4 0c5-16 14-25 57-66l15-15c7-7 8-10 5-13-3-2-10-2-20-2h-4l-20-1a80 80 0 01-13-7l-5-3a48 48 0 00-14-6c-15-4-27 9-44 40l-10 20a90 90 0 01-10 15c-24 25-32 47-32 101 0 31 14 46 38 50h26a1469 1469 0 00 5 0h4c13 0 22-36 18-61a80 80 0 01 4-53zm-37 48 10 8c8 6 9 13 0 25-14 23-34 12-34-18 0-15 2-22 8-24 5 0 8 2 16 10zm-5 6-10-7-1 16c0 23 10 29 20 14 6-10 6-11 2-15 0 0-8-5-10-8zm882-515 23-10h1a194 194 0 00 35-13c17-9 25-8 28 3 1 8 0 16-5 50a237 237 0 01-84 144c-17 14-30 17-39 10-7-7-12-19-18-42l-7-28a452 452 0 00-10-36c-10-27-12-43-9-51 3-8 8-10 22-10l12-1 8-1 7-2a116 116 0 00 36-13zm2 4a151 151 0 01-38 13 430 430 0 01-15 3h-11c-13 2-17 3-20 8-2 8 0 22 10 49a455 455 0 01 10 36l7 28c6 22 10 34 17 40 7 5 18 3 33-10 47-40 74-89 83-142 5-33 6-41 5-48-2-8-8-8-22 0a197 197 0 01-36 13 140 140 0 00-23 10zm-18 26 15-6a950 950 0 01 32-14c10-3 18-3 23 2 4 3 6 9 6 16v6c0 22-18 66-45 90-17 15-29 18-40 10-7-7-13-19-26-51-7-20-8-32-2-40 4-8 11-10 23-11h5l9-2zm-8 9h-5c-10 1-15 3-18 8-3 5-3 16 4 33 12 30 17 42 24 48 6 5 14 3 29-10A140 140 0 00 2330 930v-5c0-6-1-10-3-12-3-2-7-2-16 0a150 150 0 00-17 8l-13 6a77 77 0 01-17 6l-10 2zm-901-352c-7 17-14 29-29 45l-10 12a265 265 0 00-10 13 184 184 0 00-19 30 140 140 0 01-50 54 330 330 0 01-63 30c-43 18-65 5-107-65a162 162 0 00-71-50L937 630c-20-9-28-15-26-23 3-10 21-16 61-24A551 551 0 01 1130 570c32 2 39 2 50-1a80 80 0 00 24-10l11-7c40-25 52-32 69-40 24-10 42-13 55-5 29 16 30 30 14 76zm-8-3c16-42 14-52-10-66-10-6-26-4-48 6-17 7-29 14-67 38l-11 7a90 90 0 01-26 11c-14 4-21 4-53 2A544 544 0 00 930 600c-8 3-12 6-12 8 0 2 6 7 20 14l58 23c37 17 62 33 74 53 41 67 60 78 98 62 30-12 45-19 61-30 22-13 38-30 48-51 6-12 12-22 20-31a273 273 0 01 10-13l10-12c14-16 21-27 27-43zm-26 0a210 210 0 01-132 100c-30 7-50-4-52-24-2-18 10-36 24-36 12 0 22-7 60-36l15-10c18-14 31-21 43-25 22-7 37-8 45-5 10 5 9 17-3 36zm-3-2c10-18 11-27 4-30-6-3-20-2-42 5-11 3-24 10-41 23l-15 11c-40 30-50 37-63 37-12 0-22 16-20 32 3 17 19 26 47 20 58-14 99-49 130-98zm508-444c55 20 82 20 125 0 12-6 22-12 44-27 22-16 32-22 44-28a60 60 0 01 44-5c16 5 25 49 27 113 2 56-2 114-10 135-7 20-23 32-45 40a165 165 0 01-51 7c-23 0-36 10-49 30l-6 12c-7 11-12 17-20 20-4 0-8 2-15 6l-10 5-10 5a155 155 0 01-68 19c-23 0-40 8-56 23l-18 20c-10 10-24 17-43 24l-25 9-8 3-10 3c-23 5-45-2-72-17l-23-14c-8-5-16-6-35-7l-7-1c-20-2-30-5-40-12-20-14-28-30-23-49 5-21 26-43 59-68a670 670 0 01 25-18l21-14c11-8 20-16 50-48l5-4c14-15 23-24 32-31 12-10 19-24 30-52l2-6c11-28 17-40 28-50l30-29c17-12 33-10 78 6zm-1 3c-45-15-60-17-74-6l-30 30c-10 8-17 20-27 47l-2 6c-12 30-20 43-31 54a561 561 0 00-36 35 384 384 0 01-98 80c-32 24-52 46-57 66-4 17 2 32 20 45 10 7 20 10 40 10l6 1c20 2 29 4 37 9l23 13c27 15 48 21 69 17l10-3a265 265 0 01 8-3l25-9a110 110 0 00 41-23l18-20a80 80 0 01 59-24c20 0 40-6 66-18l10-6a712 712 0 01 26-12c6-2 10-7 17-18l7-10c13-23 27-33 52-33a160 160 0 00 50-7c21-7 36-19 43-37 7-20 11-78 10-134-3-61-12-105-25-109-12-4-26-2-41 5a260 260 0 00-44 27 268 268 0 01-44 27c-44 20-72 20-128 0zm56 82c21 0 30-1 38-4 5-2 40-20 60-28 7-3 13-10 25-24l18-19c15-13 28-13 40 5 25 35 22 63 0 107a282 282 0 00-10 22c0 3-3 10-4 11 0 2 0 3-2 5a90 90 0 01-16 18c-10 10-20 13-46 18-7 0-9 0-12 2-24 4-38 10-48 24-14 18-31 30-60 42l-7 3-7 3a238 238 0 00-30 16c-10 6-20 10-37 13-34 9-49 15-70 37-20 23-40 30-65 27-21-3-42-12-93-38-25-12-26-30-6-53a420 420 0 01 77-65c32-25 51-42 66-60 10-10 16-22 20-32 20-72 49-87 90-61l28 19c13 8 25 12 51 12zm0 8c-27 0-40-4-56-13l-28-20c-36-22-58-10-78 57-4 12-10 24-21 36a443 443 0 01-67 60 418 418 0 00-76 64c-17 20-16 32 3 41 50 26 71 34 91 37 23 3 40-3 60-24 20-23 36-30 72-40a90 90 0 00 35-12 244 244 0 01 31-16l7-3 7-3a140 140 0 00 56-40c12-16 28-23 54-27l12-2c24-4 34-7 42-15l14-17 2-4 4-11 10-23c21-41 23-66 0-98-9-14-16-14-28-4l-16 18c-13 16-20 23-30 27l-60 25c-10 4-19 5-40 5zm-50 34c21 15 40 14 72 3 21-8 23-8 30-8 10 0 17 5 21 17 7 20-10 34-49 50-10 5-64 25-79 31a333 333 0 00-74 40c-52 40-73 47-94 39a98 98 0 01-14-8l-8-5a358 358 0 00-10-6c-12-8-10-17 4-29l54-40a160 160 0 00 57-72c12-33 20-48 27-53 6-4 13-2 24 8l16 15L1830 260zm-3 3-22-18-16-15c-10-9-15-10-20-7-7 4-14 18-26 50a170 170 0 01-58 75c-11 10-48 35-53 40-13 10-14 16-4 22l9 5 8 5 13 8c20 8 40 0 90-38 20-15 44-28 76-40a1800 1800 0 01 79-31c38-16 52-29 46-45-3-11-9-15-17-15-6 0-8 0-29 8-32 11-53 12-76-4"
         fill-opacity="1"
         stroke-width="4"
         id="path1" />
    </pattern>
  </defs>
  <rect
     style="opacity:1;fill:#0c0f12;fill-opacity:1;stroke:#000000;stroke-width:3.32887"
     id="rect6"
     width="234.79402"
     height="220.34682"
     x="-11.633927"
     y="-3.2861784" />
  <path
     d="M -0.5416496,-0.65565206 H 211.58781 V 211.9095 H -0.5416496"
     fill="url(#b)"
     fill-opacity="1"
     stroke="#000000"
     stroke-width="0.795494"
     opacity="0.5"
     id="path2"
     style="opacity:0.084" />
</svg>
