<svg xmlns="http://www.w3.org/2000/svg" version="1.1" viewBox="0 0 10000 10000"><path d="M600 2410c70-30 160 30 150 100 10 70-70 130-140 100-80-30-80-160-10-200Zm8710 10c50-30 120-10 140 40s10 110-30 140c-40 20-90 20-120-10-60-40-50-140 10-170ZM610 2890c20-30 50-70 90-80 60-10 110 40 130 90 40 100 100 180 130 280 30 80 20 170 0 260-40 210-110 410-160 620l200-400c30-40 50-80 90-110 40-20 90-20 120 0s40 50 40 80c10 100 40 200 30 300-10 140-10 290-60 420-50 100-120 200-210 260 150 320 380 590 660 810-50-60-100-120-120-190-60-170-80-350-110-530-10-40-10-90 20-130s80-40 120-40c60 20 100 70 150 100 70 60 120 130 170 200v-90c-60-60-80-140-110-220-60-170-70-360-20-540l100-220c20-40 60-60 100-60 60 0 100 40 130 80 50 70 90 150 120 230 30 100 30 200 20 310-10 130 0 260-50 390-20 50-50 100-90 120l-20 230a920 920 0 01 540-400c40-20 90-10 130 20 50 30 60 90 50 140l-60 190c-50 120-140 220-230 330-80 90-170 180-270 260l-170 70c260 120 530 200 810 220-110-110-160-270-250-410-20-30-30-70-20-110 10-30 30-80 70-90h130a1010 1010 0 01 460 230c60 60 100 140 140 210l80 160c70-10 150-30 230-30 260-20 510 10 760 80 10-70 0-130-20-200-90 30-190 30-280 0-100-30-210-40-300-90-70-20-130-60-190-110-40-30-90-80-110-130-20-60 30-120 90-140 90-50 190-30 280-40 60 0 120 0 180 20l-150-150c-70 20-150 10-220-10l-240-60c-170-70-310-200-410-350-50-70-100-140-130-220-30-70 30-130 100-140 60 0 120 20 190 40 90 20 190 40 290 80 80 30 160 80 230 120 90 40 170 80 230 160 50 80 100 170 130 260l130 150c-10-110-30-230-10-340 0-80 90-130 160-110 60 20 110 70 160 110 80 90 160 190 180 310 20 110-10 230-20 340-20 90-70 170-90 250l20 170v150l330 180c100-70 210-130 320-180v-130c-10-60 10-130 20-190-20-90-70-160-90-250-20-160-50-330 30-480 50-100 130-180 220-240 30-30 80-50 130-40s100 50 100 100c20 120 0 230-10 350l110-130c30-20 30-70 50-110l100-180c50-60 120-100 190-140l190-100 310-100 230-50c50 0 120 30 130 90 0 40-20 70-30 100-80 150-170 290-300 390-110 80-230 140-370 170-100 30-210 60-310 30l-150 150c60-20 120-20 180-20 90 10 190-10 280 40 60 20 100 80 90 140-40 90-120 140-190 190-90 60-180 90-280 110-90 10-180 50-270 50l-140-20c-20 70-30 130-20 200 230-70 470-100 710-90l280 40 120-230c40-70 90-140 160-190 100-70 200-130 320-160 70-20 140-40 200-20 50 10 70 50 80 90s0 80-20 110c-90 140-140 300-250 410 230-10 470-70 690-160 30-20 80-30 110-60-60-20-120-40-160-80-160-110-290-270-410-420-70-100-120-220-150-340-10-50-10-100 20-140 40-30 100-50 150-40a1000 1000 0 01 550 410l-20-230c-40-20-60-70-80-110-40-90-50-180-50-270 0-110-20-230-10-340 10-100 50-200 110-290 30-40 60-90 110-110s120-10 150 40c70 140 130 290 130 450 10 160-40 310-100 460l-60 80v90c50-70 100-140 170-200 50-30 90-80 140-90s110-10 140 40c20 30 20 80 10 120-30 180-50 360-110 530-20 70-60 130-110 180 270-210 500-490 650-800a670 670 0 01-260-540c-10-80-20-160-10-240l20-180c10-40 20-80 60-100 60-40 140 0 170 60 80 150 170 290 230 450-50-210-120-410-160-610-20-90-30-190 0-280s100-180 130-270c20-50 80-100 140-80 40 10 70 50 90 80l110 230c50 160 70 330 30 490l-100 310-40 150c60-60 140-110 210-150 50-30 100-50 150-30 50 10 80 60 70 110l-50 140c-50 110-80 240-160 330-70 100-180 150-290 190-50 30-100 30-160 30-210 430-550 800-960 1050 120 50 260 50 400 30l250-60c60-10 130-30 180-70 30-20 20-60 30-90 20-120 40-250 110-350s150-180 250-240c40-20 80-60 130-60s100 50 100 100c-10 90-10 180-40 270-30 130-80 270-170 380-60 70-140 140-240 140-30 0-60 20-90 40 60 10 110 40 170 60l210 110c40 20 80 40 80 90 20 50 10 100-40 130-100 50-200 70-310 80a700 700 0 01-570-120l-170-130c-20-20-30-40-30-70-90 0-180-10-260-30-70-30-140-70-220-90l-80 30c130 60 220 170 290 280 80 120 150 240 200 380 20 60 0 130-60 150-50 30-110 20-170 0-120-20-230-90-320-170-80-80-130-180-180-280-40-80-60-160-60-250-150 40-300 70-450 80-120 10-250 30-370 10 40 70 90 140 150 190 70 50 130 100 210 130l70 40c80-20 160-10 240 20 150 50 280 170 360 310 70 110 120 240 170 360 10 30 20 70 0 110-20 50-90 70-140 50-110-20-220-50-320-110a970 970 0 01-380-520c-40-20-60-70-100-80 40 190 40 400-30 590-20 60-30 130-90 160-40 20-90 20-120-10l-70-100c-70-150-180-280-200-440-30-120 20-240 70-350l80-140c-30-30-50-60-60-100l-80-130-140-20c-140-20-290-20-430-20 80 50 150 120 210 190 80 80 130 180 220 260 20 30 50 50 50 90 10 60-50 120-110 120h-220c-70 0-140-20-200-50-130-70-280-140-370-270l-130-200c-90 30-170 80-250 120 360 300 620 730 700 1190 10 60-40 120-100 110-50 0-90-40-100-90-80-430-330-820-670-1090-350 260-590 650-680 1070-10 40-20 70-50 90-40 40-110 20-140-30-30-40-10-90 0-130 100-440 350-830 690-1120-80-40-160-90-250-120-60 110-130 220-230 300a1200 1200 0 01-450 220h-240c-60 0-120-60-110-120 0-40 30-60 50-90 90-80 140-180 220-260 60-70 130-140 210-190-140 0-280 0-420 20l-150 20c-50 70-80 160-140 230l80 130c20 60 50 120 60 190 30 110 10 230-40 330l-160 300c-30 40-50 80-90 100-60 20-120-20-140-70-100-210-120-460-70-690-40 10-60 60-100 80-50 150-130 290-250 400-70 70-160 150-260 180l-210 60c-70 10-150-50-130-120 20-90 60-170 90-250 80-160 180-320 340-420 100-70 230-100 350-70l70-40c80-30 140-80 210-130 60-50 110-120 150-190-130 20-250 0-370-10-150-10-300-40-450-80 0 140-60 270-130 390-70 110-180 200-290 270-90 40-190 70-290 50-70-10-100-90-80-150 50-140 120-280 200-400 80-110 170-210 290-270l-80-30c-80 20-150 60-220 90-80 20-170 30-260 30 0 30-10 50-30 70l-200 160c-70 40-150 80-230 90-100 20-210 20-310 0-100-10-200-30-300-70-30-20-60-50-60-90 0-50 20-100 70-120l200-110 200-80c-50-50-130-30-190-60-110-60-180-160-230-270-60-130-100-260-110-400l-10-100c0-50 40-100 90-100 30-10 50 0 70 20 70 40 150 80 210 140 70 80 140 160 170 270 30 90 50 190 60 290 50 50 130 70 200 90 90 30 190 60 290 70 120 10 250 10 360-50-410-240-750-610-960-1040-50 0-100 0-140-20-120-50-240-100-320-210-80-100-100-220-150-330-10-50-50-80-50-130-10-50 20-100 70-110 50-20 100 0 140 20 80 50 160 90 220 160l-40-130c-40-140-100-290-120-440-10-140 10-280 60-410l110-210m30 560c0 90 30 170 50 260 30-130 80-260 90-400 0-70-30-130-70-190-50 100-70 220-70 330m8660-330c-30 50-60 90-70 150l30 210 60 230 50-220c10-130-10-260-70-370m-8300 980c-30 100-60 200-60 310 50-60 100-130 120-210 20-90 10-190 30-280l-90 180m7920-180c20 90 10 190 30 280 20 80 70 150 120 210 0-110-30-210-60-310l-90-180m-6930 50c-30 70-50 140-50 210-10 130 30 260 80 380l10-170c10-90 20-170 10-260 0-50-20-110-50-160m5980 370 20 220 60-160c40-140 30-290-30-430-70 110-60 250-50 370M460 4210c20 60 40 110 80 150 40 50 100 80 150 110l-120-160-110-100m8990 100c-50 40-90 100-130 160 50-30 110-60 150-110 40-40 60-90 80-150l-100 100m-6190 240a790 790 0 00 650 350l-80-110-160-80-160-90-250-70m3110 140-180 100c-40 30-60 70-80 110 70 0 150-20 230-40 170-50 310-170 410-310-130 30-270 70-380 140m-4710 150c20 100 30 210 70 300 10 50 30 80 60 120 0-80 20-160-10-230-20-70-70-130-120-190m6570 190c-30 70-10 150-10 230l60-100 70-320c-50 60-100 120-120 190m-5890 20c-100 120-190 260-250 410 100-60 180-150 260-230 80-110 180-220 230-350-90 50-180 100-240 170m5090-170 110 200c110 140 230 280 380 380-60-150-150-290-250-410-60-70-150-120-240-170m-2970 50c10 160 40 320 90 470 10-110 40-220 10-320-20-60-60-100-100-150m990 150c-30 100 0 210 10 320 50-150 80-310 90-470-40 50-80 90-100 150M560 5210c40 120 80 250 170 350l-40-180c-30-70-80-120-130-170m8890 0c-50 60-110 110-130 180l-40 170c90-100 130-230 170-350m-5570 210c50 30 100 60 160 70l240 60-90-80-130-40c-60-20-120 0-180-10m1960 50c-40 10-80 50-110 80l240-60c60-10 110-40 160-70h-100c-60 0-130 30-190 50m-2970 30c50 100 100 220 200 290 50 40 120 60 180 60-40-80-70-160-140-220-70-50-150-100-240-130m4030 130c-70 60-100 140-140 220 60 0 130-20 180-60 100-70 150-190 200-290-90 30-170 80-240 130m-5880 390c-40 0-80 0-110 20l-170 70c90 10 190 20 280 10 80-10 160-50 230-100h-230m7740 0 160 90c120 30 240 10 350 0l-170-70c-30-20-70-20-110-20h-230m-6680 130c-100 100-170 230-230 350 110-40 200-120 260-220 40-70 70-130 90-200l-120 70m5730-70c30 90 80 180 140 260 50 70 130 130 210 160-40-80-80-160-140-230-50-80-120-160-210-190m-3630 110c-130 70-240 190-320 310l110-20 220-120c70-50 130-120 170-200-60-20-130 0-180 30m1470-30c40 80 100 150 170 200l220 120 110 20c-80-110-170-220-290-290-60-50-140-70-210-50m-2480 430c-20 30-20 70-30 110-20 110-10 230 10 340 50-90 110-170 120-270 20-80-20-150-40-220l-60 40m3610-40c-20 70-60 130-40 210 10 100 70 190 120 280 20-140 30-280-10-410 0-40-40-60-70-80m-4260 170c-120 90-200 230-260 360 90-30 170-100 240-160 70-80 120-170 160-270-50 10-100 40-140 70m4830-70 100 200c50 70 120 120 190 170 30 30 70 50 110 60l-130-230c-70-90-160-180-270-200Z" fill="#000" /><path d="M240 3520c90-40 180 60 140 140-30 70-130 80-170 20-50-50-30-140 30-160Zm9450-10c50-10 110 10 130 60 30 70-30 150-100 150-50 0-90-40-100-80-10-50 30-110 70-130Zm-8240 720c60-20 130 10 140 70 20 50-20 110-70 120a100 100 0 01-70-190Zm7020 0c60-20 130 10 140 70 20 60-20 120-80 120a100 100 0 01-60-190Zm-5950 10c70-30 150 40 140 110s-100 110-160 70-50-150 20-180Zm4890 0c70-20 150 40 140 110s-100 110-160 70-50-150 20-180Zm-4180 800c70-20 150 50 130 120-10 70-100 100-160 60-60-50-40-150 30-180Zm3470 10c70-40 150 30 140 100 0 70-100 120-160 70-60-40-40-150 20-170Zm-5540 390c70-20 150 50 130 120-10 70-110 110-170 50-50-40-30-150 40-170Zm7620 10c70-30 150 40 140 110s-110 110-170 60-40-150 30-170ZM270 5690c80-40 170 60 140 140-30 60-130 80-170 20-60-50-30-140 30-160Zm9400-10c60-10 120 20 130 80 20 70-60 150-130 120-60-10-90-80-70-130 20-30 40-60 70-70Zm-7040 450c60-20 130 10 150 70 10 60-40 130-100 120a100 100 0 01-50-190Zm4660 0c70-30 150 30 140 100 0 80-100 120-160 80s-50-150 20-180Zm-6000 290c50-20 120 10 140 60s-10 120-70 130c-50 20-110-20-120-70s10-100 50-120Zm7340 0c60-20 130 10 140 70 20 60-30 120-90 120a100 100 0 01-50-190Zm-4920 430c60-20 130 20 140 80s-40 120-100 110a100 100 0 01-40-190Zm2500 0c60-30 140 10 150 80 10 60-40 120-100 110a100 100 0 01-50-190Zm-3570 340c50-10 110 10 130 60 30 70-50 160-120 150-60-10-100-70-80-130 10-30 40-60 70-80Zm4650 10c80-40 160 30 150 110 0 50-40 90-90 90-70 0-130-70-110-140 10-30 30-50 50-60Z" fill="#000" /></svg>
