<?xml version="1.0" ?><!DOCTYPE svg  PUBLIC '-//W3C//DTD SVG 1.1//EN'  'http://www.w3.org/Graphics/SVG/1.1/DTD/svg11.dtd'><svg height="1000pt" version="1.1" viewBox="0 0 1000 1000" width="1000pt" xmlns="http://www.w3.org/2000/svg"><path d=" M 60.38 241.49 C 66.91 237.73 75.67 243.57 75.03 250.98 C 75.83 258.15 67.61 263.99 61.11 260.87 C 53.29 257.81 52.79 245.12 60.38 241.49 Z"  /><path d=" M 931.37 241.52 C 936.14 238.84 942.76 241.04 945.02 246.01 C 947.08 250.60 946.06 256.86 941.75 259.83 C 938.18 262.45 932.88 262.23 929.53 259.35 C 924.03 254.85 924.92 244.73 931.37 241.52 Z"  /><path d=" M 61.06 289.07 C 63.09 285.63 65.85 281.98 70.08 281.35 C 75.80 280.32 81.14 284.82 82.94 290.00 C 86.52 299.71 93.19 308.02 96.08 318.01 C 98.55 326.42 98.02 335.37 96.43 343.89 C 92.41 364.94 85.00 385.16 80.35 406.06 C 85.72 392.21 93.00 379.24 100.47 366.44 C 103.03 362.44 104.92 357.58 109.28 355.15 C 112.73 352.79 117.66 352.65 121.05 355.21 C 123.67 357.00 125.00 360.12 125.41 363.18 C 126.30 373.14 129.05 382.95 128.24 393.03 C 127.18 406.99 127.37 421.53 121.65 434.61 C 116.78 444.89 110.11 454.65 100.79 461.39 C 116.30 492.68 138.99 520.34 166.64 541.68 C 161.51 536.42 157.25 530.25 154.77 523.30 C 148.60 506.18 146.91 487.94 144.07 470.09 C 143.43 465.73 142.84 460.58 145.94 456.97 C 148.77 453.48 153.72 452.78 157.92 453.36 C 163.78 455.01 167.96 459.75 172.64 463.37 C 179.56 468.65 185.09 475.51 189.88 482.72 C 189.87 479.95 189.89 477.18 189.88 474.41 C 184.14 468.18 181.84 459.87 179.10 452.07 C 173.22 434.82 171.88 415.65 177.41 398.13 C 179.79 390.43 183.21 383.09 186.84 375.91 C 188.60 372.08 192.85 369.88 196.99 370.24 C 202.51 369.84 207.19 373.66 210.25 377.88 C 215.13 385.02 219.48 392.65 221.94 400.98 C 225.00 410.85 224.61 421.35 223.82 431.53 C 222.63 444.69 223.77 458.38 218.75 470.91 C 216.66 475.56 214.36 480.56 209.83 483.32 C 209.58 490.94 209.18 498.56 208.05 506.11 C 214.92 495.58 223.37 485.82 233.97 478.91 C 242.62 473.40 251.85 468.61 261.73 465.74 C 266.31 464.30 271.49 464.77 275.41 467.69 C 280.17 470.60 280.89 476.97 279.82 481.98 C 278.41 488.45 276.35 494.78 273.82 500.90 C 268.70 513.22 259.64 523.23 251.43 533.54 C 243.25 543.27 234.29 552.49 223.89 559.87 C 218.98 563.44 213.13 565.21 207.43 567.10 C 232.67 579.49 260.21 587.42 288.29 589.48 C 276.62 577.73 271.52 561.63 263.20 547.68 C 261.45 544.60 259.56 541.09 260.56 537.43 C 261.79 533.59 264.02 529.44 268.09 528.08 C 272.25 526.63 276.80 527.13 281.02 528.07 C 289.42 530.07 297.89 532.26 305.56 536.36 C 313.36 540.54 321.10 545.15 327.39 551.46 C 333.29 557.34 337.06 564.87 340.84 572.19 C 343.39 577.30 346.17 582.31 348.57 587.50 C 356.46 586.75 364.25 585.26 372.16 584.73 C 397.64 582.67 423.45 585.57 447.92 592.94 C 449.02 586.28 448.10 579.55 446.36 573.10 C 437.11 575.90 427.16 575.69 417.94 572.84 C 407.92 569.73 397.34 568.54 387.63 564.42 C 380.89 561.68 374.80 557.56 369.04 553.16 C 364.52 549.72 360.44 545.36 358.43 539.96 C 356.48 533.82 361.45 528.01 366.84 525.80 C 375.60 521.47 385.60 522.99 395.00 522.27 C 400.97 521.76 407.01 522.41 412.72 524.25 C 407.83 519.32 403.23 514.11 398.30 509.21 C 390.90 510.76 383.26 510.16 375.95 508.45 C 367.99 506.53 359.87 504.96 352.32 501.67 C 335.47 494.63 320.98 482.39 310.67 467.36 C 305.85 460.25 301.34 452.86 297.90 444.98 C 295.31 438.36 301.41 431.55 308.00 431.32 C 314.32 431.27 320.44 433.10 326.52 434.61 C 336.37 437.33 346.45 439.36 356.00 443.09 C 364.19 446.07 371.69 450.51 379.25 454.76 C 387.77 458.55 396.48 463.14 402.02 470.93 C 407.38 479.09 412.08 487.78 414.86 497.17 C 418.90 502.34 423.82 506.78 428.21 511.67 C 426.55 500.50 425.02 489.09 426.70 477.84 C 427.30 470.25 435.94 464.86 443.07 467.18 C 449.39 468.92 454.16 473.80 458.91 478.06 C 467.25 486.56 475.28 496.62 476.67 508.86 C 478.65 520.38 476.38 531.99 474.57 543.37 C 473.20 552.10 467.86 559.53 465.91 568.08 C 466.65 573.73 468.45 579.26 468.34 585.02 C 468.13 590.12 468.55 595.22 468.35 600.33 C 479.47 605.33 490.31 611.01 500.55 617.66 C 510.80 610.91 521.70 605.21 532.92 600.25 C 532.00 595.88 533.08 591.45 532.67 587.04 C 532.26 580.59 534.19 574.36 535.09 568.06 C 533.06 559.31 527.57 551.70 526.31 542.72 C 523.64 526.99 520.87 509.59 528.90 494.91 C 534.40 485.49 541.91 477.25 550.68 470.78 C 554.44 467.97 559.25 466.02 564.01 466.83 C 568.82 468.15 573.53 471.75 574.14 477.02 C 576.10 488.51 574.46 500.24 572.79 511.67 C 576.64 507.60 580.49 503.53 584.35 499.46 C 587.44 496.54 587.43 491.97 589.27 488.35 C 592.24 482.15 595.47 476.03 599.39 470.37 C 604.22 464.00 611.19 459.57 618.42 456.35 C 624.96 453.47 630.77 449.21 637.32 446.36 C 646.94 441.72 657.29 438.98 667.60 436.41 C 675.33 434.53 682.97 431.94 690.95 431.35 C 696.42 430.78 702.55 434.37 703.50 440.05 C 704.32 443.82 702.14 447.25 700.51 450.45 C 692.97 464.81 683.50 478.54 670.60 488.60 C 660.01 497.10 647.53 503.32 634.25 506.26 C 623.99 508.85 613.29 511.59 602.69 509.21 C 597.77 514.11 593.17 519.33 588.26 524.26 C 593.98 522.40 600.03 521.76 606.02 522.27 C 615.43 522.99 625.45 521.47 634.22 525.82 C 639.57 528.04 644.48 533.81 642.58 539.92 C 639.35 548.61 631.25 553.97 623.85 558.88 C 615.48 564.50 605.72 567.52 595.93 569.54 C 586.94 571.32 578.28 575.06 569.01 575.12 C 564.13 575.32 559.33 574.29 554.64 573.10 C 552.89 579.55 551.98 586.29 553.08 592.94 C 575.98 586.05 600.06 583.04 623.95 584.40 C 633.51 584.77 642.93 586.51 652.43 587.50 C 656.09 579.91 660.01 572.45 663.94 565.01 C 667.83 557.60 673.14 550.86 679.97 545.95 C 689.66 538.90 700.38 532.96 712.09 530.07 C 718.63 528.43 725.50 525.97 732.26 527.86 C 736.66 529.00 739.16 533.34 740.43 537.40 C 741.45 541.10 739.52 544.64 737.75 547.75 C 729.46 561.68 724.36 577.75 712.71 589.48 C 736.43 587.79 759.71 581.74 781.62 572.58 C 785.41 570.67 789.85 569.65 793.08 566.86 C 787.27 565.10 781.42 563.13 776.50 559.45 C 760.55 547.89 748.11 532.35 736.34 516.75 C 728.72 506.79 724.19 494.87 721.34 482.76 C 720.35 478.34 720.36 473.06 723.49 469.47 C 727.14 465.68 732.80 464.00 737.91 465.42 C 747.19 467.74 755.81 472.17 764.01 477.01 C 775.97 484.02 785.45 494.58 792.95 506.10 C 791.82 498.56 791.41 490.94 791.18 483.33 C 786.85 480.71 784.60 476.03 782.54 471.62 C 779.10 463.19 778.14 454.00 777.94 444.97 C 777.71 433.63 775.78 422.29 777.05 410.95 C 778.08 400.53 782.46 390.76 788.03 382.02 C 790.68 377.51 794.04 373.02 799.03 370.97 C 804.10 369.32 810.98 370.01 813.74 375.19 C 821.07 389.03 827.09 404.13 827.08 420.02 C 827.54 435.87 822.87 451.28 816.81 465.75 C 815.43 468.95 813.31 471.74 811.12 474.41 C 811.10 477.18 811.12 479.95 811.12 482.72 C 815.91 475.50 821.45 468.65 828.37 463.36 C 832.87 459.85 836.91 455.40 842.45 453.52 C 847.01 452.57 852.65 453.46 855.50 457.53 C 858.12 461.14 857.51 465.90 856.93 470.05 C 854.09 487.90 852.40 506.13 846.25 523.25 C 843.85 530.01 839.73 536.02 834.85 541.23 C 862.34 520.05 884.77 492.45 900.21 461.39 C 891.89 455.42 885.76 446.96 881.00 438.00 C 875.88 428.48 874.36 417.56 873.69 406.92 C 873.21 398.98 872.21 391.02 872.92 383.07 C 873.33 376.95 874.97 371.00 875.38 364.88 C 875.62 360.99 877.06 356.76 880.64 354.75 C 886.85 350.90 894.62 355.46 897.51 361.38 C 906.08 375.80 914.55 390.39 920.65 406.06 C 916.04 385.36 908.74 365.34 904.68 344.50 C 902.94 335.51 902.37 326.02 905.17 317.18 C 908.19 307.57 914.54 299.47 918.04 290.06 C 919.87 284.63 925.68 279.94 931.63 281.50 C 936.02 282.54 938.52 286.64 940.64 290.27 C 944.70 297.63 949.10 304.89 951.86 312.87 C 957.13 328.72 958.79 346.14 954.59 362.43 C 952.02 372.83 948.39 382.92 945.28 393.16 C 943.78 397.97 943.17 403.07 940.85 407.60 C 947.25 401.52 954.75 396.82 962.40 392.50 C 966.76 390.12 972.00 388.41 976.92 390.03 C 981.66 391.18 985.05 396.15 984.28 401.00 C 983.48 405.93 980.17 409.91 978.58 414.58 C 974.24 426.14 971.30 438.67 963.25 448.39 C 955.87 457.65 944.88 463.02 934.08 467.24 C 929.07 469.54 923.55 470.31 918.08 470.31 C 896.79 513.33 862.85 549.88 821.68 574.50 C 834.23 580.25 848.42 580.07 861.83 578.31 C 870.47 577.07 878.84 574.46 887.28 572.30 C 893.42 570.59 899.85 568.97 904.98 564.99 C 908.13 562.97 907.00 558.71 907.81 555.57 C 909.98 543.66 911.71 531.02 918.84 520.87 C 925.65 511.46 933.89 502.88 943.98 496.99 C 948.16 494.67 951.90 490.73 957.00 490.75 C 962.41 490.52 967.41 495.57 966.87 501.01 C 965.96 509.89 965.77 518.91 963.48 527.59 C 959.96 541.29 954.58 554.80 945.75 565.97 C 939.84 573.26 931.73 579.70 921.99 580.19 C 918.59 580.13 915.62 581.71 912.97 583.66 C 918.73 585.38 924.15 588.01 929.73 590.22 C 937.13 593.17 943.76 597.64 950.89 601.15 C 954.55 602.98 958.50 605.47 959.40 609.80 C 961.27 614.50 959.57 620.40 954.97 622.82 C 945.46 627.93 934.69 630.22 924.04 631.47 C 912.56 632.74 900.69 633.59 889.43 630.44 C 881.21 628.22 873.64 624.13 866.62 619.39 C 860.62 615.48 854.67 611.36 849.62 606.24 C 847.69 604.44 847.19 601.76 846.61 599.32 C 838.00 599.41 829.33 598.33 821.15 595.58 C 813.61 593.18 806.77 589.11 799.31 586.53 C 796.57 587.80 793.82 589.04 791.06 590.25 C 803.64 595.77 812.61 606.69 820.32 617.67 C 828.38 629.52 835.15 642.38 839.58 656.04 C 841.81 661.53 840.07 668.85 834.43 671.48 C 828.85 673.76 822.59 672.68 816.91 671.42 C 804.88 668.78 794.28 661.89 785.40 653.57 C 777.17 646.09 771.64 636.20 766.80 626.32 C 762.94 618.48 760.79 609.89 760.54 601.15 C 745.96 605.20 731.07 608.13 715.95 609.16 C 703.70 609.93 691.38 611.65 679.12 610.22 C 682.85 617.34 688.05 623.68 694.31 628.73 C 700.66 633.85 707.18 638.91 714.62 642.38 C 717.11 643.52 719.52 644.85 721.78 646.42 C 729.79 643.81 738.45 645.18 746.30 647.69 C 761.47 653.43 773.54 665.36 782.00 678.95 C 789.20 690.19 794.27 702.63 798.67 715.18 C 799.82 718.47 800.95 722.18 799.34 725.53 C 797.03 730.89 790.25 732.87 784.94 731.43 C 774.06 728.69 762.76 726.10 753.41 719.58 C 741.36 711.12 730.48 700.61 723.36 687.60 C 719.95 681.21 716.88 674.62 714.52 667.77 C 710.73 665.97 709.42 661.43 705.45 659.91 C 709.47 679.47 708.61 700.30 702.09 719.23 C 699.60 724.69 698.52 731.62 692.93 734.91 C 689.34 737.30 684.21 736.95 681.01 734.05 C 677.91 731.22 676.37 727.20 674.33 723.63 C 666.79 709.49 656.30 696.32 654.06 679.98 C 651.48 667.79 656.34 655.90 660.89 644.83 C 662.89 639.87 666.43 635.78 668.69 630.96 C 666.47 627.89 664.32 624.76 662.55 621.42 C 660.10 616.95 658.37 611.98 654.88 608.17 C 650.39 607.00 645.69 607.18 641.15 606.31 C 626.94 603.91 612.46 603.66 598.10 604.47 C 606.07 609.39 612.79 616.01 619.18 622.79 C 627.03 631.07 632.30 641.46 640.58 649.36 C 643.05 651.73 645.84 654.32 646.10 657.98 C 646.90 664.18 641.09 669.66 635.12 669.83 C 627.73 670.16 620.32 669.93 612.93 669.74 C 606.10 669.59 599.38 667.81 593.28 664.76 C 579.50 658.02 565.18 650.75 555.70 638.26 C 550.53 632.04 546.65 624.93 543.22 617.65 C 534.40 621.19 525.95 625.60 517.74 630.39 C 553.86 660.33 579.62 702.81 588.27 749.02 C 589.28 754.90 583.83 760.61 577.94 760.11 C 572.83 760.05 568.83 755.60 568.29 750.70 C 559.70 707.93 534.94 668.88 500.53 642.19 C 466.49 668.49 441.90 706.95 433.07 749.11 C 432.41 752.55 431.45 756.40 428.25 758.38 C 423.67 761.71 416.51 760.07 413.88 755.05 C 411.40 750.95 413.34 746.18 414.20 741.92 C 424.06 698.43 449.01 658.80 483.26 630.37 C 475.04 625.61 466.61 621.19 457.79 617.65 C 452.46 629.18 445.38 640.22 435.45 648.34 C 428.10 654.47 419.49 658.81 411.03 663.17 C 404.50 666.53 397.49 669.31 390.07 669.62 C 382.02 669.99 373.94 670.13 365.89 669.84 C 359.92 669.66 354.10 664.19 354.90 657.98 C 355.16 654.32 357.95 651.72 360.43 649.35 C 368.69 641.46 373.96 631.09 381.78 622.82 C 388.18 616.03 394.92 609.40 402.90 604.47 C 388.93 603.70 374.86 603.87 361.03 606.12 C 356.04 606.99 350.97 607.27 345.97 608.00 C 340.77 615.27 338.01 623.99 332.31 630.96 C 334.43 635.54 337.77 639.42 339.77 644.07 C 342.45 650.18 344.72 656.48 346.48 662.93 C 349.26 674.05 346.50 685.75 342.13 696.08 C 337.39 706.34 330.74 715.56 325.61 725.61 C 323.47 729.54 321.42 734.28 316.87 735.90 C 311.32 738.04 305.05 734.25 302.92 729.03 C 292.78 707.68 290.85 682.91 295.55 659.91 C 291.58 661.44 290.26 665.96 286.48 667.78 C 281.16 682.87 273.31 697.45 261.39 708.37 C 253.52 715.48 245.14 722.52 234.96 726.02 C 228.11 728.36 221.13 730.43 214.02 731.79 C 207.25 732.96 199.40 727.24 201.01 719.89 C 203.23 711.40 206.72 703.28 210.21 695.25 C 217.79 678.75 228.36 662.77 244.05 653.00 C 254.29 646.49 267.30 642.88 279.22 646.42 C 281.48 644.86 283.87 643.52 286.36 642.38 C 293.81 638.92 300.34 633.85 306.70 628.72 C 312.96 623.68 318.15 617.34 321.88 610.22 C 309.47 611.66 297.01 609.90 284.62 609.12 C 269.65 608.09 254.90 605.15 240.46 601.15 C 240.31 615.18 234.12 628.16 226.79 639.80 C 219.90 651.29 209.27 660.17 197.62 666.55 C 188.91 670.61 179.14 673.76 169.43 672.40 C 162.47 671.42 158.73 663.18 161.19 656.93 C 165.57 642.68 172.70 629.35 181.09 617.07 C 188.70 606.31 197.59 595.66 209.95 590.24 C 207.19 589.05 204.45 587.82 201.73 586.53 C 194.25 589.07 187.42 593.17 179.89 595.57 C 171.70 598.33 163.01 599.42 154.39 599.32 C 153.80 601.79 153.29 604.48 151.33 606.29 C 145.26 612.42 137.96 617.10 130.74 621.74 C 123.71 626.21 115.97 629.66 107.79 631.37 C 97.66 633.36 87.26 632.62 77.07 631.49 C 66.86 630.35 56.64 628.08 47.36 623.56 C 43.95 622.02 41.19 618.84 40.88 615.01 C 40.65 610.02 42.94 604.75 47.62 602.54 C 54.36 599.05 60.86 595.12 67.69 591.79 C 74.42 588.97 81.06 585.86 88.03 583.66 C 82.80 578.87 75.20 581.01 69.29 577.69 C 58.43 572.19 51.16 561.67 45.94 550.98 C 39.95 538.48 35.87 524.92 35.01 511.04 C 34.82 507.68 34.38 504.34 34.13 500.99 C 33.64 495.94 37.95 491.14 42.96 490.79 C 45.57 490.48 48.15 491.35 50.35 492.71 C 57.33 497.26 64.71 501.38 70.59 507.38 C 78.08 514.97 85.44 523.38 88.43 533.85 C 91.18 543.42 93.25 553.23 94.00 563.17 C 99.29 568.45 106.73 570.40 113.73 572.30 C 123.36 574.78 132.93 577.81 142.88 578.76 C 155.09 580.00 167.94 579.83 179.24 574.45 C 138.10 549.84 104.20 513.29 82.92 470.31 C 78.20 470.21 73.38 469.88 68.97 468.04 C 57.00 463.48 44.60 457.75 36.80 447.16 C 29.23 437.41 26.51 425.15 22.14 413.86 C 20.54 409.49 17.46 405.70 16.73 401.03 C 15.94 396.23 19.25 391.26 23.95 390.07 C 28.63 388.46 33.67 389.94 37.90 392.13 C 45.81 396.52 53.55 401.35 60.15 407.60 C 58.18 403.79 57.45 399.54 56.36 395.44 C 52.21 380.72 46.16 366.42 44.37 351.13 C 43.24 337.25 45.21 323.09 50.17 310.08 C 53.16 302.76 57.18 295.93 61.06 289.07 M 63.99 345.01 C 64.01 353.90 67.25 362.28 69.32 370.79 C 72.31 357.56 77.20 344.61 77.83 330.95 C 78.26 323.91 74.58 317.67 71.30 311.74 C 66.01 321.96 63.91 333.58 63.99 345.01 M 929.70 311.74 C 927.15 316.56 924.07 321.34 923.40 326.86 C 922.56 333.97 924.28 341.04 925.82 347.94 C 927.54 355.62 929.95 363.12 931.68 370.80 C 933.41 363.55 936.06 356.49 936.79 349.02 C 937.67 336.30 935.54 323.16 929.70 311.74 M 100.38 410.12 C 96.91 420.03 94.19 430.39 94.14 440.95 C 99.09 434.66 103.85 427.83 105.56 419.87 C 107.78 410.59 107.16 400.95 108.74 391.59 C 106.19 397.87 102.56 403.68 100.38 410.12 M 892.21 391.59 C 893.89 400.94 893.19 410.60 895.44 419.88 C 897.16 427.84 901.91 434.67 906.86 440.95 C 906.80 430.41 904.10 420.06 900.64 410.17 C 898.44 403.70 894.85 397.86 892.21 391.59 M 198.82 397.43 C 196.17 403.98 194.26 410.89 193.93 417.98 C 193.14 431.24 196.88 444.25 201.95 456.37 C 203.30 450.67 202.98 444.78 203.34 438.98 C 203.70 430.34 205.06 421.69 204.10 413.05 C 203.55 407.52 201.53 402.24 198.82 397.43 M 797.36 433.92 C 798.00 441.43 797.60 449.02 798.92 456.46 C 801.37 451.09 803.17 445.44 804.76 439.76 C 808.51 425.83 807.97 410.66 802.16 397.37 C 795.38 408.33 796.16 421.62 797.36 433.92 M 45.84 421.49 C 47.99 426.69 49.96 432.12 53.72 436.42 C 57.74 441.20 63.59 443.75 68.89 446.80 C 64.94 441.25 61.41 435.32 56.52 430.52 C 53.17 427.26 49.40 424.49 45.84 421.49 M 944.50 430.50 C 939.60 435.31 936.06 441.24 932.11 446.80 C 937.42 443.74 943.30 441.18 947.32 436.37 C 951.05 432.08 953.01 426.66 955.17 421.48 C 951.61 424.48 947.84 427.25 944.50 430.50 M 326.34 455.17 C 336.21 469.42 350.41 481.08 367.27 485.80 C 374.92 487.73 382.58 489.91 390.50 490.39 C 388.12 486.53 386.28 482.12 382.57 479.31 C 377.94 475.55 372.11 473.86 367.03 470.85 C 361.75 467.72 356.37 464.69 350.64 462.44 C 342.83 459.14 334.49 457.40 326.34 455.17 M 637.01 469.09 C 631.27 472.88 624.52 474.81 618.97 478.89 C 614.94 481.69 612.97 486.33 610.50 490.39 C 618.42 489.91 626.08 487.73 633.73 485.79 C 650.61 481.08 664.79 469.41 674.67 455.16 C 661.66 458.38 648.49 461.92 637.01 469.09 M 166.19 484.08 C 168.04 494.23 169.45 504.52 172.75 514.33 C 174.00 518.50 176.27 522.25 178.84 525.75 C 179.15 518.19 180.62 510.33 178.03 503.01 C 175.62 495.84 170.56 490.09 166.19 484.08 M 822.98 502.98 C 820.37 510.31 821.85 518.18 822.16 525.75 C 824.23 522.82 826.27 519.83 827.50 516.43 C 831.36 506.01 832.82 494.95 834.81 484.07 C 830.45 490.08 825.39 495.82 822.98 502.98 M 233.99 505.02 C 223.53 517.03 214.99 530.79 209.00 545.56 C 219.03 539.78 227.02 531.12 234.62 522.53 C 243.27 511.90 252.75 501.48 257.54 488.41 C 249.02 492.88 240.36 497.61 233.99 505.02 M 743.46 488.41 C 746.24 495.24 749.67 501.83 754.37 507.55 C 765.36 521.55 776.54 536.24 792.00 545.56 C 786.01 530.78 777.46 517.02 766.99 505.00 C 760.62 497.60 751.97 492.88 743.46 488.41 M 446.03 493.25 C 447.44 509.03 450.35 524.70 454.94 539.88 C 456.48 529.31 459.11 518.37 456.09 507.82 C 454.06 502.17 449.78 497.78 446.03 493.25 M 544.93 507.78 C 541.88 518.34 544.52 529.29 546.06 539.87 C 550.66 524.70 553.56 509.03 554.97 493.25 C 551.22 497.77 546.96 502.16 544.93 507.78 M 56.18 520.75 C 59.67 533.34 64.08 546.21 73.02 556.06 C 71.95 550.01 70.83 543.93 68.81 538.12 C 66.30 531.25 60.70 526.28 56.18 520.75 M 944.79 520.77 C 940.09 526.51 934.21 531.72 931.88 538.99 C 930.07 544.55 928.99 550.32 927.98 556.07 C 936.90 546.22 941.34 533.36 944.79 520.77 M 387.61 542.32 C 392.85 544.95 398.18 547.56 403.97 548.79 C 412.13 550.60 420.22 552.69 428.27 554.95 C 425.31 552.14 422.46 549.02 418.62 547.43 C 414.48 545.73 410.23 544.35 405.96 543.07 C 400.00 541.12 393.72 542.76 387.61 542.32 M 584.39 546.62 C 579.68 548.07 576.13 551.58 572.73 554.95 C 580.80 552.68 588.91 550.59 597.09 548.78 C 602.85 547.54 608.16 544.94 613.39 542.32 C 609.94 542.47 606.50 542.25 603.06 542.10 C 596.52 541.72 590.45 544.64 584.39 546.62 M 287.00 550.01 C 292.41 560.45 297.13 571.94 306.77 579.28 C 311.93 583.40 318.54 585.02 325.05 584.96 C 320.76 577.45 317.69 568.81 310.74 563.23 C 303.63 557.55 295.52 553.19 287.00 550.01 M 690.23 563.26 C 683.30 568.83 680.23 577.46 675.95 584.96 C 682.47 585.02 689.09 583.39 694.25 579.26 C 703.88 571.92 708.59 560.44 713.99 550.01 C 705.47 553.20 697.34 557.56 690.23 563.26 M 101.91 602.47 C 98.14 602.21 94.25 602.27 90.71 603.77 C 85.10 606.10 79.45 608.36 73.92 610.89 C 83.19 612.24 92.67 613.39 102.01 612.11 C 110.32 610.97 117.61 606.54 124.53 602.09 C 116.99 602.12 109.45 602.99 101.91 602.47 M 876.47 602.09 C 881.57 605.27 886.66 608.63 892.43 610.50 C 903.63 614.22 915.66 612.42 927.10 610.90 C 921.56 608.36 915.90 606.10 910.28 603.76 C 906.72 602.26 902.81 602.21 899.02 602.47 C 891.50 602.98 883.99 602.12 876.47 602.09 M 208.34 615.28 C 198.44 625.38 190.93 637.62 185.02 650.41 C 195.56 645.68 204.99 637.92 210.77 627.82 C 214.62 621.48 218.00 614.77 219.85 607.56 C 215.68 609.59 211.55 611.88 208.34 615.28 M 781.15 607.55 C 783.76 617.29 788.75 626.28 794.69 634.38 C 800.46 641.21 807.78 646.82 815.98 650.41 C 812.20 642.07 807.60 634.11 802.25 626.67 C 796.63 618.96 790.19 611.29 781.15 607.55 M 417.70 618.77 C 404.54 626.12 394.38 637.76 385.88 650.01 C 389.80 649.66 393.82 649.28 397.41 647.52 C 404.82 644.11 412.10 640.34 418.92 635.86 C 426.42 630.92 431.93 623.61 436.39 615.94 C 430.02 614.42 423.36 615.52 417.70 618.77 M 564.61 615.94 C 569.06 623.60 574.57 630.91 582.06 635.85 C 588.89 640.34 596.18 644.11 603.60 647.53 C 607.19 649.28 611.19 649.67 615.12 650.01 C 607.33 638.70 598.08 628.11 586.47 620.61 C 580.07 616.36 572.23 613.96 564.61 615.94 M 317.25 659.32 C 315.21 662.46 314.62 666.30 313.98 669.94 C 312.42 681.12 312.96 692.56 315.12 703.64 C 320.16 695.11 325.90 686.58 327.30 676.54 C 328.95 668.83 324.88 661.72 322.79 654.56 C 321.09 656.32 319.06 657.69 317.25 659.32 M 678.21 654.56 C 676.21 661.53 672.22 668.40 673.60 675.91 C 674.88 686.20 680.73 694.95 685.89 703.65 C 688.30 690.23 689.13 676.07 685.40 662.82 C 684.71 658.81 680.67 657.28 678.21 654.56 M 251.83 671.82 C 239.65 680.79 232.29 694.50 226.29 708.04 C 235.48 704.97 242.88 698.43 249.76 691.85 C 257.26 684.38 262.20 674.90 266.23 665.23 C 260.95 666.17 256.10 668.65 251.83 671.82 M 734.77 665.23 C 737.76 671.98 740.73 678.85 745.25 684.76 C 750.24 691.67 756.76 697.29 763.58 702.33 C 766.94 704.85 770.81 706.54 774.71 708.04 C 771.04 699.85 767.06 691.72 761.66 684.51 C 754.99 675.61 746.00 667.42 734.77 665.23 Z" " /><path d=" M 24.44 351.64 C 32.73 347.68 42.15 358.02 37.98 365.99 C 35.21 372.51 25.37 373.63 21.15 367.96 C 16.36 363.16 18.04 354.09 24.44 351.64 Z"  /><path d=" M 969.36 351.41 C 974.20 349.55 980.12 352.30 981.94 357.13 C 984.74 363.63 979.07 371.85 972.03 371.66 C 967.49 371.78 963.22 368.33 962.30 363.90 C 961.07 358.75 964.50 353.20 969.36 351.41 Z"  /><path d=" M 145.35 423.36 C 150.71 420.79 157.77 424.16 159.08 429.97 C 160.56 435.11 157.16 440.96 151.94 442.17 C 146.78 443.66 140.90 440.22 139.73 434.97 C 138.47 430.40 140.97 425.19 145.35 423.36 Z"  /><path d=" M 847.32 423.46 C 852.71 420.70 859.98 424.09 861.27 430.02 C 862.86 435.55 858.72 441.78 852.99 442.39 C 847.74 443.28 842.34 439.26 841.71 433.97 C 841.01 429.73 843.39 425.22 847.32 423.46 Z"  /><path d=" M 252.35 424.48 C 259.04 421.48 267.21 427.79 265.96 435.01 C 265.41 442.36 255.81 446.43 250.11 441.82 C 243.85 437.64 245.22 426.92 252.35 424.48 Z"  /><path d=" M 741.34 424.45 C 748.03 421.51 756.14 427.85 754.86 435.05 C 754.28 442.35 744.78 446.40 739.07 441.86 C 732.73 437.69 734.12 426.85 741.34 424.45 Z"  /><path d=" M 323.41 504.41 C 330.35 501.65 338.27 508.61 336.48 515.83 C 335.38 522.99 325.77 526.41 320.36 521.62 C 314.34 517.14 316.19 506.53 323.41 504.41 Z"  /><path d=" M 670.39 504.66 C 677.07 501.46 685.45 507.73 684.24 515.04 C 683.74 522.48 673.95 526.58 668.25 521.81 C 662.21 517.61 663.50 507.24 670.39 504.66 Z"  /><path d=" M 116.31 544.47 C 123.20 542.05 130.79 548.93 129.03 556.02 C 127.90 563.44 117.73 566.71 112.45 561.41 C 106.78 556.63 109.10 546.32 116.31 544.47 Z"  /><path d=" M 878.43 544.61 C 885.33 541.83 893.29 548.66 891.60 555.90 C 890.57 563.21 880.70 566.68 875.30 561.67 C 869.46 557.13 871.34 546.77 878.43 544.61 Z"  /><path d=" M 27.41 568.54 C 35.45 565.37 44.41 574.96 40.67 582.77 C 38.08 589.47 28.21 590.79 23.78 585.22 C 18.49 580.41 20.54 570.65 27.41 568.54 Z"  /><path d=" M 967.30 568.42 C 972.71 566.57 979.08 570.35 980.06 575.98 C 981.72 583.28 973.83 590.70 966.64 588.36 C 961.17 586.89 957.97 580.31 960.20 575.10 C 961.51 572.05 964.11 569.47 967.30 568.42 Z"  /><path d=" M 263.37 613.47 C 268.83 610.50 276.35 613.99 277.59 620.07 C 279.23 626.04 274.19 632.54 268.00 632.39 C 262.44 632.66 257.46 627.51 257.89 621.97 C 257.98 618.41 260.19 615.03 263.37 613.47 Z"  /><path d=" M 729.21 613.21 C 735.68 610.11 743.90 615.91 743.10 623.04 C 743.01 630.55 733.34 635.18 727.40 630.61 C 721.04 626.58 722.14 615.83 729.21 613.21 Z"  /><path d=" M 129.32 642.37 C 134.40 639.79 141.24 642.60 143.00 648.03 C 145.08 653.34 141.61 659.89 136.03 661.10 C 130.93 662.52 125.16 659.14 123.94 653.99 C 122.65 649.48 125.02 644.28 129.32 642.37 Z"  /><path d=" M 863.29 642.30 C 868.70 639.64 875.89 643.12 877.11 649.03 C 878.74 654.81 874.06 661.20 868.06 661.38 C 862.70 661.88 857.57 657.35 857.44 651.97 C 857.14 647.94 859.58 643.91 863.29 642.30 Z"  /><path "d=" M 371.25 685.19 C 376.96 682.55 384.32 686.67 385.02 692.92 C 386.10 698.77 380.96 704.69 375.01 704.39 C 369.15 704.53 364.20 698.69 365.26 692.93 C 365.71 689.53 368.09 686.49 371.25 685.19 Z"  /><path d=" M 621.37 685.47 C 627.10 682.31 635.01 686.40 635.74 692.89 C 636.82 698.65 631.89 704.50 626.03 704.39 C 620.48 704.67 615.47 699.54 615.89 694.00 C 615.97 690.43 618.17 687.04 621.37 685.47 Z"  /><path d=" M 264.23 719.29 C 269.14 717.53 275.05 720.32 276.77 725.25 C 279.61 732.42 272.48 741.21 264.85 739.71 C 259.13 738.92 255.13 732.52 256.95 727.03 C 258.11 723.60 260.75 720.50 264.23 719.29 Z"  /><path d=" M 729.48 719.65 C 736.70 716.11 745.32 723.41 744.40 730.98 C 743.95 735.68 739.78 739.68 735.05 739.82 C 728.11 740.37 722.05 732.73 723.96 726.09 C 724.72 723.26 726.81 720.85 729.48 719.65 Z"  /></svg>