<?xml version="1.0" ?><svg id="Layer_1" style="enable-background:new 0 0 200 200;" version="1.1" viewBox="0 0 200 200" xml:space="preserve" xmlns="http://www.w3.org/2000/svg" xmlns:xlink="http://www.w3.org/1999/xlink"><path d="M139.4,110.3c0.3-0.2,0.5-0.8,0.4-1.6v0c-0.2-2.2-1.3-4.4-2.6-6.1c-1.4-1.8-3.1-3.2-5-4.4c-1.8-1.2-3.7-2.1-5.6-2.9  c0.2-0.3,0.3-0.8,0.4-1.4c0.8-18.4,1.5-36.7,1.9-55.2c0-2.4,0-4.7-0.2-7.2c-0.1-1.3-0.3-2.5-0.7-3.9c-0.4-1.3-1-2.9-2.3-4.2  c-1.3-1.3-3-2.1-4.5-2.5c-1.5-0.4-2.8-0.4-4.1-0.5c-2.5,0-4.8,0.1-7.1,0.2c-4.6,0.2-9,0.3-13.5,0.2c-2.3-0.1-4.5-0.2-6.8-0.4  c-2.3-0.1-4.6-0.3-7.2-0.3c-1.6,0-3.3,0.2-5.4,1c-1,0.4-2,1.1-2.8,1.9c-0.8,0.8-1.4,1.8-1.8,2.7c-0.8,1.8-1.1,3.4-1.3,5  c-0.2,1.6-0.3,3.1-0.4,4.5c-0.1,1.5-0.1,2.9-0.1,4.4l0,4.2v8.4V86c0,3.6,0.7,6.8,1.7,8.4c-0.9,0.4-1.9,0.7-2.8,1.2  c-2.1,1-4.1,2.2-5.9,3.7c-0.9,0.8-1.8,1.6-2.6,2.7c-0.4,0.5-0.8,1-1.1,1.6c-0.1,0.1-0.2,0.4-0.3,0.6l-0.3,0.7  c-0.2,0.4-0.5,0.9-0.6,1.4c-0.2,0.5-0.3,0.9-0.5,1.4l-0.3,1.4c-0.2,0.9-0.2,1.8-0.3,2.7l-0.1,1.4c0,0,0,0.1,0,0.2l0.2,0l0.2,0  c0,0.2-0.1,0.4-0.1,0.6v24.8c0,13.6,0.8,27.1,2.5,40.6c0.1,0.9,1.6,0.9,1.7,0c1.7-13.5,2.5-27,2.5-40.6v-24.8c0,0,0,0,0,0l5.2,0h61  c2.1,0,4-0.3,5.5-0.7c-0.1,0.2-0.1,0.5-0.1,0.8v24.8c0,13.6,0.8,27.1,2.5,40.6c0.1,0.9,1.6,0.9,1.7,0c1.7-13.5,2.5-27,2.5-40.6  v-24.8C142.4,112,141.1,110.5,139.4,110.3z M119.7,26.8c0.8,0.2,1.2,0.4,1.5,0.7c0.7,0.6,1.4,2.6,1.6,4.7c0.3,2.1,0.4,4.3,0.5,6.6  c0.4,18.4,1,36.8,1.9,55.1c0,0.4,0.1,0.7,0.2,1c-1.7-0.6-3.3-1.2-5-1.7c-2-0.6-4.1-1-6.1-1.4c1.4-12.8,2.1-25.6,2.1-38.4V27.8  c0-0.4-0.1-0.8-0.2-1.2c0.2,0,0.5,0,0.7,0C117.9,26.6,118.9,26.6,119.7,26.8z M103.3,27.3c2.2-0.1,4.3-0.2,6.5-0.4  c-0.1,0.3-0.1,0.5-0.1,0.8v25.5c0,12.7,0.7,25.4,2.1,38c-3.5-0.5-6.9-0.9-10.5-1c1.3-12.3,2-24.7,2-37V27.8  C103.3,27.6,103.3,27.5,103.3,27.3z M96.7,27.4c0,0.1,0,0.3,0,0.4v25.5c0,12.3,0.7,24.7,2,37c-1.2,0-2.4,0-3.7,0  c-2.2,0.1-4.5,0.2-6.7,0.5c1.3-12.5,2-24.9,2-37.5V27.8c0-0.2,0-0.5-0.1-0.7c1.9,0.1,3.9,0.2,5.9,0.3C96.3,27.4,96.5,27.4,96.7,27.4  z M77.2,86V52.2v-8.4c0-2.8,0-5.6,0.1-8.3c0-1.3,0.2-2.6,0.3-3.9c0.2-1.2,0.4-2.4,0.8-3.1c0.4-0.8,0.6-1,1.1-1.3  c0.6-0.3,1.7-0.4,2.9-0.4c0.4,0,0.8,0,1.3,0c-0.1,0.3-0.1,0.6-0.1,1v25.5c0,12.6,0.7,25.2,2.1,37.8c-1.2,0.2-2.4,0.4-3.5,0.6  c-2,0.4-4,0.9-5.9,1.4C76.8,91.3,77.2,88.8,77.2,86z M69.4,107.1l-3.1,0l-0.8,0l-0.2,0l0,0l0,0l0,0c0,0,0,0,0,0c0,0,0,0,0,0l0,0  c0,0,0,0,0.1-0.1c0.2-0.3,0.4-0.6,0.7-1c0.5-0.6,1.1-1.2,1.7-1.8c1.3-1.1,2.9-2.1,4.6-3c6.8-3.4,15-4.9,23-5.6  c1.4-0.1,2.8-0.2,4.1-0.2c0.3,0.3,0.9,0.2,1.2,0c6.3-0.2,12.7,0.3,18.8,1.5c3.9,0.8,7.8,2,11.3,3.8c3.4,1.8,6.5,4.5,7.4,8.2  c-1.5-1.1-4.4-1.8-7.7-1.8H69.4z"/></svg>