<?xml version="1.0" encoding="UTF-8" standalone="no"?>
<svg
   enable-background="new 0 0 64 64"
   height="64px"
   version="1.1"
   viewBox="0 0 64 64"
   width="64px"
   xml:space="preserve"
   id="svg2"
   sodipodi:docname="Hocker.svg"
   inkscape:version="1.3.2 (091e20ef0f, 2023-11-25)"
   xmlns:inkscape="http://www.inkscape.org/namespaces/inkscape"
   xmlns:sodipodi="http://sodipodi.sourceforge.net/DTD/sodipodi-0.dtd"
   xmlns="http://www.w3.org/2000/svg"
   xmlns:svg="http://www.w3.org/2000/svg"><defs
     id="defs2" /><sodipodi:namedview
     id="namedview2"
     pagecolor="#505050"
     bordercolor="#eeeeee"
     borderopacity="1"
     inkscape:showpageshadow="0"
     inkscape:pageopacity="0"
     inkscape:pagecheckerboard="0"
     inkscape:deskcolor="#505050"
     inkscape:zoom="14.296875"
     inkscape:cx="32"
     inkscape:cy="32"
     inkscape:window-width="1920"
     inkscape:window-height="1163"
     inkscape:window-x="0"
     inkscape:window-y="0"
     inkscape:window-maximized="1"
     inkscape:current-layer="svg2" /><g
     id="Ebene_2" /><g
     id="Ebene_1"><g
       id="g2"><path
         d="m 46.996,12.594 c -0.28,-2.836 1.107,-6.352 -0.72,-7.92 L 15.92223,5.0970219 c 0,0 -0.379454,1.0268648 -0.440164,2.4579781 -0.06071,1.4311133 0.562623,6.071311 0.562623,6.071311 l 5.866885,-0.01224 C 20.011574,29.764071 17.829,44.666 16.516,58.915 c 0.562,0.583 1.671,0.987 2.64,0.48 1.305,-5.377 1.934,-13.192 2.88,-19.68 7.093,-0.055 14.123,-0.953 20.399,-0.24 0.434,4.449 1.532,10.7 2.16,15.6 0.184,1.432 -0.432,3.854 1.681,4.08 1.547,-2.369 0.033,-6.281 -0.24,-9.36 -1.073,-12.086 -3.741,-24.538 -4.8,-36.479 1.457,-0.704 4.644,0.322 5.76,-0.722 z m -5.52,24.001 C 36.458,37.023 28.308087,36.61293 21.944087,36.784929 21.910087,35.310929 22.314,34.712 22.516,33.474 c 6.190024,0.450851 12.291559,-0.192648 18.48,0.24 0.55,1.017 0.208,1.51 0.48,2.881 z M 23.481027,30.764 c 0.062,-5.867 1.288973,-10.589 1.914973,-17.21 5.447,-0.078 7.647,-0.672 13.44,-0.48 0.95,5.694 2.166,12.388 2.4,18 -2.393,0.109 -4.99559,-0.02511 -6.46459,-0.130109 z M 19.33518,10.959027 C 19.27718,9.6560273 18.863148,8.5201366 19.067148,7.4791366 26.512148,7.3321366 36.299,6.647 45.076,7.314 v 3.6 z"
         id="path1"
         sodipodi:nodetypes="ccczccccccccccccccccccccccccccc" /><path
         d="M36.318,4.271c-0.069-0.05-0.229-0.082-0.362-0.077C36.069,4.227,36.2,4.244,36.318,4.271z"
         id="path2" /></g></g></svg>
