<?xml version="1.0" ?><svg id="Layer_1" style="enable-background:new 0 0 200 200;" version="1.1" viewBox="0 0 200 200" xml:space="preserve" xmlns="http://www.w3.org/2000/svg" xmlns:xlink="http://www.w3.org/1999/xlink"><path d="M134.3,131.7c-3.3-4.7-7.6-8.8-12.8-11.6c-5.1-2.9-10.9-4.5-16.6-5c-0.9-0.1-1.8-0.2-2.6-0.2c1.5-18.7,2.3-37.4,2.3-56.2  V23.2c0-2.8-1.5-5.1-3.3-5.1c-1.8,0-3.3,2.3-3.3,5.1v35.4c0,18.8,0.8,37.5,2.3,56.2c-10.2,0-20.4,3.9-28.2,10.5  c-4.5,3.8-8.2,8.6-10.9,13.9c-1.3,2.7-2.4,5.4-3.2,8.3c-0.4,1.4-0.7,2.9-0.9,4.4c-0.2,1.5-0.4,2.8-0.6,4.2c-0.2,1.5-0.3,3.1-0.4,4.7  l0,1.2l0,0.6l0,0.4c0,0.2,0,0.4,0,0.5l0.1,1.1c0,0.4,0.2,0.7,0.2,1.1c0,0.4,0.2,0.7,0.4,1l0.5,0.9c0.6,0.4,1.1,0.9,1.7,1.2l1,0.4  l1.1,0.2c0.4,0.1,0.7,0.1,1.1,0.1l0.7,0l1.2,0c1.6,0,3.2-0.1,4.7-0.2c1.5-0.1,3.1-0.3,4.2-0.3h4.5H90c-0.1,0.6-0.1,1.1-0.1,1.7  c0,1.6,0.5,2.9,1.1,4.2c1.2,2.6,3.6,4.9,6.4,5.8c2.7,0.9,5.7,0.8,8.3-0.2c2.6-1,5.1-3,6.3-5.7c0.4-0.6,0.4-1.3,0.4-1.9  c0-0.6-0.2-1.2-0.4-1.6c-0.5-0.9-1.3-1.3-2.2-1.3c-0.9,0-1.8,0.4-2.4,0.8c-0.3,0.2-0.6,0.4-0.8,0.6c-0.3,0.2-0.3,0.5-0.5,0.7  c-0.5,1-1.4,1.9-2.6,2.3c-1.2,0.5-2.6,0.5-3.8,0.1c-1.2-0.4-2-1.2-2.5-2.3c-0.1-0.3-0.3-0.6-0.3-0.9c-0.1-0.3-0.1-0.6-0.1-0.8  c0-0.5,0-0.8,0.3-1.4c0,0,0,0,0,0h11.8c0,0.1,0.1,0.3,0.1,0.4c0.1,0.4,0.5,0.6,0.9,0.6c0.4,0,0.8-0.2,0.8-0.7c0-0.1,0-0.2,0-0.2  h20.8c6.4,0,11.6-1.5,11.6-3.3c0.4,0,0.8-0.7,0.8-2.2v0C143.5,152.6,140.9,141.1,134.3,131.7z M141.9,164.6  c-1.7-1.2-5.9-2.1-10.8-2.1H95.4H77.5h-4.5c-1.8,0-3.2,0.2-4.7,0.3c-1.4,0.1-2.9,0.2-4.2,0.2l-1,0l-0.5,0l0-0.7l0-1  c0.1-1.4,0.2-2.8,0.4-4.3c0.2-1.3,0.3-2.7,0.5-3.9c0.2-1.2,0.5-2.5,0.8-3.7c0.6-2.4,1.5-4.8,2.6-7.1c2.2-4.5,5.3-8.7,9.2-12  c7.6-6.7,17.9-10.5,28.3-9.7c5.2,0.3,10.2,1.5,14.8,3.8c4.6,2.3,8.6,5.7,11.9,9.8c6.6,8.2,9.8,19,10.6,29.7v0  C141.8,164,141.9,164.4,141.9,164.6z"/></svg>