<?xml version="1.0" ?><svg id="Layer_1" style="enable-background:new 0 0 200 200;" version="1.1" viewBox="0 0 200 200" xml:space="preserve" xmlns="http://www.w3.org/2000/svg" xmlns:xlink="http://www.w3.org/1999/xlink"><g><path d="M167.8,145.3L167.8,145.3c0.3-17.8,0.6-35.6,0.9-53.5l0.2-13.4l0.1-6.7c0-2,0.3-4.3,0.5-6.5c0.5-4.4,1-8.9,1.3-13.4   c0.1-2.3,0.2-4.6,0.1-6.9c-0.1-1.2-0.1-2.4-0.4-3.7c-0.3-1.3-0.5-2.6-1.7-4.3c-0.4-0.4-0.8-0.9-1.4-1.2c-0.5-0.3-0.9-0.5-1.3-0.7   c-0.8-0.3-1.6-0.6-2.4-0.7c-1.5-0.3-3-0.5-4.5-0.6c-2.9-0.2-5.7-0.2-8.6-0.1c-5.6,0.1-11.2,0.6-16.7,0.9c-2.7,0.2-5.5,0.4-8.1,0.4   l-8.3-0.1L101,34.8l-16.6-0.1l-8.3,0l-2,0l-2-0.1L68,34.2c-5.5-0.5-11.1-1-16.7-1.2c-2.8-0.1-5.7-0.2-8.7,0c-1.5,0.1-3,0.2-4.6,0.6   c-0.8,0.2-1.7,0.4-2.6,0.7c-0.5,0.2-0.9,0.4-1.5,0.8c-0.6,0.3-1.1,0.8-1.6,1.3c-0.5,0.7-0.9,1.3-1.2,1.9c-0.3,0.6-0.5,1.1-0.7,1.7   C30.1,41,29.9,42,29.7,43c-0.3,2-0.5,3.9-0.6,5.9c-0.1,3.8,0,7.5,0.2,11.2c0.4,7.3,1.2,14.6,1.8,21.7c0.1,1.8,0.3,3.5,0.3,5.2   l0,5.3V103l0,21.6v10.8v2.7v1.4l0.1,1.5l0.1,1.5l0.2,1.6c0.1,1,0.4,2.2,0.8,3.3c0.2,0.6,0.5,1.2,0.8,1.7c0.1,0.3,0.3,0.6,0.5,0.9   c-1.4,0.1-2.4,0.4-2.4,0.8v6.1c0,3.4,0.9,6.7,2.6,10.1v0c0.1,0.2,1.7,0.2,1.8,0v0c1.8-3.3,2.6-6.7,2.6-10.1v-3.3   c2.3,0.8,4.4,0.8,6.2,0.8c3.9-0.2,7.4-0.7,10.8-0.8c3.3-0.2,7.1-0.1,10.6-0.1h10.8h21.6H142c9.1,0,16.9-0.7,21.3-1.7v5.2   c0,3.4,0.9,6.7,2.6,10.1v0c0.1,0.2,1.7,0.2,1.8,0v0c1.8-3.3,2.6-6.7,2.6-10.1v-6.1c0-0.5-1.6-0.9-3.5-0.9   C167.3,149.9,167.7,148.4,167.8,145.3z M38.6,86.7c0-2-0.2-3.8-0.3-5.6c-0.1-1-0.2-2-0.3-2.9c1.1,0.4,2.4,0.6,3.8,0.6h47   c25.4,0,50.8-0.9,76.1-2.6l0,2.2l0.2,13.4c0.1,6.6,0.2,13.2,0.3,19.8c-25.5-1.7-51-2.6-76.6-2.6h-47c-1.2,0-2.2,0.2-3.2,0.4V103   l0-10.8L38.6,86.7z M36.2,49.1c0.1-1.7,0.2-3.4,0.5-4.9c0.1-0.8,0.3-1.5,0.5-2.1c0.1-0.3,0.2-0.6,0.3-0.8c0.1-0.2,0.3-0.4,0.2-0.4   c0,0,0,0,0,0c0,0,0.2-0.1,0.3-0.2c0.4-0.1,0.9-0.3,1.4-0.4c1.1-0.2,2.3-0.4,3.6-0.4c2.6-0.2,5.3-0.1,8,0c5.4,0.2,10.9,0.7,16.5,1.1   l4.2,0.3l2.2,0.1l2.2,0l8.3,0l16.6-0.1l16.6-0.1l8.3-0.1c2.9-0.1,5.7-0.4,8.5-0.6c5.5-0.5,11-1,16.4-1.3c2.7-0.1,5.4-0.2,8,0   c1.3,0.1,2.6,0.2,3.8,0.4c1.2,0.2,2.2,0.7,2.3,0.8c0.1,0.1,0.5,1,0.7,1.9c0.2,0.9,0.3,2,0.4,3c0.1,2.1,0.1,4.3,0,6.5   c-0.2,4.4-0.5,8.8-0.9,13.3c-0.2,2.2-0.4,4.4-0.4,6.9l0,2.6c-25.3-1.7-50.6-2.6-76-2.6h-47c-1.7,0-3.1,0.3-4.3,0.8   c-0.4-4.3-0.8-8.7-1.1-13C36.2,56.1,36,52.6,36.2,49.1z M98.8,146.4H77.1H66.3c-3.6,0-7.1-0.1-11,0.1c-3.7,0.2-7.5,0.7-10.7,0.8   c-1.6,0.1-3-0.1-3.8-0.4c-0.1,0-0.2-0.1-0.3-0.1c-0.1,0-0.1-0.1-0.2-0.2c-0.1,0-0.1-0.1-0.2-0.1c-0.1-0.1-0.1-0.2-0.2-0.2   c-0.1-0.1-0.3-0.2-0.3-0.5c-0.1-0.3-0.2-0.4-0.3-0.7c-0.8-2.4-0.7-5.9-0.7-9.6l0-10.8v-8.9c1,0.3,2,0.4,3.2,0.4h47   c25.6,0,51.2-0.9,76.7-2.6c0.2,10.6,0.4,21.2,0.5,31.8v0c0,1.9,0.2,3.2,0.4,4c-2.2-1.6-12.3-2.9-24.4-2.9H98.8z"/><path d="M91.1,59.2c0.1,0.4,0.2,0.8,0.3,1.1c0.2,0.8,0.6,1.5,1,2.1c1.1,1.6,2.7,2.9,4.4,3.6c1.7,0.7,3.5,0.9,5.3,0.7   c1.8-0.2,3.6-0.8,5.1-2c1.5-1.2,2.8-2.9,3.3-4.7c0.3-0.9,0-1.7-0.6-2.3c-0.6-0.6-1.5-0.8-2.4-0.8c-1,0-1.9,0.2-2.6,0.4   c-0.7,0.2-1,0.4-1.2,0.6c-0.1,0.5-0.4,0.8-0.8,1.2c-0.4,0.3-1,0.5-1.6,0.6c-1.3,0.2-2.6-0.4-3-1.1c-0.1-0.2-0.2-0.3-0.3-0.5   c0-0.1-0.1-0.2-0.1-0.3c0-0.1,0-0.3,0-0.4c0-0.1,0-0.3-0.1-0.4c0-0.1,0-0.3,0-0.4c0-0.1,0-0.3,0-0.4c0-0.1,0.1-0.2,0.1-0.3   c0.2-0.8,0.6-1.7,1.7-2.2c2.2-1.1,5.8-0.7,6.9,2.9v0c0.1,0.2,0.5,0.3,0.9,0.3c0.4,0,0.8-0.1,0.9-0.4c0.2-1.1,0.1-2.4-0.4-3.5   l-0.4-0.9c-0.2-0.3-0.4-0.5-0.5-0.8c-0.4-0.6-0.9-1-1.4-1.4c-2.1-1.7-4.9-2.3-7.6-1.7c-0.7,0.1-1.4,0.4-2,0.7   c-0.6,0.3-1.3,0.7-1.9,1.2c-0.6,0.5-1.2,1-1.6,1.7c-0.2,0.3-0.4,0.7-0.6,1c-0.2,0.3-0.3,0.7-0.4,1.1c-0.1,0.4-0.3,0.7-0.4,1.1   L91,55.9c0,0.4-0.1,0.7-0.1,1.1l0.1,1.1C91,58.4,91,58.8,91.1,59.2z"/><path d="M91.1,96.2c0.1,0.4,0.2,0.8,0.3,1.1c0.2,0.8,0.6,1.5,1,2.1c1.1,1.6,2.7,2.9,4.4,3.6c1.7,0.7,3.5,0.9,5.3,0.7   c1.8-0.2,3.6-0.8,5.1-2c1.5-1.2,2.8-2.9,3.3-4.7c0.3-0.9,0-1.7-0.6-2.3c-0.6-0.6-1.5-0.8-2.4-0.8c-1,0-1.9,0.2-2.6,0.4   c-0.7,0.2-1,0.4-1.2,0.6c-0.1,0.5-0.4,0.8-0.8,1.2c-0.4,0.3-1,0.5-1.6,0.6c-1.3,0.2-2.6-0.4-3-1.1c-0.1-0.2-0.2-0.3-0.3-0.5   c0-0.1-0.1-0.2-0.1-0.3c0-0.1,0-0.3,0-0.4c0-0.1,0-0.3-0.1-0.4c0-0.1,0-0.3,0-0.4c0-0.1,0-0.3,0-0.4c0-0.1,0.1-0.2,0.1-0.3   c0.2-0.8,0.6-1.7,1.7-2.2c2.2-1.1,5.8-0.7,6.9,2.9c0.1,0.2,0.5,0.3,0.9,0.3c0.4,0,0.8-0.1,0.9-0.4v0c0.2-1.1,0.1-2.4-0.4-3.5   l-0.4-0.9c-0.2-0.3-0.4-0.5-0.5-0.8c-0.4-0.6-0.9-1-1.4-1.4c-2.1-1.7-4.9-2.3-7.6-1.7c-0.7,0.1-1.4,0.4-2,0.7   c-0.6,0.3-1.3,0.7-1.9,1.2c-0.6,0.5-1.2,1-1.6,1.7c-0.2,0.3-0.4,0.7-0.6,1c-0.2,0.3-0.3,0.7-0.4,1.1c-0.1,0.4-0.3,0.7-0.4,1.1   L91,92.9c0,0.4-0.1,0.7-0.1,1.1l0.1,1.1C91,95.5,91,95.8,91.1,96.2z"/><path d="M107.5,132c-1,0-1.9,0.2-2.6,0.4c-0.7,0.2-1,0.4-1.2,0.6c-0.1,0.5-0.4,0.8-0.8,1.2c-0.4,0.3-1,0.5-1.6,0.6   c-1.3,0.2-2.6-0.4-3-1.1c-0.1-0.2-0.2-0.3-0.3-0.5c0-0.1-0.1-0.2-0.1-0.3c0-0.1,0-0.3,0-0.4c0-0.1,0-0.3-0.1-0.4c0-0.1,0-0.3,0-0.4   c0-0.1,0-0.3,0-0.4c0-0.1,0.1-0.2,0.1-0.3c0.2-0.8,0.6-1.7,1.7-2.2c2.2-1.1,5.8-0.7,6.9,2.9C106.7,131.9,107.1,132,107.5,132   c0.4,0,0.8-0.1,0.9-0.4c0.2-1.1,0.1-2.4-0.4-3.5l-0.4-0.9c-0.2-0.3-0.4-0.5-0.5-0.8c-0.4-0.6-0.9-1-1.4-1.4   c-2.1-1.7-4.9-2.3-7.6-1.7c-0.7,0.1-1.4,0.4-2,0.7c-0.6,0.3-1.3,0.7-1.9,1.2c-0.6,0.5-1.2,1-1.6,1.7c-0.2,0.3-0.4,0.7-0.6,1   c-0.2,0.3-0.3,0.7-0.4,1.1c-0.1,0.4-0.3,0.7-0.4,1.1L91,131c0,0.4-0.1,0.7-0.1,1.1l0.1,1.1c0,0.4,0.1,0.7,0.1,1.1   c0.1,0.4,0.2,0.8,0.3,1.1c0.2,0.8,0.6,1.5,1,2.1c1.1,1.6,2.7,2.9,4.4,3.6c1.7,0.7,3.5,0.9,5.3,0.7c1.8-0.2,3.6-0.8,5.1-2   c1.5-1.2,2.8-2.9,3.3-4.7c0.3-0.9,0-1.7-0.6-2.3C109.4,132.3,108.5,132,107.5,132z"/></g></svg>