<?xml version="1.0" encoding="UTF-8" standalone="no"?>
<!-- Created with Inkscape (http://www.inkscape.org/) -->

<svg
    viewBox="0 0 205.87198 3.1314034"
   width="205.87198mm"
   height="5px"
   preserveAspectRatio="none"
   version="1.1"
   id="svg1"
   inkscape:version="1.3.2 (091e20ef0f, 2023-11-25)"
   sodipodi:docname="LineMaskSmall.svg"
   xmlns:inkscape="http://www.inkscape.org/namespaces/inkscape"
   xmlns:sodipodi="http://sodipodi.sourceforge.net/DTD/sodipodi-0.dtd"
   xmlns="http://www.w3.org/2000/svg"
   xmlns:svg="http://www.w3.org/2000/svg">
  <sodipodi:namedview
     id="namedview1"
     pagecolor="#505050"
     bordercolor="#eeeeee"
     borderopacity="1"
     inkscape:showpageshadow="0"
     inkscape:pageopacity="0"
     inkscape:pagecheckerboard="0"
     inkscape:deskcolor="#505050"
     inkscape:document-units="mm"
     inkscape:zoom="2"
     inkscape:cx="-12.25"
     inkscape:cy="27.25"
     inkscape:window-width="1920"
     inkscape:window-height="1163"
     inkscape:window-x="0"
     inkscape:window-y="0"
     inkscape:window-maximized="1"
     inkscape:current-layer="layer1" />
  <defs
     id="defs1" />
  <g
     inkscape:label="Layer 1"
     inkscape:groupmode="layer"
     id="layer1"
     transform="translate(-1.9646684,-139.50349)">
    <path
       style="fill:#0c0f12ff;stroke-width:0.253362"
       d="m 1.9646684,141.61684 c 0.742007,-0.41613 -0.016945,-2.02972 0.2458814,-2.04321 0.3921023,-0.0699 198.2862802,-0.15593 205.3698102,0.11874 0.45145,0.0175 0.25629,0.43146 0.25629,1.25222 0,0.42153 -10.50342,0.54869 -28.9099,-0.0128 -6.26462,-0.19109 -10.6313,0.0364 -14.1703,0.0508 -15.46783,0.26979 -15.86466,0.5852 -28.62131,0.2573 -8.03282,-0.20647 -16.83019,-0.35014 -24.29549,-0.42256 -10.74995,-0.10428 -12.141366,0.24666 -16.211861,-0.0704 -6.086686,-0.47414 -8.481669,-0.65328 -13.774746,0.12363 -6.398119,0.93911 -8.5754,1.02302 -12.995649,0.50089 -4.758343,-0.56208 -8.134126,-0.42152 -8.771548,0.36521 -0.522765,0.64522 -1.30451,0.36414 -5.556362,-0.27123 -4.091177,-0.61136 -6.080065,-0.88313 -8.880026,-0.34544 -2.147516,0.41244 -4.172772,0.40429 -13.139485,-0.0528 -2.820896,-0.14383 -3.596235,-0.0826 -7.094143,0.56064 -3.937013,0.72395 -24.57189362,0.65039 -23.3933966,-0.0105 z"
       id="path1-0"
       sodipodi:nodetypes="csssscsssssssccccc" />
  </g>
</svg>
