<?xml version="1.0" ?><svg id="Layer_1" style="enable-background:new 0 0 200 200;" version="1.1" viewBox="0 0 200 200" xml:space="preserve" xmlns="http://www.w3.org/2000/svg" xmlns:xlink="http://www.w3.org/1999/xlink"><g><path d="M175.3,51.7l-0.3-1c-0.1-0.4-0.4-0.8-0.6-1.1c-0.5-0.7-1.1-1.3-1.7-1.7c-0.6-0.5-1.3-0.7-1.9-1c-0.6-0.2-1.3-0.4-1.9-0.5   c-2.5-0.5-4.9-0.6-7.3-0.6c-2.4,0-4.7,0.1-7,0.2c-2.3,0.1-4.4,0.1-6.8,0l-13.9-0.2c-9.3-0.1-18.5-0.2-27.8-0.4   c-18.5-0.2-37.1-0.3-55.6-0.5c-1.1,0-2.4,0-3.4,0l-3.4-0.2c-2.3-0.2-4.7-0.3-7.2-0.3c-1.3,0-2.5,0.1-4,0.3c-0.3,0-0.7,0.1-1.1,0.2   c-0.4,0.1-0.7,0.2-1.2,0.3c-0.4,0.2-0.9,0.3-1.4,0.7c-0.5,0.3-1,0.6-1.4,1c-0.4,0.4-0.8,0.8-1,1.4c-0.3,0.5-0.5,1.1-0.6,1.4   c-0.2,0.7-0.4,1.4-0.5,2.1c-0.3,1.3-0.4,2.5-0.6,3.7c-0.5,4.8-0.7,9.5-0.7,14.3c0,4.7,0.1,9.4,0.4,14.2c0.2,2.9,0.4,5.7,1.1,8.9   c0.2,0.8,0.3,1.6,0.8,2.8c0.2,0.6,0.7,1.2,1.1,1.7c0.4,0.5,0.9,0.8,1.3,1.2c1.8,1.2,3.4,1.8,5,2.3c2.5,0.7,4.9,1,7.3,1.3v19   c0,11.4,0.9,22.7,2.5,34h0c0.1,0.7,1.6,0.7,1.8,0c1.7-11.3,2.5-22.7,2.5-34v-18.6c1.2,0,2.4,0.1,3.6,0.1   c11.5,0.1,22.9-0.7,34.2-1.4c2.8-0.2,5.6-0.4,8.4-0.5c1.3,0,2.7,0,4.1,0h4.2h17h33.9c0.4,0,0.8,0,1.1,0V121c0,11.4,0.9,22.7,2.5,34   c0.1,0.7,1.6,0.7,1.8,0c1.7-11.3,2.5-22.7,2.5-34v-20.7c6.8-0.5,11.5-1.7,11.5-3.1c0.4,0,0.8-1.2,0.9-3.6v0l0.3-13.8l0.1-3.5   c0-1.1,0.2-2.2,0.3-3.3l0.8-6.9c0.2-2.3,0.4-4.6,0.5-7C175.8,56.7,175.9,54.4,175.3,51.7z M119.5,93.8h-17h-4.2c-1.4,0-2.8,0-4.3,0   c-2.9,0.1-5.7,0.3-8.6,0.5c-11.3,0.7-22.5,1.5-33.6,1.4c-2.8,0-5.5-0.1-8.2-0.4c-2.7-0.2-5.4-0.6-7.7-1.2c-1.1-0.3-2.2-0.8-2.8-1.2   c-0.1-0.1-0.2-0.2-0.3-0.2c0,0,0,0,0,0c0,0-0.6,0.3,0,0c-0.1-0.1-0.2-0.8-0.4-1.3c-0.5-2.4-0.7-5.2-0.9-8   c-0.3-4.5-0.4-9.1-0.4-13.7c0-4.5,0.1-9.1,0.6-13.5c0.1-1.1,0.3-2.2,0.5-3.1c0.1-0.5,0.2-0.9,0.3-1.3c0.1-0.2,0-0.2,0.1-0.2l0,0   c0,0-0.1,0,0.2-0.1c0.1-0.1,0.3-0.1,0.5-0.1c0.2,0,0.4-0.1,0.6-0.1c0.9-0.2,1.9-0.2,3-0.2c2.1,0,4.4,0.1,6.7,0.2   c1.2,0.1,2.3,0.2,3.6,0.2c1.4,0,2.4,0,3.6,0c18.5-0.2,37.1-0.3,55.6-0.5c9.3-0.1,18.5-0.2,27.8-0.4l13.9-0.2c2.3,0,4.7-0.1,7.1-0.3   c2.3-0.2,4.6-0.4,6.8-0.5c2.2-0.1,4.5-0.1,6.5,0.3c0.5,0.1,1,0.2,1.4,0.3c0.4,0.2,0.9,0.3,1.1,0.5c0.2,0.1,0.3,0.2,0.4,0.3   c0.1,0.1,0.3,0.2,0.3,0.4c0.1,0.1,0.2,0.3,0.2,0.4l0.2,0.6c0.5,1.8,0.6,4.2,0.6,6.4c0,2.3-0.1,4.5-0.3,6.8l-0.5,6.9   c-0.1,1.2-0.2,2.3-0.1,3.6l0.1,3.5l0.3,13.8v0c0,1.3,0.2,2.3,0.3,2.9c-2-1.5-9.7-2.6-18.9-2.6H119.5z"/><path d="M108.3,72.7c-0.9,0-1.8,0.2-2.5,0.4c-0.7,0.2-1,0.5-1.1,0.7c-0.1,0.6-0.5,1-1,1.4c-0.4,0.4-1.2,0.6-1.9,0.7   c-1.5,0.2-3-0.5-3.6-1.4c-0.5-0.7-0.7-2.1-0.4-3.1c0.1-0.5,0.4-0.9,0.7-1.4c0.4-0.4,0.9-0.8,1.5-1.1c2.5-1.2,6.4-0.6,7.4,3.3   c0.2,0.5,1.7,0.5,1.8-0.1v0c0.1-1.2,0.1-2.4-0.4-3.7l-0.4-0.9c-0.2-0.3-0.4-0.6-0.6-0.8c-0.4-0.6-0.9-1-1.4-1.5   c-2.2-1.7-5.1-2.2-7.9-1.7c-1.4,0.3-2.8,0.9-4,1.9c-1.2,1-2.3,2.3-2.8,3.8c-0.1,0.4-0.3,0.8-0.4,1.1c-0.1,0.4-0.1,0.8-0.2,1.1   l-0.1,1.1l0.1,1.1c0,0.4,0.1,0.8,0.1,1.1c0.1,0.4,0.2,0.8,0.3,1.2c0.2,0.8,0.6,1.5,1.1,2.2c1.1,1.7,2.8,3,4.5,3.6   c1.8,0.7,3.6,1,5.4,0.7c1.8-0.2,3.6-0.8,5.2-2c1.6-1.1,2.9-2.9,3.4-4.8c0.3-0.9,0-1.8-0.6-2.4C110.1,73,109.2,72.7,108.3,72.7z"/></g></svg>