<?xml version="1.0" ?><svg style="enable-background:new 0 0 180.929 199.321;" version="1.1" viewBox="0 0 180.929 199.321" xml:space="preserve" xmlns="http://www.w3.org/2000/svg" xmlns:xlink="http://www.w3.org/1999/xlink"><g id="cupboard"><path d="M180.859,100.561c-0.046-15.959-0.369-31.905-0.836-47.857c-0.234-7.972-0.388-15.959-0.837-23.922   c-0.435-7.721-0.342-15.895-2.126-23.443c-0.054-0.229-0.152-0.43-0.281-0.605c-0.031-0.047-0.078-0.086-0.115-0.13   c-0.046-0.051-0.094-0.1-0.146-0.146c-0.217-0.21-0.478-0.393-0.834-0.495c-6.287-1.804-14.377-0.243-20.923-0.245   c-7.387-0.003-14.778-0.137-22.159-0.422c-14.339-0.553-28.662-1.485-42.996-2.139C75.374,0.51,61.001-0.279,46.753,0.098   C39.739,0.284,32.72,0.721,25.735,1.39c-7.022,0.673-15.052,1.036-21.66,3.571C3.783,5.073,3.541,5.235,3.34,5.426   C2.428,5.239,1.265,5.798,1.338,6.904C3.175,34.858,2.29,62.921,1.88,90.905c-0.408,27.879-1.067,55.755-1.643,83.631   c-0.145,7.02-0.744,14.862,0.782,21.791c0.467,2.122,2.432,2.609,4.016,2.002c0.19,0.101,0.384,0.182,0.571,0.226   c2.946,0.699,5.438,0.911,8.47,0.67c1.647-0.131,2.91-1.257,2.971-2.972c0.136-3.768,0.211-7.524,0.491-11.286   c0.207-2.774,0.572-5.494,0.248-8.221c8.626,0.419,17.343,0.244,25.923,0.358c14.606,0.193,29.209,0.239,43.817,0.28   c25.419,0.072,50.829,0.315,76.234,1.046c-0.611,5.946-1.229,11.911-1.389,17.884c-0.039,1.45,1.376,3.097,2.922,2.922   c2.676-0.304,5.264-0.84,7.958-0.713c1.187,0.056,2.766,0.088,3.601-0.779c0.313,0.183,0.785,0.028,0.848-0.46   c2.042-15.76,2.728-31.971,3.03-47.861C181.041,133.145,180.906,116.842,180.859,100.561z M96.251,172.364   c0.239-9.674-0.877-19.559-1.234-29.225c-0.18-4.884-0.347-9.768-0.575-14.65c-0.117-2.516-0.601-5.309-0.372-7.813   c0.036-0.392,0.106-0.767,0.187-1.138c12.453,0.167,24.888,0.475,37.353,0.459c2.232-0.003,4.46,0.023,6.686,0.061   c0.554,0.284,1.209,0.316,1.743,0.035c4.229,0.089,8.452,0.23,12.672,0.399c0.497,0.18,1.035,0.221,1.525,0.061   c6.77,0.279,13.54,0.598,20.342,0.81c0.087,9.02,0.132,18.041,0.136,27.062c0.003,7.958,0.223,15.979,0.534,23.932   c0.01,0.241,0.019,0.485,0.028,0.726c-0.04-0.001-0.074-0.011-0.115-0.011C148.852,173.295,122.553,172.94,96.251,172.364z    M7.803,64.236c27.958-0.19,55.913-0.262,83.863,0.547c27.304,0.79,54.815,1.556,82.045,3.924   c0.202,10.618,0.39,21.236,0.585,31.854c0.093,5.067,0.163,10.135,0.223,15.202c-5.913,0.023-11.806,0.126-17.696,0.214   c0.349-2.611-0.282-5.479-0.274-8.25c0.015-5.027,0.272-10.034-0.043-15.06c-0.164-2.619,0.393-8.889-1.791-10.663   c-1.288-1.046-4.981-0.87-6.595-1.183c-10.244-1.987-21.604-0.35-31.938,0.095c-11.678,0.502-22.823,2.095-34.402-0.547   c-1.22-0.279-2.262,0.552-2.337,1.78c-0.658,10.817-2.892,21.891-2.563,32.772c-10.128-0.432-20.241-1.048-30.387-1.246   c-7.257-0.142-14.516-0.35-21.775-0.341c-5.512,0.007-11.344-0.473-16.916,0.014C8.062,96.977,8.155,80.602,7.803,64.236z    M23.906,38.5c14.818-0.337,29.571-0.524,44.365-1.518c-0.097,3.379-0.216,6.757-0.271,10.135   c-7.905-0.849-15.75-1.552-23.745-1.27c-4.287,0.152-8.519,0.504-12.768,1.089c-2.384,0.328-4.955,0.335-7.153,1.123   C24.261,44.869,24.127,41.681,23.906,38.5z M24.403,52.708c2.391,0.228,4.864-0.555,7.412-0.86   c4.451-0.532,8.927-1.03,13.394-1.399c7.562-0.626,15.176-1.166,22.769-1.04c-0.02,3.147,0.042,6.294,0.243,9.439   c-14.606-0.171-29.214-0.204-43.819-0.016C24.415,56.791,24.417,54.75,24.403,52.708z M94.494,86.244   c4.807,0.399,9.652,0.414,14.436,0.123c0.019-0.001,0.038-0.003,0.057-0.004c-2.173,9.313-2.532,19.697-2.353,29.175   c-3.723-0.038-7.448-0.084-11.173-0.133C96.031,105.836,95.018,95.854,94.494,86.244z M112.048,86.134   c3.973-0.329,7.924-0.789,11.878-1.197c-0.542,5.683-0.799,11.365-1.066,17.072c-0.184,3.931-1.359,9.591-0.22,13.745   c-3.66-0.066-7.32-0.119-10.979-0.16C112.187,106.034,113.071,95.68,112.048,86.134z M127.835,102.008   c0.056-5.826,0.121-11.618-0.16-17.433c3.562-0.316,7.137-0.515,10.74-0.487c-0.269,5.429-0.108,10.884-0.381,16.318   c-0.258,5.127-1.176,10.484-1.021,15.658c-1.799-0.024-3.6-0.061-5.402-0.112c-1.427-0.041-2.854-0.062-4.28-0.095   C128.695,111.744,127.797,105.973,127.835,102.008z M142.279,84.284c2.833,0.336,5.573,0.995,8.418,1.176   c0.437,0.028,1.373-0.204,1.753,0.004c0.188,0.103-0.299-0.174-0.523,1.03c-0.461,2.481-0.275,5.327-0.571,7.877   c-0.518,4.46-1.201,8.873-1.514,13.357c-0.181,2.59-0.736,5.689-0.22,8.34c-2.684,0.026-5.369,0.038-8.057,0.03   c0.889-4.854,0.824-10.037,0.961-14.892C142.685,95.597,142.822,89.886,142.279,84.284z M83.026,84.463   c2.878,0.667,5.796,1.168,8.74,1.507c-0.518,9.673-1.551,19.729-0.985,29.368c-0.577-0.01-1.153-0.014-1.729-0.024   c-2.484-0.045-4.965-0.122-7.445-0.209C83.07,105.046,82.622,94.613,83.026,84.463z M26.693,6.672   c6.994-0.623,13.998-0.943,21.014-1.166C62.032,5.05,76.24,5.133,90.559,5.796c14.017,0.649,28.024,1.503,42.044,2.095   c7.062,0.298,14.124,0.586,21.192,0.702c5.767,0.095,13.124,1.126,19.094-0.066c-0.573,6.365-0.131,12.908-0.072,19.258   c0.075,7.975,0.377,15.949,0.555,23.922c0.081,3.622,0.144,7.245,0.216,10.868c-27.315-1.085-54.574-2.814-81.923-3.355   c-5.595-0.111-11.191-0.204-16.787-0.284c-1.122-8.259-1.001-16.551-1.077-24.869c-0.012-1.359-1.245-2.884-2.727-2.727   c-16.181,1.713-32.499,3.554-48.762,4.21c-0.859,0.035-1.421,0.659-1.492,1.492c-0.623,7.262-0.746,14.564-0.752,21.852   c-4.128,0.066-8.255,0.147-12.382,0.253C7.593,55.788,7.49,52.43,7.354,49.072C6.812,35.652,6.351,22.248,4.678,8.919   C11.899,9.088,19.475,7.315,26.693,6.672z M11.117,193.484c-1.306,0.016-2.584-0.078-4.014-0.357   c-0.063-0.012-0.127-0.016-0.191-0.025c-0.003-0.06-0.005-0.106-0.009-0.174c-0.08-1.44-0.114-2.882-0.134-4.324   c-0.053-3.896,0.046-7.791,0.043-11.686c0-0.366,0.004-0.732,0.004-1.098c2.236,0.286,4.486,0.501,6.744,0.668   C11.398,181.394,11.156,187.999,11.117,193.484z M43.71,171.292c-12.235-0.161-24.716-0.907-36.88,0.324   c0.044-10.274,0.222-20.543,0.44-30.817c0.153-7.193,0.305-14.388,0.435-21.585c5.586,0.65,11.472,0.31,17.011,0.469   c7.255,0.208,14.517,0.198,21.775,0.256c14.201,0.112,28.357-0.603,42.56-0.471c0.347,0.003,0.694,0.01,1.041,0.014   c-0.164,1.675-0.05,3.418-0.039,5.1c0.034,5.535,0.11,11.069,0.204,16.603c0.173,10.265-0.436,20.812,0.362,31.052   c-1.031-0.024-2.061-0.045-3.091-0.07C72.921,171.824,58.319,171.485,43.71,171.292z M168.454,193.123   c0.334-4.833,0.443-9.685,0.532-14.528c2.058,0.065,4.116,0.125,6.175,0.197c0.119,0.004,0.223-0.014,0.334-0.023   c0.199,5.096,0.446,10.209,0.832,15.284C174.591,192.861,171.137,192.921,168.454,193.123z" id="XMLID_52_"/><path d="M104.406,131.576c-1.021,6.522-1.103,13.425-0.961,20.022c0.079,3.679,5.639,3.685,5.719,0   c0.142-6.596,0.059-13.504-0.961-20.022C107.909,129.697,104.701,129.696,104.406,131.576z" id="XMLID_80_"/><path d="M75.325,131.576c-1.021,6.522-1.103,13.425-0.961,20.022c0.079,3.679,5.639,3.685,5.719,0   c0.142-6.596,0.059-13.504-0.961-20.022C78.828,129.697,75.619,129.696,75.325,131.576z" id="XMLID_81_"/></g><g id="Layer_1"/></svg>