<?xml version="1.0" encoding="UTF-8" standalone="no"?>
<!-- Created with Inkscape (http://www.inkscape.org/) -->

<svg
   width="141.64854mm"
   height="72.242683mm"
   viewBox="0 0 141.64854 72.242683"
   version="1.1"
   id="svg1"
   sodipodi:docname="SchnitzStück Logo copy.svg"
   inkscape:version="1.3.2 (091e20ef0f, 2023-11-25)"
   xmlns:inkscape="http://www.inkscape.org/namespaces/inkscape"
   xmlns:sodipodi="http://sodipodi.sourceforge.net/DTD/sodipodi-0.dtd"
   xmlns="http://www.w3.org/2000/svg"
   xmlns:svg="http://www.w3.org/2000/svg">
  <sodipodi:namedview
     id="namedview1"
     pagecolor="#505050"
     bordercolor="#eeeeee"
     borderopacity="1"
     inkscape:showpageshadow="0"
     inkscape:pageopacity="0"
     inkscape:pagecheckerboard="0"
     inkscape:deskcolor="#505050"
     inkscape:document-units="mm"
     inkscape:zoom="1.2529497"
     inkscape:cx="187.95647"
     inkscape:cy="189.5527"
     inkscape:window-width="1920"
     inkscape:window-height="1163"
     inkscape:window-x="0"
     inkscape:window-y="0"
     inkscape:window-maximized="1"
     inkscape:current-layer="layer1" />
  <defs
     id="defs1" />
  <g
     inkscape:label="Layer 1"
     inkscape:groupmode="layer"
     id="layer1"
     transform="translate(-51.223095,-66.41675)">
    <path
       style="font-size:45.8611px;font-family:'Stay Classy SLDT';-inkscape-font-specification:'Stay Classy SLDT';display:inline;fill:#ffffff;stroke-width:0.264583;fill-opacity:1"
       d="m 68.680097,67.778831 c 2.172132,0 4.411443,0.71658 4.948878,3.918795 l 0.04479,0.671793 c 0,0.291111 0,0.671794 0.02239,1.007691 l 0.111966,1.254014 c 0.694186,-0.559828 0.918118,-2.552815 0.962904,-2.978284 -0.111966,-3.918795 -3.605292,-4.881699 -6.046141,-4.881699 -4.299478,0 -12.876041,3.135036 -13.413476,10.323226 v 0.08957 c 0,0.04479 -0.02239,0.08957 -0.02239,0.134359 0,4.635375 3.762043,9.002032 7.076224,12.764075 2.194525,2.508029 4.433837,5.105631 6.046141,8.039129 -6.449217,1.545124 -15.943898,6.5164 -16.884408,15.49604 0,1.36598 0.08957,2.21692 0.604614,3.247 1.388373,2.19452 3.717257,2.9335 5.710244,2.97828 4.030761,0 8.106308,-2.44085 10.659123,-6.04614 1.992987,-3.22461 2.687173,-6.60597 2.687173,-10.09929 0,-1.9482 -0.403076,-3.69487 -1.254014,-5.463925 0.873331,-0.134359 3.605291,-0.71658 3.605291,-0.761366 0,-0.156752 -0.358289,-0.268717 -0.447862,-0.268717 -0.985297,0 -2.239311,0.447862 -3.38136,0.6494 C 66.933434,92.456043 61.984555,88.40289 58.71516,83.409225 v 0.02239 c -1.254014,-2.082559 -2.037773,-3.806829 -2.037773,-6.135713 0,-6.47161 7.636052,-9.517074 12.00271,-9.517074 z m -0.02239,30.76814 h -0.02239 c 0.828546,1.634699 1.254015,3.291789 1.254015,5.396739 0,7.27776 -3.224609,12.49536 -8.755708,14.48835 -1.030083,0.38068 -2.127346,0.55982 -3.247002,0.58222 -3.02307,-0.20154 -4.971271,-2.03778 -5.217596,-4.47863 0.246325,-8.91245 9.763399,-14.35398 15.966291,-16.033465 z m 14.37638,-1.119656 v -0.156752 c 0,-1.477945 -0.962904,-2.619994 -2.440849,-2.709567 -2.978285,0.425469 -5.195203,5.687854 -5.441527,9.158784 l 0.04479,0.69419 c 0.179145,2.61999 1.388373,3.82922 3.179822,3.87401 2.328884,-0.22394 5.195203,-2.08256 7.031438,-3.71726 0.35829,-0.3359 4.747341,-4.612983 4.747341,-5.755032 0,-0.02239 0,-0.06718 -0.111966,-0.29111 -0.223931,0.156751 -2.642387,2.440852 -3.941188,3.829222 l -1.298801,1.27641 c -1.746663,1.41076 -4.299478,3.20221 -6.47161,3.26939 -1.276407,-0.0224 -2.01538,-0.76136 -2.01538,-3.13503 0.08957,-2.62 1.992987,-7.344945 4.366657,-7.658449 0.850938,0.04479 1.052477,0.873332 1.142049,1.43316 v -0.02239 l 0.04479,0.380683 c 0.06718,0.515042 0.223931,1.254015 0.403076,1.522732 0.559828,-0.06718 0.738973,-1.522732 0.761366,-1.992987 z m 12.60732,-1.186835 c 0.04479,0.425469 0.04479,0.828545 0.04479,1.254014 0,1.030084 -0.06718,2.08256 -0.111966,3.067856 l -0.04479,0.89573 c 0,1.07487 -0.134359,2.14973 -0.134359,3.2246 0,1.6347 0.04479,4.45623 1.321194,5.39674 h -0.02239 c 0.06718,0.0672 0.223931,0.0896 0.335896,0.0896 0,-0.0896 -0.02239,-0.26872 -0.111965,-0.35829 v 0.0224 c -0.850938,-1.05248 -0.828545,-2.84392 -0.828545,-4.05315 0,-1.36598 0.111965,-2.86632 0.223931,-4.20991 l 0.06718,-0.76136 c 0.111966,-1.231626 0.201538,-2.642392 0.201538,-3.896407 0,-1.254014 -0.156752,-3.157429 -1.36598,-3.157429 -0.08957,0 -0.380683,0.06718 -0.492648,0.156752 l 0.02239,-0.04479 c -1.186835,0.515041 -2.060167,2.866318 -2.575208,4.187512 -0.738973,1.881022 -1.343587,3.941192 -1.881022,6.001362 -0.06718,0 -0.06718,-0.0448 -0.08957,-0.0448 0.201538,-5.710248 0.42547,-11.711602 0.918118,-17.489026 0.380683,-4.545802 1.343587,-13.346296 3.605292,-17.018767 l 0.246324,-0.313504 v 0.02239 c 0.08957,-0.08957 0.268717,-0.403076 0.380683,-0.604614 -0.04479,-0.134359 -0.223931,-0.179145 -0.335897,-0.179145 -1.925808,0 -2.978284,3.582899 -3.403753,5.46392 -0.850939,3.762044 -1.343587,8.352632 -1.72427,12.405786 -0.470256,6.717934 -0.783759,15.51843 -0.940511,22.34833 0,0.22393 0.179145,0.76136 0.627007,0.76136 0.313504,0 0.425469,-0.0896 0.515042,-0.42547 0.761366,-2.5976 1.433159,-5.28477 2.284098,-7.97195 0.380683,-1.186829 1.724269,-5.956562 2.955891,-6.068528 0.246324,0.35829 0.29111,0.985297 0.313503,1.298801 z m 10.099293,9.65143 c 0.0448,-1.32119 0.20154,-2.70956 0.3359,-4.03076 0,-0.0896 0.0448,-0.22393 0.0448,-0.3135 l 0.0224,-0.3359 c 0,-0.11196 0.0448,-0.26872 0.0448,-0.38068 0.15675,-1.276409 0.26871,-2.597603 0.26871,-3.896404 0,-1.455552 -0.3135,-2.978284 -1.54512,-3.135036 h -0.17915 c -1.63469,0 -2.97828,3.762044 -3.60529,5.575886 l -0.89572,3.045464 c -0.0224,0 -0.0896,-0.0224 -0.11197,-0.0224 0.0672,-1.16445 0.13436,-2.26171 0.22393,-3.448543 l 0.3359,-4.657768 c 0.0224,-0.134359 0.0224,-0.380683 0.0224,-0.627007 0,-0.582221 -0.11196,-1.36598 -0.55982,-1.36598 -0.694191,0 -0.783764,2.104952 -0.806157,2.821532 v 0.201538 c -0.268717,3.874009 -0.537435,7.703228 -0.559828,11.577238 0,0.44786 0.223931,0.78376 0.604614,0.78376 0.246324,0 0.470256,-0.17914 0.582221,-0.44786 v 0.0224 c 0.40308,-1.09726 0.82855,-2.61999 1.27641,-4.07554 l 0.15675,-0.55983 c 0.29111,-0.91812 0.55983,-1.90342 0.82854,-2.731962 0.35829,-1.142049 1.54513,-4.724948 2.53043,-4.769734 0.627,0.08957 0.69418,1.231621 0.69418,1.948201 0,1.209228 -0.0224,2.396063 -0.15675,3.538115 0,1.34358 -0.26872,3.04546 -0.26872,4.50101 0,1.03009 0.15676,3.62769 1.41077,3.62769 0,-0.53744 -0.29111,-0.24633 -0.29111,-0.53744 -0.35829,-0.71658 -0.40308,-1.47794 -0.40308,-2.30649 z m 8.7781,-5.01606 c -0.26871,4.54581 -0.49264,9.02443 -0.53743,13.61502 0,3.49332 0.0448,6.98665 0.51504,10.36801 0.22393,1.58991 0.89573,5.62067 2.57521,5.62067 0.0448,0 0.0448,0 0.11197,-0.0224 l 0.24632,-0.0448 0.0448,-0.17914 c -0.35829,-0.15675 -0.29111,-0.11197 -0.3359,-0.13436 l -0.24632,-0.0896 c -0.9853,-0.87333 -1.38838,-3.67247 -1.56752,-5.37435 v -0.0224 c -0.31351,-2.57521 -0.31351,-5.17281 -0.31351,-7.77041 0,-11.17417 0.89573,-23.221665 2.44085,-34.351043 l 11.51006,-0.470255 c 1.3212,-0.02239 9.02443,-0.268717 9.7858,-0.783759 -0.35829,-0.313504 -2.77675,-0.380683 -5.08324,-0.380683 -2.08256,0 -4.18751,0.08957 -4.65777,0.08957 -3.47093,0.08957 -7.45691,0.156752 -11.3757,0.335897 0.3135,-2.216918 0.69418,-4.657768 1.14205,-6.740327 l 0.42547,-1.992988 c 0.0672,-0.223931 0.15675,-0.447862 0.20153,-0.671793 l -0.0224,0.02239 0.17915,-0.380683 0.20153,-0.71658 c -1.20922,0 -1.9482,2.328884 -2.28409,3.784437 -0.35829,2.037773 -0.78376,4.501016 -1.09727,6.740327 -4.5458,0.201538 -9.11399,0.492649 -13.0104,1.007691 -0.53743,0.06718 -1.18683,0.380683 -1.18683,0.895724 0.15675,0.291111 0.58222,0.425469 0.9853,0.425469 0.0896,0 0.24632,0 0.35829,-0.02239 3.85161,-0.515041 8.41981,-0.850938 12.6745,-1.097262 -0.58222,4.657768 -1.07487,9.673825 -1.43316,14.421166 -0.24633,0.492648 -0.67179,1.746663 -1.07487,2.955891 l -0.58222,1.746661 c -0.15675,0.44787 -0.35829,0.91812 -0.49265,1.36598 v -0.0224 c -0.35829,0.82855 -1.41077,2.97828 -2.37367,3.53811 -0.47026,-0.55983 -0.47026,-1.50034 -0.47026,-1.99298 v -0.11197 c 0,-0.17914 -0.0224,-0.35829 -0.0224,-0.53743 v -0.53744 c 0,-2.64239 0.29111,-5.105632 0.76137,-7.501695 v -0.156752 c 0,-0.04479 0.0224,-0.08957 0.0224,-0.134359 0,-0.425469 -0.15675,-0.918117 -0.69419,-0.918117 -0.87333,0 -1.2988,6.449223 -1.2988,8.531783 0,1.50033 0.0672,4.61298 1.74667,4.79212 2.01538,0 3.58289,-5.03845 4.14272,-7.1434 z m -3.2246,-13.928513 -0.0672,-0.06718 c -0.0896,-0.08957 -0.29111,-0.156752 -0.47026,-0.201538 -0.3359,0.806152 -0.6494,2.127346 -0.6494,2.866319 0,0.380683 0.0896,0.918117 0.35829,1.052476 0.58222,-0.134359 0.69419,-2.08256 1.2988,-3.403753 -0.11196,0 -0.44786,-0.223932 -0.47025,-0.246325 z m 7.54647,11.823565 c -0.0896,0.246324 -0.3359,1.254018 -0.3359,1.836238 0,0.20154 0.0672,0.40307 0.22393,0.627 0.26872,-0.55982 0.69419,-1.321189 0.96291,-1.881017 h -0.0224 c 0.89572,-1.522732 2.23931,-2.351277 3.80683,-2.351277 0.87333,0 1.56751,0.492648 1.56751,2.037773 -0.0672,1.410771 -0.91811,2.552811 -1.67948,3.403751 -1.07487,1.05248 -2.44085,2.26171 -3.73965,3.35897 l -0.62701,0.58222 h 0.0224 c -0.17915,0.11197 -0.26872,0.3359 -0.26872,0.60462 0,0.29111 0.0896,0.55982 0.33589,0.73897 1.74667,1.23162 2.9559,3.26939 3.71726,5.66546 -4.97127,3.11264 -9.15878,12.47296 -9.22596,19.5044 l 0.0448,0.62701 c 0.15676,2.30649 1.03009,5.06084 3.6053,5.06084 4.72494,0 6.94186,-7.92716 7.61366,-12.6969 0.15675,-1.58991 0.26871,-3.09025 0.26871,-4.56819 0,-1.99299 -0.20154,-5.39674 -0.98529,-7.79281 0.9629,-0.47025 2.01538,-0.91811 2.97828,-1.05247 h 0.20154 c 0.0896,0 0.13436,-0.0224 0.17914,-0.0224 0.11197,0 0.22393,0.0672 0.69419,0.0672 l 0.0448,-0.20153 c -0.42547,-0.17915 -0.80616,-0.29111 -1.11966,-0.29111 -0.76137,0.0224 -1.41077,0.0896 -1.92581,0.29111 l -0.38068,0.15675 v -0.0224 c -0.17915,0.0672 -0.55983,0.20153 -0.89573,0.35828 -0.71658,-2.19452 -1.81384,-4.29947 -3.47093,-5.79981 l 0.76137,-0.6494 c 2.46324,-2.03778 5.08323,-4.18751 5.08323,-7.479303 0,-2.37367 -1.41076,-3.426146 -2.82153,-3.426146 -2.03777,0 -3.78443,1.097263 -4.61298,3.314181 z m -1.6347,38.471368 c -1.76905,0 -2.57521,-1.97059 -2.57521,-4.56819 0,-6.47161 3.85162,-15.22732 8.41982,-18.45193 l 0.17914,0.73897 c 0.53744,2.21692 0.69419,4.38905 0.69419,6.40443 0,1.38838 -0.0896,2.79914 -0.24633,4.27709 v -0.0224 c -0.53743,3.98597 -2.39606,10.88305 -6.09092,11.59963 -0.0448,0 -0.0448,0.0224 -0.0896,0.0224 z m 24.87876,-69.463439 c 2.17213,0 4.41144,0.71658 4.94888,3.918795 l 0.0448,0.671793 c 0,0.291111 0,0.671794 0.0224,1.007691 l 0.11196,1.254014 c 0.69419,-0.559828 0.91812,-2.552815 0.96291,-2.978284 -0.11197,-3.918795 -3.6053,-4.881699 -6.04614,-4.881699 -4.29948,0 -12.87605,3.135036 -13.41348,10.323226 v 0.08957 c 0,0.04479 -0.0224,0.08957 -0.0224,0.134359 0,4.635375 3.76204,9.002032 7.07622,12.764075 2.19453,2.508029 4.43384,5.105631 6.04614,8.039129 -6.44922,1.545124 -15.9439,6.5164 -16.88441,15.49604 0,1.36598 0.0896,2.21692 0.60462,3.247 1.38837,2.19452 3.71725,2.9335 5.71024,2.97828 4.03076,0 8.10631,-2.44085 10.65912,-6.04614 1.99299,-3.22461 2.68718,-6.60597 2.68718,-10.09929 0,-1.9482 -0.40308,-3.69487 -1.25402,-5.463925 0.87334,-0.134359 3.6053,-0.71658 3.6053,-0.761366 0,-0.156752 -0.35829,-0.268717 -0.44787,-0.268717 -0.98529,0 -2.23931,0.447862 -3.38136,0.6494 -2.77674,-5.396741 -7.72562,-9.449894 -10.99502,-14.443559 v 0.02239 c -1.25401,-2.082559 -2.03777,-3.806829 -2.03777,-6.135713 0,-6.47161 7.63605,-9.517074 12.00271,-9.517074 z m -0.0224,30.76814 h -0.0224 c 0.82855,1.634699 1.25402,3.291789 1.25402,5.396739 0,7.27776 -3.22461,12.49536 -8.75571,14.48835 -1.03008,0.38068 -2.12735,0.55982 -3.247,0.58222 -3.02307,-0.20154 -4.97127,-2.03778 -5.2176,-4.47863 0.24633,-8.91245 9.7634,-14.35398 15.96629,-16.033465 z m 11.62202,-24.027813 c 0,-0.06718 0.0224,-0.179144 0.0448,-0.268717 0.15675,-0.806152 0.33589,-1.612304 0.6494,-2.530422 l 0.3135,-0.918118 c -1.20923,0 -1.99299,2.306491 -2.2841,3.784437 -0.42547,2.104953 -0.80615,4.411443 -1.14205,6.717934 -4.32187,0.223931 -8.21827,0.425469 -11.95792,0.895725 -0.60462,0.06718 -1.54513,0.335897 -1.54513,0.918118 0.11197,0.313503 0.6494,0.425469 1.09727,0.425469 0.0672,0 0.11196,-0.02239 0.15675,-0.02239 h 0.38068 c 3.71726,-0.470256 7.59127,-0.738973 11.73399,-0.962904 -1.45555,11.151771 -2.21691,23.53516 -2.21691,31.93258 0,3.51572 0.13435,6.85229 0.49264,10.36801 0.24633,1.6347 0.87334,5.62067 2.57521,5.62067 l 0.6718,-0.13436 c -0.35829,-0.15675 -0.42547,-0.17914 -0.44787,-0.17914 -1.81384,-0.60462 -2.14974,-6.91947 -2.14974,-7.61366 -0.0896,-1.72427 -0.11196,-3.44854 -0.11196,-5.17281 0,-11.35331 0.82854,-23.579947 2.44085,-34.88847 3.73965,-0.201538 7.61366,-0.335896 11.30852,-0.447862 l 5.59828,-0.179145 c 3.33657,-0.04479 4.45623,-0.201538 4.45623,-0.6494 0,-0.335897 -3.67247,-0.425469 -4.36666,-0.425469 h -0.17914 c -4.97127,0.06718 -10.95024,0.179145 -16.66048,0.447862 0.3135,-2.284098 0.67179,-4.568195 1.14205,-6.695541 z m 6.22528,29.021482 c -0.0224,0.0896 -0.0896,0.17914 -0.11196,0.26871 v -0.0224 c -0.6494,1.34359 -1.72427,3.62768 -2.88871,3.62768 -0.76137,-0.15675 -0.82855,-2.30649 -0.82855,-3.09025 v -0.13435 c 0,-2.12735 0.31351,-4.14273 0.62701,-5.978966 0,-0.35829 0.3135,-1.589911 0.3135,-2.37367 0,-0.380683 -0.24632,-0.828545 -0.44786,-0.828545 -0.9629,0 -1.36598,3.67247 -1.56752,5.777421 l -0.0672,0.69419 c -0.0672,0.67179 -0.0896,1.36598 -0.0896,2.03777 0,2.03778 0.3359,4.8817 2.35128,5.35196 2.30649,0 4.16512,-5.08324 5.03845,-7.65845 0.0224,0 0.0448,0.0224 0.0672,0.0224 l -0.0224,0.85094 c 0,0.0672 -0.0224,0.11197 -0.0224,0.17915 v 0.17914 c 0,1.81385 0.0448,5.17281 1.79145,5.35196 1.61231,0 3.40375,-3.67247 4.07555,-5.32956 0,-0.0448 0.0448,-0.15676 0.0448,-0.20154 l 0.0896,-0.29111 c 0.22393,-0.71658 0.67179,-1.92581 0.6494,-2.463245 0,-0.04479 -0.0224,-0.403076 -0.0224,-0.42547 -0.33589,0.403077 -1.2764,2.552815 -1.38837,2.799135 -0.60461,1.18684 -2.57521,4.54581 -3.67247,4.79213 l -0.15675,-0.15675 c -0.35829,-0.69419 -0.40308,-1.27641 -0.40308,-1.83624 0,-2.88871 0.3359,-6.35964 0.89573,-9.15878 0,-0.08957 0.0224,-0.134358 0.0224,-0.156752 0,-0.425469 -0.38068,-0.918117 -0.71658,-0.985297 h -0.22393 l -0.20154,0.201538 c -0.9853,2.978285 -1.97059,6.046141 -3.13504,8.934851 z m 1.3212,-11.420493 c 0.49265,-0.06718 0.9853,-0.671794 0.9853,-1.321194 0,-0.470255 -0.35829,-0.828545 -0.73898,-0.828545 h -0.17914 c -0.47026,0.156752 -0.91812,0.694186 -0.91812,1.254014 0,0.515042 0.29111,0.895725 0.73897,0.895725 z m -2.62,-2.149739 c -0.42547,0.156752 -0.91811,0.716579 -0.91811,1.254014 0,0.515042 0.33589,0.895725 0.82854,0.895725 0.47026,-0.06718 1.00769,-0.627007 1.00769,-1.276408 0,-0.492648 -0.29111,-0.873331 -0.71658,-0.873331 z m 16.59331,7.456907 v -0.156752 c 0,-1.477945 -0.96291,-2.619994 -2.44085,-2.709567 -2.97829,0.425469 -5.19521,5.687854 -5.44153,9.158784 l 0.0448,0.69419 c 0.17914,2.61999 1.38837,3.82922 3.17982,3.87401 2.32888,-0.22394 5.1952,-2.08256 7.03144,-3.71726 0.35829,-0.3359 4.74734,-4.612983 4.74734,-5.755032 0,-0.02239 0,-0.06718 -0.11197,-0.29111 -0.22393,0.156751 -2.64239,2.440852 -3.94119,3.829222 l -1.2988,1.27641 c -1.74666,1.41076 -4.29948,3.20221 -6.47161,3.26939 -1.27641,-0.0224 -2.01538,-0.76136 -2.01538,-3.13503 0.0896,-2.62 1.99299,-7.344945 4.36666,-7.658449 0.85094,0.04479 1.05248,0.873332 1.14205,1.43316 v -0.02239 l 0.0448,0.380683 c 0.0672,0.515042 0.22394,1.254015 0.40308,1.522732 0.55983,-0.06718 0.73897,-1.522732 0.76137,-1.992987 z m 10.65912,-26.916524 c 0.0448,-0.08957 0.0672,-0.268717 0.0672,-0.268717 -0.13435,-0.111966 -0.15675,-0.111966 -0.20153,-0.111966 -1.03009,0 -1.74667,2.328884 -1.9482,3.358967 l -0.49265,2.552815 c -0.60462,4.321871 -1.00769,9.203571 -1.3212,13.547835 -0.42547,7.300155 -0.82854,16.391755 -0.82854,23.848665 0,0.38069 0.0224,0.73897 0.17914,1.00769 l -0.0224,-0.0224 c 0.0448,0.15675 0.24632,0.29111 0.47026,0.29111 0.22393,-0.0224 0.42546,-0.29111 0.44786,-0.53744 0.33589,-2.68717 1.11965,-5.75503 1.90341,-8.33023 1.18684,1.03008 2.44085,1.32119 3.78444,1.32119 0.60461,-0.0672 1.20923,-0.26872 1.83623,-0.6494 0.31351,-0.26872 1.11966,-0.9853 1.11966,-1.45555 0,-0.0224 0,-0.0672 -0.11197,-0.24633 -0.29111,0 -1.52273,0.80616 -1.52273,0.82855 l 0.0896,-0.11197 c -0.47026,0.20154 -0.91812,0.26872 -1.41077,0.26872 -1.14205,0 -2.26171,-0.51504 -3.247,-1.45555 1.11965,-3.38136 2.75435,-7.770413 4.92648,-10.12169 V 94.2027 c 0.22393,-0.268717 0.38069,-0.403076 0.58222,-0.559827 l 0.69419,-0.582221 -0.13436,-0.179145 c -3.67247,0.962904 -7.00904,10.547153 -8.37502,15.585603 -0.0224,0 -0.0672,-0.0224 -0.0896,-0.0224 0.13436,-6.24768 0.42547,-12.51775 0.82855,-18.63107 l 0.0896,-1.142049 c 0.38068,-5.575886 0.94051,-12.540144 2.48564,-17.556202 l 0.20154,-0.492648 z"
       id="text1"
       aria-label="SchnitzStück"
       inkscape:label="text1" />
    <path
       style="fill:#ffffff;fill-opacity:1;stroke-width:0.164679"
       d="m 16.107098,95.917633 c 0.742007,-0.1758 6.434513,-0.16636 10.139296,-0.1129 4.481295,0.0647 10.300177,0.0864 13.041568,-0.16293 2.866939,-0.26073 6.977281,-0.40179 12.095164,-0.20157 3.715585,0.14537 6.041754,0.13848 9.602704,-0.12982 2.568131,-0.19349 3.27353,-0.10501 8.620737,0.20151 3.06522,0.17572 3.10991,0.37236 4.3253,0.1238 1.68316,-0.34423 4.26282,-0.40704 8.27063,-0.17162 4.30466,0.25286 6.9979,0.18286 12.51307,-0.1593 5.952213,-0.36927 9.382573,-0.28758 15.432723,-0.14043 4.46031,0.2718 23.14899,0.092 24.46154,0.11425 3.58867,0.0608 30.28243,0.32154 40.11719,0.10611 12.76083,-0.27953 47.25206,-0.0978 47.25206,0.2489 0,0.17808 -10.50342,0.2318 -28.9099,-0.005 -6.26462,-0.0807 -10.6313,0.0154 -14.1703,0.0215 -15.46783,0.11398 -15.86466,0.24723 -28.62131,0.1087 -8.03282,-0.0872 -16.83019,-0.14792 -24.29549,-0.17852 -10.74995,-0.044 -12.14137,0.10421 -16.21186,-0.0297 -6.08669,-0.20031 -8.48167,-0.27599 -13.774753,0.0522 -6.39811,0.39674 -8.5754,0.43219 -12.99564,0.21161 -4.75835,-0.23746 -8.13413,-0.17808 -8.77155,0.15429 -0.52277,0.27258 -1.30451,0.15384 -5.55636,-0.11459 -4.091181,-0.25828 -6.080069,-0.37309 -8.88003,-0.14593 -2.147516,0.17424 -4.172772,0.1708 -13.139485,-0.0223 -2.820896,-0.0608 -3.596235,-0.0349 -7.094142,0.23685 -3.937013,0.30585 -24.571894,0.27477 -23.393397,-0.004 z"
       id="path1"
       sodipodi:nodetypes="csssssssscsssscsssssssccccc"
       inkscape:label="Line" />
    <path
       style="opacity:0.1;fill:#680024;fill-opacity:1;stroke:#000000;stroke-width:2.13893;stroke-linecap:round;stroke-dasharray:none;stroke-opacity:1"
       d="m 16.874549,95.720443 204.323251,-0.2242 v 0"
       id="path2"
       inkscape:label="Mask" />
  </g>
</svg>
