<?xml version="1.0" ?><!DOCTYPE svg  PUBLIC '-//W3C//DTD SVG 1.1//EN'  'http://www.w3.org/Graphics/SVG/1.1/DTD/svg11.dtd'><svg enable-background="new 0 0 48 48" id="Layer_1" version="1.1" viewBox="0 0 48 48" xml:space="preserve" xmlns="http://www.w3.org/2000/svg" xmlns:xlink="http://www.w3.org/1999/xlink"><g><g><g><path d="M1,2.4c0.1,11.2,0.3,22.4,0.4,33.6c0,1.4-0.7,6,0.8,7c0.8,0.5,2.4,0.3,3.1,0.4c3.2,0.1,6.5,0.1,9.7,0.1     c2.8,0,7.2,0.8,9.7-0.8c1.6-1.1,0.5-7.6,0.5-9.2c0-10.4,0.8-20.9-1.5-31C23.7,2.1,23.4,2,23.2,2c-7.1-0.8-14-1.4-21.1-0.3     C1.3,1.8,1.7,3,2.5,2.8c5-0.8,10-0.7,15-0.3c1.3,0.1,5-0.2,5.5,1.8c0.6,2.7,1,5.5,1.1,8.3c0.1,2.9,1.4,29.1-1.1,29.4     c-4.4,0.6-9.2,0.2-13.6,0.1c-1.7,0-6.2,0.6-6.5-2.4c-0.2-2.6-0.1-5.2-0.1-7.8C2.5,22.2,2.4,12.3,2.3,2.4C2.3,1.6,1,1.6,1,2.4     L1,2.4z" /></g></g><g><g><path d="M24.2,4.2C25,1,40.5,2.3,43.2,2.3c4.3,0,2.5,17.6,2.5,20.5c0,2.4,1.3,19.2-1.4,19.4     c-3.2,0.3-6.4,0.2-9.6,0.2c-3,0-7.3,0.7-10-0.8c-0.7-0.4-1.3,0.7-0.6,1.1c3.1,1.7,7.2,0.9,10.6,0.9c3.4,0,8.3,0.8,11.5-0.7     c1.6-0.8,0.8-5.2,0.8-6.2c0-6,0-11.9,0-17.9c0-5.1,0.3-10.2-0.1-15.3c-0.1-2-2.1-2.3-3.7-2.5c-5.5-0.5-11.4,0.1-16.9,0.5     c-1.7,0.1-2.9,0.6-3.3,2.3C22.9,4.7,24.1,5,24.2,4.2L24.2,4.2z" /></g></g><g><g><path d="M28.5,18.8c-0.9,2.1,0.2,4.4-0.1,6.6c-0.1,0.8,1.1,0.8,1.3,0c0.3-2.1-0.8-4.2,0.1-6.2     C30.1,18.4,28.8,18.1,28.5,18.8L28.5,18.8z" /></g></g><g><g><path d="M18.7,19.2c-0.1,0.9-0.1,1.7-0.2,2.6c-0.1,0.9-0.2,1.8,0,2.6c0.2,0.8,1.4,0.5,1.2-0.3     c-0.2-0.7,0-1.6,0.1-2.3c0.1-0.9,0.1-1.7,0.2-2.6C20,18.4,18.8,18.4,18.7,19.2L18.7,19.2z" /></g></g><g><g><path d="M5.6,43.5c0,1,0,2,0,3c0,0.8,1.3,0.8,1.3,0c0-1,0-2,0-3C6.9,42.7,5.6,42.7,5.6,43.5L5.6,43.5z" /></g></g><g><g><path d="M38.8,43.8c0,0.9,0,1.7,0,2.6c0,0.8,1.3,0.8,1.3,0c0-0.9,0-1.7,0-2.6C40.1,43,38.8,43,38.8,43.8     L38.8,43.8z" /></g></g></g></svg>