<?xml version="1.0" ?><svg id="Layer_1" style="enable-background:new 0 0 200 200;" version="1.1" viewBox="0 0 200 200" xml:space="preserve" xmlns="http://www.w3.org/2000/svg" xmlns:xlink="http://www.w3.org/1999/xlink"><path d="M174.7,113.2c0.4,0,0.8-1,1.1-3.1l0,0c0.5-3.9,1-7.9,1.1-12c0-1,0-2-0.2-3.2c-0.1-0.7-0.2-1.3-0.5-1.9  c-0.1-0.3-0.3-0.6-0.5-0.9c-0.2-0.3-0.4-0.5-0.7-0.7c-0.6-0.3-1.3-0.4-1.9-0.4c-0.3,0-0.7,0-1,0l-0.8,0c-0.5,0-0.9,0-1.3,0l-1.4-0.2  c-8-1.1-16.1-0.9-24-0.8c-2.1,0-4.1,0.1-6.2,0.1c0.9-2.1,1.4-4.1,1.4-6.2v-2.4h21.7c7.3,0,13.2-1.5,13.2-3.4c0.4,0,0.8-0.8,0.9-2.5  v0c0.3-8.4,0.5-16.9,0.8-25.3c0-1.1,0-2.1,0.1-3.1l0.3-3.1c0.2-2.1,0.4-4.2,0.6-6.4c0.2-2.1,0.3-4.3,0.3-6.5c0-1.1-0.1-2.2-0.2-3.4  c-0.1-0.6-0.2-1.1-0.5-2.1c-0.3-0.8-0.8-1.6-1.4-2.2c-0.6-0.3-1.1-0.8-1.7-0.9c-0.6-0.2-1.1-0.4-1.5-0.4c-0.9-0.2-1.8-0.3-2.7-0.4  c-1.7-0.1-3.4-0.1-5-0.1c-3.3,0.1-6.5,0.3-9.7,0.6c-1.6,0.1-3.2,0.3-4.6,0.3c-0.6,0-1.5,0-2.3,0l-2.4,0l-9.6-0.1  c-6.4-0.1-12.8-0.1-19.2-0.2c-1.6,0-3.3,0-4.6-0.1l-4.8-0.4c-1.6-0.1-3.3-0.2-5.1-0.2c-0.9,0-1.8,0.1-2.9,0.2c-0.2,0-0.7,0.1-1,0.2  c-0.4,0.1-0.8,0.2-1.1,0.4c-0.3,0.2-0.7,0.3-1,0.6l-0.4,0.4c-0.1,0.1-0.1,0.1-0.2,0.2L95.4,24c-0.5,0.8-1.1,1.6-1.3,2.6  c-0.1,0.3-0.2,0.7-0.3,1l-0.2,0.9c-0.1,0.6-0.2,1.2-0.2,1.7c-0.1,0.6-0.1,1.1-0.1,1.7c-0.1,2.2,0,4.2,0,6.3c0.2,4.1,0.6,8.1,1,12  c0.1,1.2,0.2,2.3,0.3,3.4c0,0.5,0,1,0,1.4l-0.1,1.7l-0.6,7.1c-0.2,2.4-0.3,4.8-0.4,7.4c0,0.6,0,1.3,0,1.9c0,0.6,0.1,1.3,0.1,2  c0,0.3,0.1,0.7,0.1,1.1l0.2,1.2c0.4,1.1,0.8,2.2,1.5,3.1c0.9,0.9,2.1,1.5,3.4,1.7c0.7,0.2,1.1,0.2,1.5,0.2c0.4,0,0.8,0.1,1.2,0.1  c1.5,0.1,2.9,0.1,4.3,0c2.8-0.1,5.5-0.3,8.1-0.5l3.9-0.3l0.8,0l1,0h2h8h3.4V84c0,2.1,0.5,4.1,1.4,6.2c-0.6,0-1.2,0-1.7,0l-11.9-0.2  c-8-0.1-15.9-0.2-23.9-0.4c-15.9-0.2-31.8-0.3-47.8-0.5l-6,0c-0.3,0-0.5,0-0.7,0c0.1-0.3,0.1-0.6,0.1-1V73.7c0-0.6,0-1.2,0-1.9  c0-0.7-0.1-1.3-0.1-2L42,66.1c-0.2-2.4-0.4-4.8-0.6-7.2c-0.1-2.1-0.2-4.1-0.2-6.1c0-1,0.1-1.9,0.1-2.8c0.1-0.4,0.1-0.9,0.2-1.1  c0.1-0.4,0-0.3,0.1-0.3c0,0,0,0,0-0.1c0,0,0,0,0.2-0.1c0.4-0.1,1-0.3,1.6-0.4c1.2-0.2,2.6-0.3,4-0.3c2.8-0.1,5.6,0,8.7,0l4.4-0.3  c0.7,0,1.4,0,1.9,0c0.4,0,0.7,0,1.1,0.2c0.3,0.2,0.5,0.5,0.6,1c0.1,0.2,0.1,0.5,0.2,0.9c0.1,0.3,0.1,0.7,0.1,1l0.2,2.8  c-1.6,0.1-3.2,0.4-4.7,1c-2.2,0.8-4.2,2.1-5.9,3.8c-1.6,1.8-2.8,4-3.4,6.3c-0.3,1.1,0,2.2,0.6,2.9c0.6,0.7,1.4,1.1,2.3,1.1  c0,0.4,0.2,0.8,0.6,0.9c6,0.8,12,1.5,18,1.9l1.1,0.1l0.7,0l1,0l2.1,0.1c0.7,0,1.3-0.1,2-0.1l1-0.1l0.5,0c0.1,0,0.4,0,0.3-0.2l0-2  c-0.1-1.3,0-2.6-0.4-4.1c-0.1-0.7-0.2-1.4-0.5-2.1c-0.2-0.6-0.3-0.9-0.6-1.4c-0.4-0.9-0.9-1.7-1.6-2.5c-1.2-1.6-2.8-2.8-4.5-3.7  c-2.1-1.1-4.4-1.7-6.6-1.8l0.3-2.8c0-0.4,0.1-0.7,0.1-1.1c0-0.4,0.1-0.8,0-1.3c0-1-0.3-2.1-1.1-2.9c-0.7-0.8-1.8-1.2-2.8-1.5  c-1-0.2-1.7-0.3-2.5-0.4c-1.5-0.2-3.1-0.2-4.4-0.4c-2.7-0.3-5.7-0.8-8.7-1c-1.5-0.1-3.1-0.2-4.7,0c-0.8,0.1-1.7,0.2-2.7,0.4  l-0.9,0.3c-0.3,0.1-0.6,0.3-0.9,0.5c-0.6,0.3-1.1,0.8-1.6,1.3l-0.8,1.3c-0.3,0.4-0.3,0.9-0.5,1.2c-0.3,0.8-0.3,1.3-0.5,2  c-0.2,1.2-0.3,2.4-0.3,3.6c-0.1,2.3,0,4.5,0.1,6.7c0.2,2.5,0.4,4.9,0.6,7.4l0.3,3.6c0,0.6,0.1,1.2,0.1,1.7c0,0.5,0,1.1,0,1.7v14.6  c0,0.2,0,0.4,0.1,0.6c-1.5-0.1-3.1-0.2-4.8-0.1c-1.2,0.1-2.5,0.3-3.9,0.8c-0.7,0.3-1.4,0.6-2.2,1.2c-0.4,0.3-0.7,0.7-1.1,1L23,93  c-0.2,0.4-0.4,0.9-0.5,1.4c0,0.2-0.1,0.5-0.1,0.7l-0.1,0.4c-0.1,0.6-0.1,1.1-0.1,1.6c-0.1,1.1-0.1,2.1-0.2,3.1  c-0.1,2-0.1,4.1-0.1,6.1c0,1,0,2.1,0.1,3.1l0,0.8c0,0.5,0.1,0.9,0.1,1.4c0.1,1,0.3,2,0.7,2.7c0.1,0.1,0.1,0.2,0.2,0.3  c-0.3,0.5-0.5,1.1-0.5,1.7v23.2c0,12.7,0.8,25.3,2.5,37.9c0.1,0.8,1.6,0.8,1.7,0c1.7-12.6,2.5-25.3,2.5-37.9v-23  c0.9-0.1,1.4-0.1,1.4-0.1c1.9,0.2,4.1,0.5,6.1,0.6c20.4,1.7,40.6,0.2,60.5-0.4c5-0.2,10-0.2,14.9-0.2h15h30.1  c5.9,0,11.1-0.6,14.2-1.5c-0.2,0.4-0.3,0.9-0.3,1.4v23.2c0,12.7,0.8,25.3,2.5,37.9c0.1,0.8,1.6,0.8,1.7,0  c1.7-12.6,2.5-25.3,2.5-37.9v-23.2C178.1,114.6,176.5,113.2,174.7,113.2z M100,32.2c0-0.5,0-0.9,0.1-1.3c0-0.4,0.1-0.9,0.1-1.2  l0.1-0.6c0-0.2,0.1-0.3,0.1-0.4c0-0.1,0,0,0-0.1l0,0l0,0c0,0,0,0,0.1,0c0.5-0.1,1.2-0.2,1.9-0.2c1.4-0.1,2.9,0,4.5,0.1l4.8,0.3  c1.9,0.1,3.3,0,5,0c6.4-0.1,12.8-0.1,19.2-0.2l9.6-0.1l2.4,0c0.8,0,1.5,0,2.5-0.1c1.8-0.1,3.3-0.3,4.9-0.5c3.2-0.4,6.3-0.7,9.4-0.9  c1.5-0.1,3.1-0.1,4.5-0.1c0.7,0,1.4,0.1,2.1,0.2c0.3,0,0.6,0.1,0.8,0.2c0.2,0,0.2,0.1,0.4,0.1c0.4,0,0.8,2.4,0.9,4.3  c0.1,2,0.1,4.1,0,6.2c-0.1,2.1-0.2,4.2-0.3,6.3l-0.1,3.2c0,1.2,0,2.2,0.1,3.2c0.1,4.1,0.2,8.1,0.4,12.2c-14.7-1.6-29.4-2.5-44.2-2.5  h-27.3c-0.3,0-0.7,0.1-1,0.1l0.3-3.1l0.1-1.9c0-0.7,0-1.4,0-2.1c-0.1-1.3-0.2-2.5-0.3-3.7c-0.4-4-0.8-7.9-1-11.8  C100,35.9,99.9,34,100,32.2z M121.6,74.9h-2l-1,0c-0.5,0-0.8,0-1.2,0.1l-4,0.3c-2.6,0.2-5.2,0.4-7.8,0.5c-1.3,0-2.5,0.1-3.7,0  c-0.3,0-0.6,0-0.8-0.1c-0.2,0-0.5-0.1-0.5-0.1l-0.1-0.5c0-0.2-0.1-0.5-0.1-0.7c-0.1-0.5-0.1-1-0.1-1.6c0-0.5,0-1.1,0-1.6  c0-1.5,0.1-3,0.2-4.5c0.5,0.2,1,0.3,1.5,0.3h27.3c14.8,0,29.5-0.8,44.2-2.5c0.1,3.8,0.2,7.5,0.3,11.3v0c0,0.6,0.1,1,0.2,1.4  c-1.7-1.3-6.7-2.3-12.6-2.3h-31.9H121.6z M72.4,63.2c0.3,0.4,0.6,0.8,0.9,1.3c0.1,0.2,0.3,0.5,0.3,0.7c0,0,0,0,0.1,0  c0,0,0.1,0.1,0.1,0.2l0.1,0.1c0,0,0,0,0,0.1c0,0-0.1,0.1-0.2,0.1l-0.1,0c0,0-0.1,0-0.2,0l-0.3,0L72,65.8c-5.2,0.4-10.5,0.9-15.7,1.6  c0.4-0.4,0.7-0.7,0.8-1.2c0.3-1.3,0.9-2.4,1.7-3.3c0.9-0.9,2-1.6,3.2-2.1c2.5-0.9,5.7-0.8,8,0.5C71,61.8,71.8,62.4,72.4,63.2z   M127.3,109.8h-15c-5,0-10.1,0.1-15.1,0.2c-20.1,0.6-40.1,2-59.8,0.4c-2-0.1-3.9-0.4-6-0.6c-1.2-0.1-1.6,0-2.1,0.1l-0.4,0l0,0l0,0  l0,0l0-0.7c0-0.9-0.1-1.9-0.1-2.9c0-1.9,0-3.9,0-5.8c0-1,0.1-1.9,0.1-2.9c0-0.5,0.1-0.9,0.1-1.3l0-0.3c0-0.1,0,0,0,0l0,0l0,0  c0,0,0.2-0.1,0.4-0.2c0.5-0.2,1.2-0.3,2-0.4c1.6-0.1,3.5,0,5.5,0.1c1,0.1,2,0.1,3.1,0.2c1.1,0,2.1,0,3.1,0l6,0  c15.9-0.2,31.9-0.3,47.8-0.5c8-0.1,15.9-0.2,23.9-0.4l12-0.2c4-0.1,8-0.4,12-0.6c7.9-0.5,15.8-0.9,23.6-0.2l1.5,0.1  c0.7,0,1.2,0,1.7-0.1l1.1-0.1c0.3,0,0.6,0,0.9,0.1c0.5,0.3,0.7,1,0.8,1.6c0.1,0.8,0.2,1.8,0.2,2.7c0.1,3.9-0.3,7.8-0.5,11.8l0,0  c-0.1,1.1,0,1.9,0.1,2.5c-1.9-1.5-8.6-2.6-16.7-2.6H127.3z"/></svg>