<?xml version="1.0" ?><svg enable-background="new 0 0 512 512" id="Layer_1" version="1.1" viewBox="0 0 512 512" xml:space="preserve" xmlns="http://www.w3.org/2000/svg" xmlns:xlink="http://www.w3.org/1999/xlink"><path d="M511.3519592,77.4833527c-1.9008789-4.8930206-7.4077148-7.3180542-12.2982178-5.4159164L3.748394,264.5420227  l-0.0890443,0.0328369c-1.7872009,0.70224-3.1828597,2.2785339-3.5605085,4.3044434  c-0.5835242,3.1222229,1.4764931,6.1282654,4.5993586,6.709259l142.6236877,26.6122437l0.0833588,0.0151672  c0.1686096,0.030304,0.3429108-0.0126343,0.5140533,0c3.3224335,21.2923279,7.0395508,42.4936829,10.5470123,63.7456055  l12.2596893,67.9035339c0.3858643,2.0941162,1.5882721,4.0619202,3.4986267,5.3375854  c3.7493286,2.5058899,8.821701,1.5004883,11.3282013-2.2507324l0.4761658-0.7123413l7.6508636-11.4456787  c8.2141724-4.7161865,16.3967743-9.4778442,24.6229553-14.1763611l38.2637787-23.0908813  c12.6758728-7.8106384,26.3811035-14.1536255,37.6682739-23.9396362  c8.9233704-7.6060486,17.5158081-15.6819153,25.1117249-25.1799622  c29.4023132,5.9489136,58.815979,11.8371887,88.2946777,17.3844604c4.9978638,0.9295959,10.0973816-1.8844299,11.8359375-6.8305054  l23.4414063-66.0493774l23.0176086-66.1959076l45.50354-132.5787354l0.0473633-0.1389313  C512.1875,81.9519806,512.1969604,79.655777,511.3519592,77.4833527z M147.3635559,292.6497192L26.7451859,268.2806091  L452.3509827,109.802002L147.3635559,292.6497192z M168.5996704,363.6527405  c-6.0436401-20.6607971-11.8776093-41.3721313-18.1062927-61.9899902c0.054306-0.030304,0.1155701-0.0328369,0.1692505-0.0656738  l316.1507874-197.1806641l12.0014038-4.4661102c-36.1065063,31.0050888-72.084198,62.1491165-107.7170715,93.6720657  c-43.3380432,38.0301208-86.5422058,76.2067413-129.3365021,114.8304901  c-1.3596649,1.2276917-2.3517914,2.8873291-2.7357483,4.8222961c-0.5500488,2.7736206,0.3770142,5.4083252,2.0985413,7.3887634  c-13.7658691,14.967041-25.5746613,31.0834045-36.7159271,47.5938721  c-6.2678375,9.4450073-11.9988708,19.2032471-17.1943817,29.2797852l-6.0183868,11.710907L168.5996704,363.6527405z   M282.3382874,346.6547546c-13.0326843,7.302887-23.646637,18.0462952-35.2899628,27.324585l-34.6938019,28.1708374  c-2.6927948,2.2962036-5.404541,4.5646362-8.1099701,6.8406372l0.6858215-1.0256042  c6.2880402-9.432373,12.0386658-19.1805115,17.2512207-29.2469482  c9.0111694-17.7229614,17.3560638-35.8399963,23.7539978-55.1064148c0,0,0.0069427,0.0050659,0.0107269,0.0050659  l0.1566162,0.0328369c19.495636,3.8648987,38.9717102,7.8308411,58.4509583,11.7765808  C296.8461914,338.7380066,289.4990845,342.565033,282.3382874,346.6547546z M446.09198,209.7488403l-23.4091797,66.0595093  L402.6251221,333.57724c-45.2698669-8.4548035-90.6628723-16.2528076-136.0148315-24.2705688  c37.7181396-35.4156189,75.173584-71.1192322,112.4768066-106.9895477  c35.9353638-34.2763672,71.5038452-68.9543762,106.9270325-103.7864838L446.09198,209.7488403z"/></svg>