<?xml version="1.0" ?><svg id="Layer_1" style="enable-background:new 0 0 200 200;" version="1.1" viewBox="0 0 200 200" xml:space="preserve" xmlns="http://www.w3.org/2000/svg" xmlns:xlink="http://www.w3.org/1999/xlink"><path d="M137.9,94.2L137.9,94.2c-1.4-8.8-2.7-17.6-4.1-26.4l-2.1-13.2c-0.6-4.3-0.9-8.8-1.8-13.4c-0.2-1.1-0.5-2.3-0.8-3.5  c-0.1-0.6-0.3-1.2-0.5-1.7l-0.3-1c-0.2-0.5-0.3-0.9-0.5-1.4c-0.4-0.9-0.9-1.6-1.8-2c-0.8-0.4-1.8-0.5-2.7-0.5l-1.2,0l-0.8,0l-1.7,0  L106.2,31l-13.4-0.2l-6.5-0.1L83,30.4c-0.6,0-1.3-0.1-2-0.1c-0.3,0-1,0.1-1.5,0.2c-0.5,0.1-1,0.3-1.5,0.5c-1.3,0.6-2.4,1.7-3,3  c-0.3,0.6-0.6,1.5-0.7,1.9c-0.1,0.5-0.2,1-0.3,1.4l-0.3,2.1l-0.4,2.1l-1.7,8.8l-3.4,17.5l-6.1,32.4h36.2V120c0,10.4,0.8,20.7,2.3,31  c0,0-0.1,0-0.1,0c-2.3-0.1-4.7-0.1-7.3,0.1c-2.5,0.3-5.1,0.8-7.8,2.1c-2.6,1.3-5,3.8-6.1,6.7c-0.2,0.5-0.5,1.1-0.6,1.6  c-0.1,0.5-0.2,1.1-0.2,1.6c-0.1,1.1-0.3,2.1-0.4,3.2L78,168l-0.1,0.8l0,0.4c0,0.1,0.2,0,0.3,0.1l3.1,0.3l35.8,0  c2.7,0,4.8-1.6,4.8-3.6c0.4,0,0.8-0.3,0.9-1c0.1-2.4-0.4-5-1.9-7.2c-1.5-2.2-3.9-3.8-6.2-4.7c-3.9-1.5-7.8-1.8-11.6-2  c1.5-10.3,2.4-20.7,2.4-31.1v-19.7h9.4v3.3c0,3.3,0.9,6.6,2.7,9.8c0.1,0.2,1.7,0.2,1.8,0c1.8-3.3,2.7-6.5,2.7-9.8v-3.3h2.8  c6.9,0,12.5-1.6,12.5-3.6v0C137.8,96.6,138.1,95.8,137.9,94.2z M113.5,157.1c2,0.5,3.7,1.3,5.1,2.6c1,1,1.7,2.3,2.1,3.8  c-0.9-0.7-2.1-1.1-3.5-1.1H86c0,0,0,0,0,0c0.5-1.4,1.4-2.5,2.8-3.3c1.4-0.8,3.3-1.4,5.3-1.7c2-0.4,4.2-0.5,6.4-0.7  C105.1,156.6,109.5,156.2,113.5,157.1z M70.7,93.1l4.5-24l3.3-17.5l1.6-8.8l0.4-2.3c0.1-0.8,0.2-1.6,0.3-2.3c0-0.3,0.1-0.6,0.1-0.8  c0.1-0.3,0-0.1,0-0.2c0,0,0-0.1,0.1-0.1l0,0c0.1,0-0.1,0,0.2,0c0.4,0,0.8,0,1.3,0l3.4,0.2l6.9-0.1l13.4-0.2l13.4-0.2l1.7,0l0.9,0  l0.4,0l0.1,0c0.1,0,0.3,0,0.4,0c0.1,0,0.2,0.2,0.3,0.3l0.1,0.2l0.2,0.6c0.2,0.5,0.4,1,0.5,1.4c0.3,1,0.6,2,0.8,3  c1,4.1,1.5,8.6,2.4,13.1l2.9,13.1c2,8.7,3.9,17.4,5.8,26.1l0,0c0.1,0.2,0.1,0.4,0.2,0.6c-2-1.2-6.3-2.1-11.4-2.1H70.7z"/></svg>