<?xml version="1.0" ?><svg id="Layer_1" style="enable-background:new 0 0 200 200;" version="1.1" viewBox="0 0 200 200" xml:space="preserve" xmlns="http://www.w3.org/2000/svg" xmlns:xlink="http://www.w3.org/1999/xlink"><path d="M183.4,61.1c-0.2-0.5-0.6-1-1-1.5c-0.4-0.4-0.9-0.8-1.4-1c-1-0.5-2-0.8-2.9-0.9c-1.9-0.4-3.8-0.4-5.6-0.4  c-7.3-0.1-14.6-0.3-21.9-0.4c-14.6-0.2-29.2-0.5-43.8-0.7C92.2,56,77.6,55.9,63,55.7l-21.9-0.2l-5.5,0c-1.7,0-3.4-0.1-5.3-0.3  c-1.9-0.1-3.8-0.3-6-0.1c-1.1,0.1-2.3,0.3-3.6,0.9c-0.6,0.2-1.3,0.7-1.9,1.2c-0.3,0.3-0.6,0.6-0.9,0.9l-0.8,1.1  c-0.2,0.6-0.5,1.2-0.6,1.9c-0.1,0.5-0.1,0.8-0.2,1.3c-0.1,0.8-0.1,1.5-0.1,2.2c-0.1,1.4-0.1,2.8,0,4.2c0,1.4,0.1,2.8,0.2,4.3  l0.1,0.6l0.2,1c0.1,0.3,0.1,0.7,0.2,1c0.1,0.3,0.2,0.6,0.3,0.9c0.1,0.3,0.3,0.5,0.5,0.8L18,78c0.4,0.5,1,0.7,1.5,1  c0.6,0.2,1.2,0.3,1.9,0.3l1,0c0.3,0,0.8,0,0.9,0c0.8,0,1.5-0.1,2.2-0.2c0.6-0.1,1.4-0.1,1.8-0.1l1.8,0.1l8.1,0.3  C57.4,80,77.6,80,97.8,79.8V95c0,9.1,0.8,18.3,2.4,27.3c-1.4-0.6-3.9-0.1-6.3,1.3c-3.2,1.9-6.6,3.6-10,5.4l-5.1,2.7l-3.4,1.8  l-2.5,1.4l-1.2,0.7c-0.3,0.2-0.6,0.5-0.9,0.7c-0.5,0.5-1.2,1-1.7,1.4l-0.5,1.2c-0.1,0.2-0.2,0.4-0.2,0.6c0,0.2-0.1,0.5,0,0.8  c0,0.6,0.2,1.3,0.4,1.9c0.3,0.6,0.6,1,0.8,1.2c0.3,0.3,0.5,0.5,0.9,0.8c0.4,0.3,1,0.5,1.7,0.7c0.8,0.1,1.8,0.1,2.8,0.1h14  c7.9,0,15.7-0.1,23.6-0.2l13.8-0.3c0.9,0,1.8,0,2.6-0.1c0.7-0.1,1.3-0.3,1.7-0.6c0.4-0.2,0.7-0.5,1-0.7c0.2-0.2,0.6-0.5,0.9-1.1  c0.3-0.5,0.4-1.2,0.4-1.8c-0.1-0.6-0.2-0.9-0.5-1.3l-0.8-1.1l-1.5-1.3c-1.8-1-3.5-1.9-5.3-2.8l-3.3-1.6l-6.4-2.9  c-4.3-2-8.5-3.9-12.5-6.3h0c-0.3-0.2-0.5-0.2-0.8-0.3c0.1-0.1,0.1-0.1,0.1-0.2c1.6-9.1,2.4-18.3,2.4-27.5V79.8  c19.9-0.2,39.9-0.5,59.7-0.7c10-0.1,18.2-1.5,18.2-3.3c0.4,0,0.8-1.1,1-3.3l0,0c0.1-1.8,0.4-3.6,0.6-5.4c0.1-0.9,0.2-1.9,0.2-2.8  C183.9,63.2,183.9,62.2,183.4,61.1z M113.5,132.1l6.1,3.6l2.9,1.7c0.3,0.2,0.6,0.4,0.8,0.6c0.2,0.2,0.3,0.3,0.5,0.4  c0.2,0.1,0.2,0.4-0.1,0.5c-0.2,0.2-0.6,0-0.8,0l-0.6-0.1l-0.3,0l-0.1,0l0,0l-0.2,0l-0.4,0l-2.9-0.1l-5.9-0.1  c-7.9-0.2-15.7-0.2-23.6-0.2h-9l6.8-3.5c3.4-1.8,6.9-3.5,10.3-5.5c2.6-1.5,4.2-3.6,4.2-5.2c0.1,0.1,0.1,0.2,0.2,0.2h0  C105.4,127.3,109.4,129.7,113.5,132.1z M164,72.6c-42.3,0.3-84.5,1.5-126.7,0.3l-8.1-0.3l-1,0l-0.5,0l-0.7,0c-1,0-1.6,0.1-2.3,0.2  c-0.7,0.1-1.3,0.1-1.9,0.2c-0.2,0-0.1,0-0.1,0l0,0l0,0l0,0l0,0l0,0l0-0.4c-0.1-1.2-0.2-2.5-0.2-3.8c0-1.3,0-2.6,0-3.8  c0-0.6,0.1-1.2,0.1-1.8c0-0.2,0.1-0.6,0.1-0.7c0,0,0,0,0,0c0,0,0,0,0.1-0.1c0.1-0.1,0.2-0.2,0.4-0.2c0.4-0.2,1-0.3,1.7-0.4  c1.4-0.2,3.2-0.1,4.9,0l2.8,0.2c0.9,0,2,0.1,2.9,0.1l5.5,0L63,61.6c14.6-0.2,29.2-0.3,43.8-0.5c14.6-0.2,29.2-0.5,43.7-0.7  c7.3-0.1,14.6-0.3,21.8-0.4c1.8,0,3.6-0.1,5.3,0.1c1.7,0.2,3.2,0.7,3.7,1.9c0.6,1.2,0.5,3.1,0.4,4.8c-0.1,1.8-0.3,3.6-0.3,5.5v0  c0,1.2,0.1,2.1,0.2,2.7C179.8,73.6,172.6,72.5,164,72.6z"/></svg>